<svg width="512" height="512" viewBox="0 0 512 512" fill="none" xmlns="http://www.w3.org/2000/svg">
<rect width="512" height="512" fill="url(#paint0_linear_2219_124)"/>
<g clip-path="url(#clip0_2219_124)">
<path d="M159.584 261.931C159.584 257.109 158.197 253.255 155.441 250.341C154.105 248.926 152.478 247.809 150.67 247.064C148.862 246.319 146.914 245.963 144.955 246.021C142.48 246.044 140.041 246.612 137.816 247.683C135.637 248.641 133.731 250.115 132.268 251.976V272.015C133.741 273.884 135.665 275.36 137.863 276.307C140.071 277.381 142.494 277.955 144.955 277.988C146.917 278.042 148.868 277.68 150.677 276.927C152.486 276.174 154.11 275.047 155.441 273.622C158.197 270.718 159.578 266.812 159.584 261.904M132.268 320.001H111V229.079H132.268V236.714C134.603 233.765 137.601 231.391 141.024 229.783C144.447 228.174 148.202 227.373 151.992 227.444C160.623 227.444 167.66 230.488 173.103 236.577C178.547 242.666 181.272 251.118 181.278 261.931C181.278 272.837 178.562 281.334 173.131 287.423C167.7 293.511 160.663 296.556 152.02 296.556C144.178 296.556 137.595 293.411 132.268 287.121V320.001ZM209.518 296.556C202.737 296.556 197.54 294.921 193.928 291.651C190.315 288.382 188.521 283.562 188.546 277.193V204.008H209.814V271.339C209.75 273.065 210.314 274.756 211.405 276.106C211.908 276.725 212.55 277.22 213.28 277.551C214.011 277.882 214.809 278.041 215.612 278.015C218.192 278.015 220.023 277.467 221.16 276.38L225.164 292.19C222.026 295.101 216.827 296.556 209.564 296.556M272.824 294.921V287.012C267.128 293.374 259.446 296.556 249.78 296.556C242.419 296.556 236.92 294.729 233.283 291.076C229.646 287.423 227.831 282.402 227.837 276.015V229.079H249.105V267.384C249.105 274.471 252.785 278.015 260.146 278.015C265.213 278.015 269.445 275.884 272.842 271.622V229.079H294.11V294.921H272.824ZM300.01 286.464L308.887 272.015C312.109 274.653 315.778 276.706 319.725 278.079C323.72 279.716 327.986 280.613 332.31 280.728C338.296 280.728 341.286 279.09 341.28 275.814C341.28 274.274 340.337 273.092 338.45 272.27C335.668 271.221 332.773 270.488 329.823 270.087C327.613 269.731 326.124 269.476 325.338 269.339C324.552 269.202 323.082 268.891 320.918 268.425C319.293 268.089 317.702 267.609 316.165 266.991C315.148 266.535 313.77 265.95 312.022 265.219C310.527 264.661 309.18 263.774 308.083 262.626C307.214 261.627 306.27 260.491 305.253 259.219C304.219 257.892 303.49 256.359 303.117 254.725C302.691 252.892 302.483 251.016 302.498 249.136C302.498 243.047 305.028 237.911 310.089 233.728C315.151 229.545 322.148 227.45 331.08 227.444C341.085 227.289 350.87 230.35 358.96 236.166L350.823 250.067C348.326 247.839 345.419 246.106 342.26 244.962C338.751 243.562 335.003 242.843 331.219 242.843C329.1 242.746 326.991 243.169 325.079 244.076C324.412 244.339 323.838 244.789 323.426 245.37C323.014 245.95 322.782 246.637 322.758 247.345C322.775 248.069 323.019 248.769 323.457 249.35C323.894 249.931 324.503 250.363 325.199 250.588C327.845 251.586 330.602 252.273 333.41 252.634C336.628 253.182 339.116 253.629 340.864 253.995C343.301 254.567 345.698 255.296 348.039 256.177C350.592 257.002 352.975 258.27 355.076 259.922C356.941 261.601 358.463 263.616 359.561 265.859C360.949 268.607 361.637 271.648 361.568 274.718C361.568 281.166 358.852 286.415 353.421 290.464C347.99 294.513 340.592 296.535 331.228 296.528C325.299 296.532 319.406 295.607 313.77 293.788C308.723 292.308 304.045 289.8 300.038 286.427" fill="white"/>
<rect x="371" y="183" width="21" height="21" fill="white"/>
<rect x="392" y="204" width="21" height="21" fill="white"/>
<rect x="371" y="225" width="21" height="21" fill="white"/>
</g>
<defs>
<linearGradient id="paint0_linear_2219_124" x1="256" y1="0" x2="256" y2="512" gradientUnits="userSpaceOnUse">
<stop stop-color="#F88800"/>
<stop offset="1" stop-color="#945100"/>
</linearGradient>
<clipPath id="clip0_2219_124">
<rect width="302" height="137" fill="white" transform="translate(111 183)"/>
</clipPath>
</defs>
</svg>
