<svg width="1280" height="200" viewBox="0 0 1280 200" fill="none" xmlns="http://www.w3.org/2000/svg">
<g clip-path="url(#clip0_2190_575)">
<g filter="url(#filter0_iiii_2190_575)">
<rect width="1280" height="200" fill="url(#paint0_linear_2190_575)"/>
<g clip-path="url(#clip1_2190_575)">
<path d="M74.267 101.444C74.267 98.0015 73.2891 95.2504 71.3464 93.1708C70.4043 92.1608 69.2575 91.3633 67.9827 90.8315C66.7079 90.2998 65.3344 90.0461 63.9538 90.0873C62.2088 90.1036 60.4895 90.509 58.921 91.2737C57.3845 91.9569 56.0408 93.0095 55.0096 94.3377V108.641C56.0481 109.975 57.404 111.028 58.9536 111.705C60.5104 112.471 62.2186 112.881 63.9538 112.904C65.337 112.942 66.7124 112.684 67.9876 112.147C69.2627 111.609 70.408 110.805 71.3464 109.788C73.2891 107.715 74.2626 104.927 74.267 101.424M55.0096 142.892H40.0156V77.9943H55.0096V83.4443C56.6557 81.3388 58.7689 79.645 61.1821 78.4966C63.5954 77.3483 66.2427 76.7768 68.9148 76.8274C74.9993 76.8274 79.9603 79.0004 83.7979 83.3465C87.6355 87.6926 89.5564 93.7249 89.5608 101.444C89.5608 109.227 87.6463 115.292 83.8175 119.638C79.9886 123.984 75.0275 126.157 68.9344 126.157C63.4062 126.157 58.7646 123.913 55.0096 119.423V142.892ZM109.47 126.157C104.689 126.157 101.026 124.991 98.4789 122.657C95.9321 120.323 94.6674 116.883 94.6848 112.337V60.0994H109.679V108.158C109.633 109.39 110.031 110.598 110.8 111.561C111.155 112.003 111.608 112.356 112.122 112.592C112.637 112.829 113.2 112.942 113.766 112.924C115.585 112.924 116.876 112.533 117.678 111.757L120.5 123.041C118.288 125.119 114.622 126.157 109.503 126.157M154.1 124.991V119.345C150.084 123.887 144.669 126.157 137.854 126.157C132.665 126.157 128.788 124.854 126.224 122.246C123.66 119.638 122.38 116.055 122.384 111.496V77.9943H137.378V105.335C137.378 110.394 139.973 112.924 145.162 112.924C148.735 112.924 151.718 111.403 154.113 108.36V77.9943H169.107V124.991H154.1ZM173.266 118.954L179.524 108.641C181.795 110.524 184.382 111.989 187.165 112.969C189.982 114.137 192.989 114.778 196.037 114.86C200.257 114.86 202.365 113.691 202.361 111.353C202.361 110.253 201.696 109.41 200.366 108.823C198.404 108.074 196.364 107.551 194.284 107.265C192.726 107.011 191.676 106.828 191.122 106.731C190.568 106.633 189.531 106.411 188.006 106.079C186.86 105.838 185.739 105.496 184.655 105.055C183.938 104.729 182.966 104.312 181.734 103.79C180.68 103.392 179.731 102.759 178.957 101.939C178.344 101.226 177.679 100.416 176.962 99.5074C176.233 98.5605 175.719 97.4659 175.456 96.3C175.156 94.9917 175.009 93.6527 175.02 92.3103C175.02 87.9642 176.804 84.2983 180.372 81.3126C183.94 78.3268 188.873 76.8318 195.17 76.8274C202.224 76.7166 209.122 78.9017 214.825 83.0532L209.089 92.9752C207.328 91.385 205.279 90.1478 203.052 89.331C200.578 88.3323 197.936 87.8189 195.268 87.8186C193.775 87.7493 192.287 88.0517 190.939 88.6987C190.47 88.8869 190.065 89.2078 189.774 89.6223C189.484 90.0367 189.32 90.5267 189.303 91.0325C189.315 91.5489 189.487 92.0488 189.796 92.4633C190.104 92.8778 190.533 93.1865 191.024 93.3468C192.89 94.0592 194.833 94.5494 196.813 94.8071C199.082 95.1982 200.835 95.5177 202.067 95.7784C203.786 96.1867 205.476 96.7072 207.126 97.3365C208.926 97.9251 210.606 98.8302 212.087 100.009C213.402 101.207 214.475 102.646 215.249 104.247C216.227 106.208 216.713 108.379 216.664 110.57C216.664 115.173 214.749 118.919 210.92 121.809C207.091 124.699 201.876 126.142 195.275 126.138C191.094 126.14 186.94 125.48 182.966 124.182C179.408 123.125 176.111 121.336 173.286 118.928M222.955 45.1055H237.942V60.0929H222.955V45.1055ZM237.936 60.0929H252.923V75.0803H237.936V60.0929Z" fill="white"/>
<path d="M222.953 75.0664H237.941V90.0538H222.953V75.0664Z" fill="white"/>
</g>
<g filter="url(#filter1_dd_2190_575)">
<path d="M305.026 105.72H316.826V111H299.506V83H316.626V88.28H305.026V94.24H315.626V99.44H305.026V105.72ZM320.477 111V81.8H325.637V111H320.477ZM362.48 90.44C364.773 90.44 366.6 91.1867 367.96 92.68C369.347 94.1733 370.04 96.1733 370.04 98.68V111H364.88V99.04C364.88 97.84 364.587 96.9067 364 96.24C363.413 95.5733 362.587 95.24 361.52 95.24C360.347 95.24 359.427 95.6267 358.76 96.4C358.12 97.1733 357.8 98.2933 357.8 99.76V111H352.64V99.04C352.64 97.84 352.347 96.9067 351.76 96.24C351.173 95.5733 350.347 95.24 349.28 95.24C348.133 95.24 347.213 95.6267 346.52 96.4C345.853 97.1733 345.52 98.2933 345.52 99.76V111H340.36V91H345.52V93.12C346.72 91.3333 348.573 90.44 351.08 90.44C353.533 90.44 355.347 91.4 356.52 93.32C357.853 91.4 359.84 90.44 362.48 90.44ZM378.783 103.12C379.476 105.627 381.356 106.88 384.423 106.88C386.396 106.88 387.889 106.213 388.903 104.88L393.063 107.28C391.089 110.133 388.183 111.56 384.343 111.56C381.036 111.56 378.383 110.56 376.383 108.56C374.383 106.56 373.382 104.04 373.382 101C373.382 97.9867 374.369 95.48 376.343 93.48C378.316 91.4533 380.849 90.44 383.943 90.44C386.876 90.44 389.289 91.4533 391.183 93.48C393.103 95.5067 394.063 98.0133 394.063 101C394.063 101.667 393.996 102.373 393.863 103.12H378.783ZM378.703 99.12H388.903C388.609 97.76 387.996 96.7467 387.063 96.08C386.156 95.4133 385.116 95.08 383.943 95.08C382.556 95.08 381.409 95.44 380.503 96.16C379.596 96.8533 378.996 97.84 378.703 99.12ZM400.749 88.6C399.869 88.6 399.109 88.2933 398.469 87.68C397.856 87.04 397.549 86.2933 397.549 85.44C397.549 84.5867 397.856 83.84 398.469 83.2C399.109 82.56 399.869 82.24 400.749 82.24C401.603 82.24 402.336 82.56 402.949 83.2C403.589 83.84 403.909 84.5867 403.909 85.44C403.909 86.2933 403.589 87.04 402.949 87.68C402.336 88.2933 401.603 88.6 400.749 88.6ZM398.149 111.4V91H403.309V111.4C403.309 114.333 402.589 116.467 401.149 117.8C399.736 119.16 397.549 119.747 394.589 119.56V114.6C395.816 114.68 396.709 114.467 397.269 113.96C397.856 113.453 398.149 112.6 398.149 111.4ZM425.056 108.52C423.003 110.547 420.496 111.56 417.536 111.56C414.576 111.56 412.07 110.547 410.016 108.52C407.99 106.467 406.976 103.96 406.976 101C406.976 98.04 407.99 95.5467 410.016 93.52C412.07 91.4667 414.576 90.44 417.536 90.44C420.496 90.44 423.003 91.4667 425.056 93.52C427.11 95.5467 428.136 98.04 428.136 101C428.136 103.96 427.11 106.467 425.056 108.52ZM413.656 104.96C414.696 106 415.99 106.52 417.536 106.52C419.083 106.52 420.376 106 421.416 104.96C422.456 103.92 422.976 102.6 422.976 101C422.976 99.4 422.456 98.08 421.416 97.04C420.376 96 419.083 95.48 417.536 95.48C415.99 95.48 414.696 96 413.656 97.04C412.643 98.08 412.136 99.4 412.136 101C412.136 102.6 412.643 103.92 413.656 104.96ZM436.926 94.44C437.406 93.16 438.193 92.2 439.286 91.56C440.406 90.92 441.646 90.6 443.006 90.6V96.36C441.433 96.1733 440.02 96.4933 438.766 97.32C437.54 98.1467 436.926 99.52 436.926 101.44V111H431.766V91H436.926V94.44ZM467.664 90.44C470.357 90.44 472.651 91.4667 474.544 93.52C476.464 95.5467 477.424 98.04 477.424 101C477.424 103.96 476.464 106.467 474.544 108.52C472.651 110.547 470.357 111.56 467.664 111.56C464.864 111.56 462.704 110.587 461.184 108.64V119H456.024V91H461.184V93.36C462.704 91.4133 464.864 90.44 467.664 90.44ZM462.744 105.08C463.784 106.12 465.104 106.64 466.704 106.64C468.304 106.64 469.624 106.12 470.664 105.08C471.731 104.013 472.264 102.653 472.264 101C472.264 99.3467 471.731 98 470.664 96.96C469.624 95.8933 468.304 95.36 466.704 95.36C465.104 95.36 463.784 95.8933 462.744 96.96C461.704 98 461.184 99.3467 461.184 101C461.184 102.653 461.704 104.013 462.744 105.08ZM486.223 94.44C486.703 93.16 487.49 92.2 488.583 91.56C489.703 90.92 490.943 90.6 492.303 90.6V96.36C490.73 96.1733 489.316 96.4933 488.063 97.32C486.836 98.1467 486.223 99.52 486.223 101.44V111H481.063V91H486.223V94.44ZM498.939 103.12C499.632 105.627 501.512 106.88 504.579 106.88C506.552 106.88 508.045 106.213 509.059 104.88L513.219 107.28C511.245 110.133 508.339 111.56 504.499 111.56C501.192 111.56 498.539 110.56 496.539 108.56C494.539 106.56 493.539 104.04 493.539 101C493.539 97.9867 494.525 95.48 496.499 93.48C498.472 91.4533 501.005 90.44 504.099 90.44C507.032 90.44 509.445 91.4533 511.339 93.48C513.259 95.5067 514.219 98.0133 514.219 101C514.219 101.667 514.152 102.373 514.019 103.12H498.939ZM498.859 99.12H509.059C508.765 97.76 508.152 96.7467 507.219 96.08C506.312 95.4133 505.272 95.08 504.099 95.08C502.712 95.08 501.565 95.44 500.659 96.16C499.752 96.8533 499.152 97.84 498.859 99.12ZM527.185 111.56C524.171 111.56 521.651 110.547 519.625 108.52C517.625 106.493 516.625 103.987 516.625 101C516.625 98.0133 517.625 95.5067 519.625 93.48C521.651 91.4533 524.171 90.44 527.185 90.44C529.131 90.44 530.905 90.9067 532.505 91.84C534.105 92.7733 535.318 94.0267 536.145 95.6L531.705 98.2C531.305 97.3733 530.691 96.72 529.865 96.24C529.065 95.76 528.158 95.52 527.145 95.52C525.598 95.52 524.318 96.04 523.305 97.08C522.291 98.0933 521.785 99.4 521.785 101C521.785 102.573 522.291 103.88 523.305 104.92C524.318 105.933 525.598 106.44 527.145 106.44C528.185 106.44 529.105 106.213 529.905 105.76C530.731 105.28 531.345 104.627 531.745 103.8L536.225 106.36C535.345 107.933 534.105 109.2 532.505 110.16C530.905 111.093 529.131 111.56 527.185 111.56ZM541.514 88.6C540.66 88.6 539.914 88.2933 539.274 87.68C538.66 87.04 538.354 86.2933 538.354 85.44C538.354 84.5867 538.66 83.84 539.274 83.2C539.914 82.56 540.66 82.24 541.514 82.24C542.394 82.24 543.14 82.56 543.754 83.2C544.394 83.84 544.714 84.5867 544.714 85.44C544.714 86.2933 544.394 87.04 543.754 87.68C543.14 88.2933 542.394 88.6 541.514 88.6ZM538.954 111V91H544.114V111H538.954ZM565.877 108.52C563.823 110.547 561.317 111.56 558.357 111.56C555.397 111.56 552.89 110.547 550.837 108.52C548.81 106.467 547.797 103.96 547.797 101C547.797 98.04 548.81 95.5467 550.837 93.52C552.89 91.4667 555.397 90.44 558.357 90.44C561.317 90.44 563.823 91.4667 565.877 93.52C567.93 95.5467 568.957 98.04 568.957 101C568.957 103.96 567.93 106.467 565.877 108.52ZM554.477 104.96C555.517 106 556.81 106.52 558.357 106.52C559.903 106.52 561.197 106 562.237 104.96C563.277 103.92 563.797 102.6 563.797 101C563.797 99.4 563.277 98.08 562.237 97.04C561.197 96 559.903 95.48 558.357 95.48C556.81 95.48 555.517 96 554.477 97.04C553.463 98.08 552.957 99.4 552.957 101C552.957 102.6 553.463 103.92 554.477 104.96ZM597.747 83H602.907V111H597.747V108.64C596.227 110.587 594.067 111.56 591.267 111.56C588.573 111.56 586.267 110.547 584.347 108.52C582.453 106.467 581.507 103.96 581.507 101C581.507 98.04 582.453 95.5467 584.347 93.52C586.267 91.4667 588.573 90.44 591.267 90.44C594.067 90.44 596.227 91.4133 597.747 93.36V83ZM588.227 105.08C589.293 106.12 590.627 106.64 592.227 106.64C593.827 106.64 595.147 106.12 596.187 105.08C597.227 104.013 597.747 102.653 597.747 101C597.747 99.3467 597.227 98 596.187 96.96C595.147 95.8933 593.827 95.36 592.227 95.36C590.627 95.36 589.293 95.8933 588.227 96.96C587.187 98 586.667 99.3467 586.667 101C586.667 102.653 587.187 104.013 588.227 105.08ZM611.986 103.12C612.679 105.627 614.559 106.88 617.626 106.88C619.599 106.88 621.092 106.213 622.106 104.88L626.266 107.28C624.292 110.133 621.386 111.56 617.546 111.56C614.239 111.56 611.586 110.56 609.586 108.56C607.586 106.56 606.586 104.04 606.586 101C606.586 97.9867 607.572 95.48 609.546 93.48C611.519 91.4533 614.052 90.44 617.146 90.44C620.079 90.44 622.492 91.4533 624.386 93.48C626.306 95.5067 627.266 98.0133 627.266 101C627.266 101.667 627.199 102.373 627.066 103.12H611.986ZM611.906 99.12H622.106C621.812 97.76 621.199 96.7467 620.266 96.08C619.359 95.4133 618.319 95.08 617.146 95.08C615.759 95.08 614.612 95.44 613.706 96.16C612.799 96.8533 612.199 97.84 611.906 99.12ZM630.868 111V81.8H636.028V111H630.868ZM672.871 90.44C675.164 90.44 676.991 91.1867 678.351 92.68C679.737 94.1733 680.431 96.1733 680.431 98.68V111H675.271V99.04C675.271 97.84 674.977 96.9067 674.391 96.24C673.804 95.5733 672.977 95.24 671.911 95.24C670.737 95.24 669.817 95.6267 669.151 96.4C668.511 97.1733 668.191 98.2933 668.191 99.76V111H663.031V99.04C663.031 97.84 662.737 96.9067 662.151 96.24C661.564 95.5733 660.737 95.24 659.671 95.24C658.524 95.24 657.604 95.6267 656.911 96.4C656.244 97.1733 655.911 98.2933 655.911 99.76V111H650.751V91H655.911V93.12C657.111 91.3333 658.964 90.44 661.471 90.44C663.924 90.44 665.737 91.4 666.911 93.32C668.244 91.4 670.231 90.44 672.871 90.44ZM689.173 103.12C689.866 105.627 691.746 106.88 694.813 106.88C696.786 106.88 698.28 106.213 699.293 104.88L703.453 107.28C701.48 110.133 698.573 111.56 694.733 111.56C691.426 111.56 688.773 110.56 686.773 108.56C684.773 106.56 683.773 104.04 683.773 101C683.773 97.9867 684.76 95.48 686.733 93.48C688.706 91.4533 691.24 90.44 694.333 90.44C697.266 90.44 699.68 91.4533 701.573 93.48C703.493 95.5067 704.453 98.0133 704.453 101C704.453 101.667 704.386 102.373 704.253 103.12H689.173ZM689.093 99.12H699.293C699 97.76 698.386 96.7467 697.453 96.08C696.546 95.4133 695.506 95.08 694.333 95.08C692.946 95.08 691.8 95.44 690.893 96.16C689.986 96.8533 689.386 97.84 689.093 99.12ZM713.215 94.44C713.695 93.16 714.482 92.2 715.575 91.56C716.695 90.92 717.935 90.6 719.295 90.6V96.36C717.722 96.1733 716.309 96.4933 715.055 97.32C713.829 98.1467 713.215 99.52 713.215 101.44V111H708.055V91H713.215V94.44ZM731.091 111.56C728.078 111.56 725.558 110.547 723.531 108.52C721.531 106.493 720.531 103.987 720.531 101C720.531 98.0133 721.531 95.5067 723.531 93.48C725.558 91.4533 728.078 90.44 731.091 90.44C733.038 90.44 734.811 90.9067 736.411 91.84C738.011 92.7733 739.224 94.0267 740.051 95.6L735.611 98.2C735.211 97.3733 734.598 96.72 733.771 96.24C732.971 95.76 732.064 95.52 731.051 95.52C729.504 95.52 728.224 96.04 727.211 97.08C726.198 98.0933 725.691 99.4 725.691 101C725.691 102.573 726.198 103.88 727.211 104.92C728.224 105.933 729.504 106.44 731.051 106.44C732.091 106.44 733.011 106.213 733.811 105.76C734.638 105.28 735.251 104.627 735.651 103.8L740.131 106.36C739.251 107.933 738.011 109.2 736.411 110.16C734.811 111.093 733.038 111.56 731.091 111.56ZM757.748 91H762.908V111H757.748V108.64C756.201 110.587 754.028 111.56 751.228 111.56C748.561 111.56 746.268 110.547 744.348 108.52C742.454 106.467 741.507 103.96 741.507 101C741.507 98.04 742.454 95.5467 744.348 93.52C746.268 91.4667 748.561 90.44 751.228 90.44C754.028 90.44 756.201 91.4133 757.748 93.36V91ZM748.228 105.08C749.268 106.12 750.588 106.64 752.188 106.64C753.788 106.64 755.108 106.12 756.148 105.08C757.214 104.013 757.748 102.653 757.748 101C757.748 99.3467 757.214 98 756.148 96.96C755.108 95.8933 753.788 95.36 752.188 95.36C750.588 95.36 749.268 95.8933 748.228 96.96C747.188 98 746.668 99.3467 746.668 101C746.668 102.653 747.188 104.013 748.228 105.08ZM782.747 83H787.907V111H782.747V108.64C781.227 110.587 779.067 111.56 776.267 111.56C773.573 111.56 771.267 110.547 769.347 108.52C767.453 106.467 766.507 103.96 766.507 101C766.507 98.04 767.453 95.5467 769.347 93.52C771.267 91.4667 773.573 90.44 776.267 90.44C779.067 90.44 781.227 91.4133 782.747 93.36V83ZM773.227 105.08C774.293 106.12 775.627 106.64 777.227 106.64C778.827 106.64 780.147 106.12 781.187 105.08C782.227 104.013 782.747 102.653 782.747 101C782.747 99.3467 782.227 98 781.187 96.96C780.147 95.8933 778.827 95.36 777.227 95.36C775.627 95.36 774.293 95.8933 773.227 96.96C772.187 98 771.667 99.3467 771.667 101C771.667 102.653 772.187 104.013 773.227 105.08ZM809.666 108.52C807.612 110.547 805.106 111.56 802.146 111.56C799.186 111.56 796.679 110.547 794.626 108.52C792.599 106.467 791.586 103.96 791.586 101C791.586 98.04 792.599 95.5467 794.626 93.52C796.679 91.4667 799.186 90.44 802.146 90.44C805.106 90.44 807.612 91.4667 809.666 93.52C811.719 95.5467 812.746 98.04 812.746 101C812.746 103.96 811.719 106.467 809.666 108.52ZM798.266 104.96C799.306 106 800.599 106.52 802.146 106.52C803.692 106.52 804.986 106 806.026 104.96C807.066 103.92 807.586 102.6 807.586 101C807.586 99.4 807.066 98.08 806.026 97.04C804.986 96 803.692 95.48 802.146 95.48C800.599 95.48 799.306 96 798.266 97.04C797.252 98.08 796.746 99.4 796.746 101C796.746 102.6 797.252 103.92 798.266 104.96ZM821.574 105.48L818.574 116.6H814.374L815.974 105.48H821.574ZM834.627 111V106.88L844.187 97.04C846.32 94.8 847.387 92.9333 847.387 91.44C847.387 90.3467 847.04 89.4667 846.347 88.8C845.68 88.1333 844.814 87.8 843.747 87.8C841.64 87.8 840.08 88.8933 839.067 91.08L834.427 88.36C835.307 86.44 836.574 84.9733 838.227 83.96C839.88 82.9467 841.694 82.44 843.667 82.44C846.2 82.44 848.374 83.24 850.187 84.84C852 86.4133 852.907 88.5467 852.907 91.24C852.907 94.1467 851.374 97.1333 848.307 100.2L842.827 105.68H853.347V111H834.627ZM876.929 101.12V106.24H873.929V111H868.369V106.24H855.129V101.12L864.449 83H870.369L861.089 101.12H868.369V94.48H873.929V101.12H876.929ZM881.092 115H878.812L894.812 79H897.092L881.092 115ZM898.95 83H917.03V87.68L907.55 111H901.71L910.91 88.28H898.95V83ZM919.783 110.52C919.117 111.187 918.317 111.52 917.383 111.52C916.45 111.52 915.65 111.187 914.983 110.52C914.317 109.853 913.983 109.053 913.983 108.12C913.983 107.187 914.317 106.387 914.983 105.72C915.65 105.053 916.45 104.72 917.383 104.72C918.317 104.72 919.117 105.053 919.783 105.72C920.45 106.387 920.783 107.187 920.783 108.12C920.783 109.053 920.45 109.853 919.783 110.52Z" fill="#CAC8FD"/>
</g>
</g>
<g opacity="0.5">
<path d="M1118.3 188.538C1118.93 188.368 1119.3 187.717 1119.14 187.088L1119.12 187.031L1119.11 186.974L1119.09 186.917L1119.07 186.859L1119.06 186.802L1119.04 186.745L1119.03 186.688L1119.01 186.63L1119 186.573L1118.98 186.516L1118.97 186.459L1118.95 186.401L1118.94 186.344L1118.92 186.287L1118.91 186.229L1118.89 186.172L1118.88 186.115L1118.86 186.058L1118.84 186L1118.83 185.943L1118.81 185.886L1118.8 185.829L1118.78 185.771L1118.77 185.714L1118.75 185.657L1118.74 185.6L1118.72 185.542L1118.71 185.485L1118.69 185.428L1118.68 185.371L1118.66 185.313L1118.65 185.256L1118.63 185.199L1118.61 185.142L1118.6 185.084L1118.58 185.027L1118.57 184.97L1118.55 184.913L1118.54 184.855L1118.52 184.798L1118.51 184.741L1118.49 184.684L1118.48 184.626L1118.46 184.569L1118.45 184.512L1118.43 184.455L1118.41 184.397L1118.4 184.34L1118.38 184.283L1118.37 184.225L1118.35 184.168L1118.34 184.111L1118.32 184.054L1118.31 183.996L1118.29 183.939L1118.28 183.882L1118.26 183.825L1118.25 183.767L1118.23 183.71L1118.22 183.653L1118.2 183.596L1118.18 183.538L1118.17 183.481L1118.15 183.424L1118.14 183.367L1118.12 183.309L1118.11 183.252L1118.09 183.195L1118.08 183.138L1118.06 183.08L1118.05 183.023L1118.03 182.966L1118.02 182.909L1118 182.851L1117.99 182.794L1117.97 182.737L1117.95 182.68L1117.94 182.622L1117.92 182.565L1117.91 182.508L1117.89 182.451L1117.88 182.393L1117.86 182.336L1117.85 182.279L1117.83 182.222L1117.82 182.164L1117.8 182.107L1117.79 182.05L1117.77 181.993L1117.76 181.935L1117.74 181.878L1117.72 181.821L1117.71 181.764L1117.69 181.706L1117.68 181.649L1117.66 181.592L1117.65 181.535L1117.63 181.477L1117.62 181.42L1117.6 181.363L1117.59 181.306L1117.57 181.248L1117.56 181.191L1117.54 181.134L1117.53 181.077L1117.51 181.019L1117.49 180.962L1117.48 180.905L1117.46 180.848L1117.45 180.79L1117.43 180.733L1117.42 180.676L1117.4 180.619L1117.39 180.561L1117.37 180.504L1117.36 180.447L1117.34 180.39L1117.33 180.332L1117.31 180.275L1117.3 180.218L1117.28 180.161L1117.26 180.103L1117.25 180.046L1117.23 179.989L1117.22 179.932L1117.2 179.874L1117.19 179.817L1117.17 179.76L1117.16 179.703L1117.14 179.645L1117.13 179.588L1117.11 179.531L1117.1 179.474L1117.08 179.416L1117.07 179.359L1117.05 179.302L1117.03 179.245L1117.02 179.187L1117 179.13L1116.99 179.073L1116.97 179.016L1116.96 178.958L1116.94 178.901L1116.93 178.844L1116.91 178.787L1116.9 178.729L1116.88 178.672L1116.87 178.615L1116.85 178.558L1116.83 178.5L1116.82 178.443L1116.8 178.386L1116.79 178.329L1116.77 178.271L1116.76 178.214L1116.74 178.157L1116.73 178.1L1116.71 178.043L1116.7 177.985L1116.68 177.928L1116.67 177.871L1116.65 177.814L1116.64 177.756L1116.62 177.699L1116.6 177.642L1116.59 177.585L1116.57 177.527L1116.56 177.47L1116.54 177.413L1116.53 177.356L1116.51 177.298L1116.5 177.241L1116.48 177.184L1116.47 177.127L1116.45 177.069L1116.44 177.012L1116.42 176.955L1116.41 176.898L1116.39 176.84L1116.37 176.783L1116.36 176.726L1116.34 176.669L1116.33 176.611L1116.31 176.554L1116.3 176.497L1116.28 176.44L1116.27 176.382L1116.25 176.325L1116.24 176.268L1116.22 176.211L1116.21 176.153L1116.19 176.096L1116.18 176.039L1116.16 175.982L1116.14 175.924L1116.13 175.867L1116.11 175.81L1116.1 175.753L1116.08 175.695L1116.07 175.638L1116.05 175.581L1116.04 175.524L1116.02 175.467L1116.01 175.409L1115.99 175.352L1115.98 175.295L1115.96 175.238L1115.95 175.18L1115.93 175.123L1115.91 175.066L1115.9 175.009L1115.88 174.951L1115.87 174.894L1115.85 174.837L1115.84 174.78L1115.82 174.722L1115.81 174.665L1115.79 174.608L1115.78 174.551L1115.76 174.493L1115.75 174.436L1115.73 174.379L1115.72 174.322L1115.7 174.264L1115.68 174.207L1115.67 174.15L1115.65 174.093L1115.64 174.035L1115.62 173.978L1115.61 173.921L1115.59 173.864L1115.58 173.806L1115.56 173.749L1115.55 173.692L1115.53 173.635L1115.52 173.577L1115.5 173.52L1115.49 173.463L1115.47 173.406L1115.45 173.349L1115.44 173.291L1115.42 173.234L1115.41 173.177L1115.39 173.12L1115.38 173.062L1115.36 173.005L1115.35 172.948L1115.33 172.891L1115.32 172.833L1115.3 172.776L1115.29 172.719L1115.27 172.662L1115.26 172.604L1115.24 172.547L1115.22 172.49L1115.21 172.433L1115.19 172.375L1115.18 172.318L1115.16 172.261L1115.15 172.204L1115.13 172.146L1115.12 172.089L1115.1 172.032L1115.09 171.975L1115.07 171.917L1115.06 171.86L1115.04 171.803L1115.03 171.746L1115.01 171.688L1114.99 171.631L1114.98 171.574L1114.96 171.517L1114.95 171.459L1114.93 171.402L1114.92 171.345L1114.9 171.288L1114.89 171.231L1114.87 171.173L1114.86 171.116L1114.84 171.059L1114.83 171.002L1114.81 170.944L1114.79 170.887L1114.78 170.83L1114.76 170.773L1114.75 170.715L1114.73 170.658L1114.72 170.601L1114.7 170.544L1114.69 170.486L1114.67 170.429L1114.66 170.372L1114.64 170.315L1114.63 170.257L1114.61 170.2L1114.6 170.143L1114.58 170.086L1114.56 170.028L1114.55 169.971L1114.53 169.914L1114.52 169.857L1114.5 169.799L1114.49 169.742L1114.47 169.685L1114.46 169.628L1114.44 169.57L1114.43 169.513L1114.41 169.456L1114.4 169.399L1114.38 169.341L1114.37 169.284L1114.35 169.227L1114.33 169.17L1114.32 169.113L1114.3 169.055L1114.29 168.998L1114.27 168.941L1114.26 168.884L1114.24 168.826L1114.23 168.769L1114.21 168.712L1114.2 168.655L1114.18 168.597L1114.17 168.54L1114.15 168.483L1114.14 168.426L1114.12 168.368L1114.1 168.311L1114.09 168.254L1114.07 168.197L1114.06 168.139L1114.04 168.082L1114.03 168.025L1114.01 167.968L1114 167.91L1113.98 167.853L1113.97 167.796L1113.95 167.739L1113.94 167.681L1113.92 167.624L1113.91 167.567L1113.89 167.51L1113.87 167.452L1113.86 167.395L1113.84 167.338L1113.83 167.281L1113.81 167.223L1113.8 167.166L1113.78 167.109L1113.77 167.052L1113.75 166.994L1113.74 166.937L1113.72 166.88L1113.71 166.823L1113.69 166.765L1113.68 166.708L1113.66 166.651L1113.64 166.594L1113.63 166.537L1113.61 166.479L1113.6 166.422L1113.58 166.365L1113.57 166.308L1113.55 166.25L1113.54 166.193L1113.52 166.136L1113.51 166.079L1113.49 166.021L1113.48 165.964L1113.46 165.907L1113.45 165.85L1113.43 165.792L1113.41 165.735L1113.4 165.678L1113.38 165.621L1113.37 165.563L1113.35 165.506L1113.34 165.449L1113.32 165.392L1113.31 165.334L1113.29 165.277L1113.28 165.22L1113.26 165.163L1113.25 165.105L1113.23 165.048L1113.22 164.991L1113.2 164.934L1113.18 164.876L1113.17 164.819L1113.15 164.762L1113.14 164.705L1113.12 164.647L1113.11 164.59L1113.09 164.533L1113.08 164.476L1113.06 164.418L1113.05 164.361L1113.03 164.304L1113.02 164.247L1113 164.189L1112.98 164.132L1112.97 164.075L1112.95 164.018L1112.94 163.96L1112.92 163.903L1112.91 163.846L1112.89 163.789L1112.88 163.731L1112.86 163.674L1112.85 163.617L1112.83 163.56L1112.82 163.502L1112.8 163.445L1112.79 163.388L1112.77 163.331L1112.75 163.273L1112.74 163.216L1112.72 163.159L1112.71 163.102L1112.69 163.044L1112.68 162.987L1112.66 162.93L1112.65 162.873L1112.63 162.815L1112.62 162.758L1112.6 162.701L1112.59 162.644L1112.57 162.586L1112.56 162.529L1112.54 162.472L1112.52 162.415L1112.51 162.357L1112.49 162.3L1112.48 162.243L1112.46 162.186L1112.45 162.128L1112.43 162.071L1112.42 162.014L1112.4 161.957L1112.39 161.899L1112.37 161.842L1112.36 161.785L1112.34 161.728L1112.33 161.67L1112.31 161.613L1112.29 161.556L1112.28 161.499L1112.26 161.441L1112.25 161.384L1112.23 161.327L1112.22 161.27L1112.2 161.212L1112.19 161.155L1112.17 161.098L1112.16 161.041L1112.14 160.983L1112.13 160.926L1112.11 160.869L1112.1 160.812L1112.08 160.754L1112.06 160.697L1112.05 160.64L1112.03 160.583L1112.02 160.525L1112 160.468L1111.99 160.411L1111.97 160.353L1111.96 160.296L1111.94 160.239L1111.93 160.182L1111.91 160.124L1111.9 160.067L1111.88 160.01L1111.87 159.953L1111.85 159.895L1111.83 159.838L1111.82 159.781L1111.8 159.724L1111.79 159.666L1111.77 159.609L1111.76 159.552L1111.74 159.495L1111.73 159.437L1111.71 159.38L1111.7 159.323L1111.68 159.266L1111.67 159.208L1111.65 159.151L1111.63 159.094L1111.62 159.037L1111.6 158.979L1111.59 158.922L1111.57 158.865L1111.56 158.808L1111.54 158.75L1111.53 158.693L1111.51 158.636L1111.5 158.579L1111.48 158.521L1111.47 158.464L1111.45 158.407L1111.44 158.349L1111.42 158.292L1111.4 158.235L1111.39 158.178L1111.37 158.12L1111.36 158.063L1111.34 158.006L1111.33 157.949L1111.31 157.891L1111.3 157.834L1111.28 157.777C1111.11 157.147 1110.46 156.771 1109.83 156.94L1109.83 156.941L1046.06 180.514L1045.93 180.031C1045.93 180.031 1045.93 180.031 1045.93 180.031C1045.3 180.201 1044.93 180.855 1045.1 181.487L1052.95 210.792C1053.12 211.422 1053.77 211.798 1054.4 211.629L1054.4 211.629C1065.31 208.634 1075.86 204.348 1086.37 200.075L1086.41 200.062C1096.95 195.781 1107.45 191.514 1118.3 188.538ZM1118.3 188.538C1118.3 188.538 1118.3 188.538 1118.3 188.538L1118.17 188.056L1118.3 188.538C1118.3 188.538 1118.3 188.538 1118.3 188.538Z" stroke="white" stroke-miterlimit="10"/>
<path d="M1079.24 173.978L1079.24 173.978C1073.76 176.222 1070.53 182.577 1072.05 188.267C1073.59 194.011 1079.36 196.884 1084.91 194.624L1084.91 194.624C1090.39 192.387 1093.62 186.025 1092.09 180.336C1090.56 174.591 1084.78 171.719 1079.24 173.978Z" stroke="white" stroke-miterlimit="10"/>
<path d="M1065.85 190.926C1066.44 193.118 1065.19 195.526 1063.04 196.283C1060.86 197.05 1058.58 195.821 1057.99 193.599M1065.85 190.926C1065.26 188.691 1062.99 187.536 1060.82 188.3C1058.68 189.054 1057.4 191.398 1057.99 193.599M1065.85 190.926C1065.85 190.926 1065.85 190.926 1065.85 190.927L1065.37 191.054L1065.85 190.925C1065.85 190.925 1065.85 190.926 1065.85 190.926ZM1057.99 193.599C1057.99 193.598 1057.99 193.598 1057.99 193.598L1058.47 193.47L1057.99 193.599C1057.99 193.599 1057.99 193.599 1057.99 193.599Z" stroke="white" stroke-miterlimit="10"/>
<path d="M1105.75 175.443C1106.27 177.386 1105.15 179.472 1103.24 180.148C1101.34 180.818 1099.38 179.816 1098.86 177.872C1098.34 175.929 1099.45 173.778 1101.36 173.115C1103.26 172.445 1105.23 173.507 1105.75 175.45L1105.75 175.443Z" stroke="white" stroke-miterlimit="10"/>
<path d="M1082.19 178.226L1082.04 177.683C1081.9 177.152 1081.34 176.872 1080.82 177.086L1081.02 177.548L1080.83 177.085C1080.48 177.227 1080.13 177.37 1079.78 177.511L1079.78 177.511L1079.78 177.513C1079.33 177.701 1079.05 178.22 1079.18 178.713L1079.4 179.529C1078.25 180.542 1077.72 182.006 1078.1 183.458C1078.37 184.466 1078.98 185.064 1079.74 185.391C1080.46 185.703 1081.29 185.759 1082.02 185.761C1082.57 185.768 1082.84 185.842 1082.98 185.911C1083.07 185.959 1083.1 186.006 1083.13 186.11C1083.17 186.293 1083.08 186.639 1082.51 186.873C1082 187.081 1081.41 187.129 1080.95 187.021C1080.92 187.012 1080.87 186.997 1080.8 186.987C1080.18 186.856 1079.68 187.375 1079.64 187.915L1079.64 187.915L1079.64 187.92C1079.61 188.356 1079.58 188.785 1079.55 189.222L1079.55 189.222L1079.55 189.231C1079.52 189.629 1079.74 190.052 1080.18 190.182C1080.2 190.188 1080.24 190.202 1080.29 190.212C1080.84 190.357 1081.5 190.351 1082.16 190.233L1082.16 190.235L1082.16 190.237L1082.16 190.239L1082.16 190.241L1082.16 190.243L1082.16 190.245L1082.16 190.248L1082.16 190.25L1082.16 190.252L1082.16 190.254L1082.16 190.256L1082.16 190.258L1082.16 190.26L1082.16 190.262L1082.16 190.264L1082.16 190.266L1082.16 190.268L1082.17 190.27L1082.17 190.272L1082.17 190.274L1082.17 190.276L1082.17 190.279L1082.17 190.281L1082.17 190.283L1082.17 190.285L1082.17 190.287L1082.17 190.289L1082.17 190.291L1082.17 190.293L1082.17 190.295L1082.17 190.297L1082.17 190.299L1082.17 190.301L1082.17 190.303L1082.17 190.305L1082.18 190.308L1082.18 190.31L1082.18 190.312L1082.18 190.314L1082.18 190.316L1082.18 190.318L1082.18 190.32L1082.18 190.322L1082.18 190.324L1082.18 190.326L1082.18 190.328L1082.18 190.33L1082.18 190.332L1082.18 190.334L1082.18 190.336L1082.18 190.339L1082.18 190.341L1082.18 190.343L1082.19 190.345L1082.19 190.347L1082.19 190.349L1082.19 190.351L1082.19 190.353L1082.19 190.355L1082.19 190.357L1082.19 190.359L1082.19 190.361L1082.19 190.363L1082.19 190.365L1082.19 190.367L1082.19 190.37L1082.19 190.372L1082.19 190.374L1082.19 190.376L1082.19 190.378L1082.19 190.38L1082.2 190.382L1082.2 190.384L1082.2 190.386L1082.2 190.388L1082.2 190.39L1082.2 190.392L1082.2 190.394L1082.2 190.396L1082.2 190.399L1082.2 190.401L1082.2 190.403L1082.2 190.405L1082.2 190.407L1082.2 190.409L1082.2 190.411L1082.2 190.413L1082.2 190.415L1082.2 190.417L1082.21 190.419L1082.21 190.421L1082.21 190.423L1082.21 190.425L1082.21 190.427L1082.21 190.43L1082.21 190.432L1082.21 190.434L1082.21 190.436L1082.21 190.438L1082.21 190.44L1082.21 190.442L1082.21 190.444L1082.21 190.446L1082.21 190.448L1082.21 190.45L1082.21 190.452L1082.21 190.454L1082.22 190.456L1082.22 190.459L1082.22 190.461L1082.22 190.463L1082.22 190.465L1082.22 190.467L1082.22 190.469L1082.22 190.471L1082.22 190.473L1082.22 190.475L1082.22 190.477L1082.22 190.479L1082.22 190.481L1082.22 190.483L1082.22 190.485L1082.22 190.487L1082.22 190.49L1082.22 190.492L1082.23 190.494L1082.23 190.496L1082.23 190.498L1082.23 190.5L1082.23 190.502L1082.23 190.504L1082.23 190.506L1082.23 190.508L1082.23 190.51L1082.23 190.512L1082.23 190.514L1082.23 190.516L1082.23 190.519L1082.23 190.521L1082.23 190.523L1082.23 190.525L1082.23 190.527L1082.23 190.529L1082.24 190.531L1082.24 190.533L1082.24 190.535L1082.24 190.537L1082.24 190.539L1082.24 190.541L1082.24 190.543L1082.24 190.545L1082.24 190.548L1082.24 190.55L1082.24 190.552L1082.24 190.554L1082.24 190.556L1082.24 190.558L1082.24 190.56L1082.24 190.562L1082.24 190.564L1082.24 190.566L1082.25 190.568L1082.25 190.57L1082.25 190.572L1082.25 190.575L1082.25 190.577L1082.25 190.579L1082.25 190.581L1082.25 190.583L1082.25 190.585L1082.25 190.587L1082.25 190.589L1082.25 190.591L1082.25 190.593L1082.25 190.595L1082.25 190.597L1082.25 190.599L1082.25 190.601L1082.25 190.604L1082.26 190.606L1082.26 190.608L1082.26 190.61L1082.26 190.612L1082.26 190.614L1082.26 190.616L1082.26 190.618L1082.26 190.62L1082.26 190.622L1082.26 190.624L1082.26 190.626L1082.26 190.628L1082.26 190.631L1082.26 190.633L1082.26 190.635L1082.26 190.637L1082.26 190.639L1082.26 190.641L1082.27 190.643L1082.27 190.645L1082.27 190.647L1082.27 190.649L1082.27 190.651L1082.27 190.653L1082.27 190.655L1082.27 190.658L1082.27 190.66L1082.27 190.662L1082.27 190.664L1082.27 190.666L1082.27 190.668L1082.27 190.67L1082.27 190.672L1082.27 190.674L1082.27 190.676L1082.27 190.678L1082.28 190.68L1082.28 190.682L1082.28 190.685L1082.28 190.687L1082.28 190.689L1082.28 190.691L1082.28 190.693L1082.28 190.695L1082.28 190.697L1082.28 190.699L1082.28 190.701L1082.28 190.703L1082.28 190.705L1082.28 190.707L1082.28 190.709L1082.28 190.712L1082.28 190.714L1082.28 190.716L1082.29 190.718L1082.29 190.72L1082.29 190.722L1082.29 190.724L1082.29 190.726L1082.29 190.728L1082.29 190.73L1082.29 190.732L1082.29 190.734L1082.29 190.736L1082.29 190.739L1082.29 190.741L1082.29 190.743L1082.29 190.745L1082.29 190.747L1082.29 190.749L1082.29 190.751L1082.29 190.753L1082.3 190.755L1082.3 190.757L1082.3 190.759L1082.3 190.761L1082.3 190.764L1082.3 190.766L1082.3 190.768L1082.3 190.77L1082.3 190.772L1082.3 190.774L1082.3 190.776L1082.3 190.778L1082.3 190.78L1082.3 190.782L1082.3 190.784L1082.3 190.786L1082.3 190.789L1082.3 190.791L1082.31 190.793L1082.31 190.795L1082.31 190.797L1082.31 190.799L1082.31 190.801L1082.31 190.803L1082.31 190.805L1082.31 190.807L1082.31 190.809L1082.31 190.811L1082.31 190.814L1082.31 190.816L1082.31 190.818L1082.31 190.82L1082.31 190.822L1082.31 190.824L1082.31 190.826L1082.31 190.828L1082.32 190.83L1082.32 190.832C1082.46 191.366 1083.02 191.639 1083.53 191.43C1083.71 191.358 1083.89 191.286 1084.06 191.215L1084.06 191.215C1084.24 191.143 1084.42 191.072 1084.59 191L1084.59 191L1084.6 190.997C1085.05 190.809 1085.33 190.29 1085.2 189.796L1085.2 189.794L1085.2 189.792L1085.2 189.79L1085.2 189.787L1085.19 189.785L1085.19 189.783L1085.19 189.78L1085.19 189.778L1085.19 189.776L1085.19 189.774L1085.19 189.771L1085.19 189.769L1085.19 189.767L1085.19 189.765L1085.19 189.762L1085.19 189.76L1085.19 189.758L1085.19 189.755L1085.19 189.753L1085.19 189.751L1085.18 189.749L1085.18 189.746L1085.18 189.744L1085.18 189.742L1085.18 189.739L1085.18 189.737L1085.18 189.735L1085.18 189.733L1085.18 189.73L1085.18 189.728L1085.18 189.726L1085.18 189.724L1085.18 189.721L1085.18 189.719L1085.18 189.717L1085.18 189.714L1085.17 189.712L1085.17 189.71L1085.17 189.708L1085.17 189.705L1085.17 189.703L1085.17 189.701L1085.17 189.698L1085.17 189.696L1085.17 189.694L1085.17 189.692L1085.17 189.689L1085.17 189.687L1085.17 189.685L1085.17 189.682L1085.17 189.68L1085.17 189.678L1085.17 189.676L1085.16 189.673L1085.16 189.671L1085.16 189.669L1085.16 189.666L1085.16 189.664L1085.16 189.662L1085.16 189.66L1085.16 189.657L1085.16 189.655L1085.16 189.653L1085.16 189.65L1085.16 189.648L1085.16 189.646L1085.16 189.644L1085.16 189.641L1085.16 189.639L1085.15 189.637L1085.15 189.634L1085.15 189.632L1085.15 189.63L1085.15 189.628L1085.15 189.625L1085.15 189.623L1085.15 189.621L1085.15 189.618L1085.15 189.616L1085.15 189.614L1085.15 189.612L1085.15 189.609L1085.15 189.607L1085.15 189.605L1085.15 189.602L1085.14 189.6L1085.14 189.598L1085.14 189.596L1085.14 189.593L1085.14 189.591L1085.14 189.589L1085.14 189.586L1085.14 189.584L1085.14 189.582L1085.14 189.58L1085.14 189.577L1085.14 189.575L1085.14 189.573L1085.14 189.57L1085.14 189.568L1085.14 189.566L1085.14 189.564L1085.13 189.561L1085.13 189.559L1085.13 189.557L1085.13 189.554L1085.13 189.552L1085.13 189.55L1085.13 189.548L1085.13 189.545L1085.13 189.543L1085.13 189.541L1085.13 189.538L1085.13 189.536L1085.13 189.534L1085.13 189.531L1085.13 189.529L1085.13 189.527L1085.12 189.525L1085.12 189.522L1085.12 189.52L1085.12 189.518L1085.12 189.515L1085.12 189.513L1085.12 189.511L1085.12 189.509L1085.12 189.506L1085.12 189.504L1085.12 189.502L1085.12 189.499L1085.12 189.497L1085.12 189.495L1085.12 189.493L1085.12 189.49L1085.11 189.488L1085.11 189.486L1085.11 189.483L1085.11 189.481L1085.11 189.479L1085.11 189.476L1085.11 189.474L1085.11 189.472L1085.11 189.47L1085.11 189.467L1085.11 189.465L1085.11 189.463L1085.11 189.46L1085.11 189.458L1085.11 189.456L1085.11 189.454L1085.11 189.451L1085.1 189.449L1085.1 189.447L1085.1 189.444L1085.1 189.442L1085.1 189.44L1085.1 189.438L1085.1 189.435L1085.1 189.433L1085.1 189.431L1085.1 189.428L1085.1 189.426L1085.1 189.424L1085.1 189.421L1085.1 189.419L1085.1 189.417L1085.1 189.415L1085.09 189.412L1085.09 189.41L1085.09 189.408L1085.09 189.405L1085.09 189.403L1085.09 189.401L1085.09 189.399L1085.09 189.396L1085.09 189.394L1085.09 189.392L1085.09 189.389L1085.09 189.387L1085.09 189.385L1085.09 189.382L1085.09 189.38L1085.09 189.378L1085.08 189.376L1085.08 189.373L1085.08 189.371L1085.08 189.369L1085.08 189.366L1085.08 189.364L1085.08 189.362L1085.08 189.36L1085.08 189.357L1085.08 189.355L1085.08 189.353L1085.08 189.35L1085.08 189.348L1085.08 189.346L1085.08 189.343L1085.08 189.341L1085.07 189.339L1085.07 189.337L1085.07 189.334L1085.07 189.332L1085.07 189.33L1085.07 189.327L1085.07 189.325L1085.07 189.323L1085.07 189.321L1085.07 189.318L1085.07 189.316L1085.07 189.314L1085.07 189.311L1085.07 189.309L1085.07 189.307L1085.07 189.304L1085.07 189.302L1085.06 189.3L1085.06 189.298L1085.06 189.295L1085.06 189.293L1085.06 189.291L1085.06 189.288L1085.06 189.286L1085.06 189.284L1085.06 189.281L1085.06 189.279L1085.06 189.277L1085.06 189.275L1085.06 189.272L1085.06 189.27L1085.06 189.268L1085.06 189.265L1085.05 189.263L1085.05 189.261L1085.05 189.259L1085.05 189.256L1085.05 189.254L1085.05 189.252L1085.05 189.249L1085.05 189.247L1085.05 189.245L1085.05 189.242L1085.05 189.24L1085.05 189.238L1085.05 189.236L1085.05 189.233L1085.05 189.231L1085.05 189.229L1085.04 189.226L1085.04 189.224L1085.04 189.222L1085.04 189.22L1085.04 189.217L1085.04 189.215L1085.04 189.213L1085.04 189.21L1085.04 189.208L1085.04 189.206L1085.04 189.203L1085.04 189.201L1085.04 189.199L1085.04 189.197L1085.04 189.194L1085.04 189.192L1085.03 189.19L1085.03 189.187L1085.03 189.185L1085.03 189.183L1085.03 189.18L1085.03 189.178L1085.03 189.176L1085.03 189.174L1085.03 189.171L1085.03 189.169L1085.03 189.167L1085.03 189.164L1085.03 189.162L1085.03 189.16L1085.03 189.158L1085.03 189.155L1085.03 189.153L1085.02 189.151L1085.02 189.148L1085.02 189.146L1085.02 189.144L1085.02 189.141L1085.02 189.139L1085.02 189.137L1085.02 189.135L1085.02 189.132L1085.02 189.13L1085.02 189.128L1085.02 189.125L1085.02 189.123L1085.02 189.121L1085.02 189.119L1085.02 189.116L1085.01 189.114L1085.01 189.112L1085.01 189.109L1085.01 189.107L1085.01 189.105L1085.01 189.102L1085.01 189.1L1085.01 189.098L1085.01 189.096L1085.01 189.093L1085.01 189.091L1085.01 189.089L1085.01 189.086L1085.01 189.084L1085.01 189.082L1085.01 189.079L1085 189.077L1085 189.075L1085 189.073L1085 189.07L1085 189.068L1085 189.066L1085 189.063L1085 189.061L1085 189.059L1085 189.057L1085 189.054L1085 189.052L1085 189.05L1085 189.047L1085 189.045L1085 189.043L1084.99 189.04L1084.99 189.038L1084.99 189.036L1084.99 189.034L1084.99 189.031L1084.99 189.029L1084.99 189.027L1084.99 189.024L1084.99 189.022L1084.99 189.02L1084.99 189.018L1084.99 189.015L1084.99 189.013L1084.99 189.011L1084.99 189.008L1084.99 189.006L1084.99 189.004L1084.98 189.001L1084.98 188.999L1084.98 188.997L1084.98 188.995L1084.98 188.992L1084.98 188.99L1084.98 188.988L1084.98 188.985L1084.98 188.983L1084.98 188.981L1084.98 188.979L1084.98 188.976L1084.98 188.974L1084.98 188.972L1084.98 188.969L1084.98 188.967L1084.97 188.965L1084.97 188.963L1084.97 188.96L1084.97 188.958L1084.97 188.956L1084.97 188.953L1084.97 188.951L1084.97 188.949L1084.97 188.946L1084.97 188.944L1084.97 188.942L1084.97 188.94L1084.97 188.937L1084.97 188.935C1086.16 187.885 1086.73 186.328 1086.32 184.837C1086.03 183.772 1085.43 183.127 1084.69 182.764C1083.98 182.413 1083.18 182.342 1082.52 182.333L1082.45 182.332L1082.44 182.333C1081.81 182.318 1081.5 182.268 1081.34 182.209C1081.29 182.19 1081.28 182.176 1081.27 182.172C1081.27 182.167 1081.26 182.154 1081.25 182.121C1081.25 182.099 1081.24 182.037 1081.27 181.965C1081.29 181.904 1081.38 181.751 1081.74 181.602C1082.4 181.334 1082.86 181.407 1083.08 181.441C1083.09 181.441 1083.09 181.442 1083.09 181.442L1083.1 181.444L1083.11 181.445L1083.13 181.447L1083.14 181.449C1083.14 181.449 1083.14 181.449 1083.14 181.449L1083.17 181.457L1083.2 181.461C1083.79 181.555 1084.28 181.071 1084.32 180.539L1084.32 180.537L1084.38 179.887L1084.43 179.24C1084.47 178.797 1084.2 178.329 1083.7 178.242C1083.69 178.24 1083.68 178.238 1083.67 178.237L1083.66 178.233L1083.62 178.226C1083.15 178.143 1082.68 178.145 1082.19 178.226ZM1083.66 178.234C1083.66 178.234 1083.66 178.234 1083.66 178.234L1083.66 178.234ZM1081.27 182.173C1081.27 182.173 1081.27 182.173 1081.27 182.172L1081.27 182.173Z" stroke="white" stroke-miterlimit="10"/>
<path d="M1244.71 163.339C1245.3 163.181 1245.65 162.574 1245.49 161.987L1245.48 161.936L1245.46 161.885L1245.45 161.835L1245.44 161.784L1245.42 161.734L1245.41 161.683L1245.4 161.632L1245.38 161.582L1245.37 161.531L1245.35 161.48L1245.34 161.43L1245.33 161.379L1245.31 161.329L1245.3 161.278L1245.29 161.227L1245.27 161.177L1245.26 161.126L1245.25 161.076L1245.23 161.025L1245.22 160.974L1245.21 160.924L1245.19 160.873L1245.18 160.822L1245.16 160.772L1245.15 160.721L1245.14 160.671L1245.12 160.62L1245.11 160.569L1245.1 160.519L1245.08 160.468L1245.07 160.417L1245.06 160.367L1245.04 160.316L1245.03 160.266L1245.02 160.215L1245 160.164L1244.99 160.114L1244.97 160.063L1244.96 160.013L1244.95 159.962L1244.93 159.911L1244.92 159.861L1244.91 159.81L1244.89 159.759L1244.88 159.709L1244.87 159.658L1244.85 159.608L1244.84 159.557L1244.83 159.506L1244.81 159.456L1244.8 159.405L1244.78 159.354L1244.77 159.304L1244.76 159.253L1244.74 159.203L1244.73 159.152L1244.72 159.101L1244.7 159.051L1244.69 159L1244.68 158.95L1244.66 158.899L1244.65 158.848L1244.64 158.798L1244.62 158.747L1244.61 158.696L1244.59 158.646L1244.58 158.595L1244.57 158.545L1244.55 158.494L1244.54 158.443L1244.53 158.393L1244.51 158.342L1244.5 158.292L1244.49 158.241L1244.47 158.19L1244.46 158.14L1244.45 158.089L1244.43 158.038L1244.42 157.988L1244.41 157.937L1244.39 157.887L1244.38 157.836L1244.36 157.785L1244.35 157.735L1244.34 157.684L1244.32 157.634L1244.31 157.583L1244.3 157.532L1244.28 157.482L1244.27 157.431L1244.26 157.381L1244.24 157.33L1244.23 157.279L1244.22 157.229L1244.2 157.178L1244.19 157.127L1244.17 157.077L1244.16 157.026L1244.15 156.976L1244.13 156.925L1244.12 156.874L1244.11 156.824L1244.09 156.773L1244.08 156.723L1244.07 156.672L1244.05 156.621L1244.04 156.571L1244.03 156.52L1244.01 156.469L1244 156.419L1243.98 156.368L1243.97 156.318L1243.96 156.267L1243.94 156.216L1243.93 156.166L1243.92 156.115L1243.9 156.065L1243.89 156.014L1243.88 155.963L1243.86 155.913L1243.85 155.862L1243.84 155.812L1243.82 155.761L1243.81 155.71L1243.79 155.66L1243.78 155.609L1243.77 155.558L1243.75 155.508L1243.74 155.457L1243.73 155.407L1243.71 155.356L1243.7 155.305L1243.69 155.255L1243.67 155.204L1243.66 155.154L1243.65 155.103L1243.63 155.052L1243.62 155.002L1243.6 154.951L1243.59 154.901L1243.58 154.85L1243.56 154.799L1243.55 154.749L1243.54 154.698L1243.52 154.648L1243.51 154.597L1243.5 154.546L1243.48 154.496L1243.47 154.445L1243.46 154.394L1243.44 154.344L1243.43 154.293L1243.42 154.243L1243.4 154.192L1243.39 154.141L1243.37 154.091L1243.36 154.04L1243.35 153.99L1243.33 153.939L1243.32 153.888L1243.31 153.838L1243.29 153.787L1243.28 153.737L1243.27 153.686L1243.25 153.635L1243.24 153.585L1243.23 153.534L1243.21 153.484L1243.2 153.433L1243.18 153.382L1243.17 153.332L1243.16 153.281L1243.14 153.23L1243.13 153.18L1243.12 153.129L1243.1 153.079L1243.09 153.028L1243.08 152.977L1243.06 152.927L1243.05 152.876L1243.04 152.826L1243.02 152.775L1243.01 152.724L1242.99 152.674L1242.98 152.623L1242.97 152.573L1242.95 152.522L1242.94 152.471L1242.93 152.421L1242.91 152.37L1242.9 152.32L1242.89 152.269L1242.87 152.218L1242.86 152.168L1242.85 152.117L1242.83 152.066L1242.82 152.016L1242.8 151.965L1242.79 151.915L1242.78 151.864L1242.76 151.813L1242.75 151.763L1242.74 151.712L1242.72 151.662L1242.71 151.611L1242.7 151.56L1242.68 151.51L1242.67 151.459L1242.66 151.409L1242.64 151.358L1242.63 151.307L1242.62 151.257L1242.6 151.206L1242.59 151.156L1242.57 151.105L1242.56 151.054L1242.55 151.004L1242.53 150.953L1242.52 150.903L1242.51 150.852L1242.49 150.801L1242.48 150.751L1242.47 150.7L1242.45 150.649L1242.44 150.599L1242.43 150.548L1242.41 150.498L1242.4 150.447L1242.38 150.396L1242.37 150.346L1242.36 150.295L1242.34 150.245L1242.33 150.194L1242.32 150.143L1242.3 150.093L1242.29 150.042L1242.28 149.992L1242.26 149.941L1242.25 149.89L1242.24 149.84L1242.22 149.789L1242.21 149.739L1242.19 149.688L1242.18 149.637L1242.17 149.587L1242.15 149.536L1242.14 149.486L1242.13 149.435L1242.11 149.384L1242.1 149.334L1242.09 149.283L1242.07 149.233L1242.06 149.182L1242.05 149.131L1242.03 149.081L1242.02 149.03L1242 148.979L1241.99 148.929L1241.98 148.878L1241.96 148.828L1241.95 148.777L1241.94 148.726L1241.92 148.676L1241.91 148.625L1241.9 148.575L1241.88 148.524L1241.87 148.473L1241.86 148.423L1241.84 148.372L1241.83 148.322L1241.82 148.271L1241.8 148.22L1241.79 148.17L1241.77 148.119L1241.76 148.069L1241.75 148.018L1241.73 147.967L1241.72 147.917L1241.71 147.866L1241.69 147.816L1241.68 147.765L1241.67 147.714L1241.65 147.664L1241.64 147.613L1241.63 147.563L1241.61 147.512L1241.6 147.461L1241.58 147.411L1241.57 147.36L1241.56 147.309L1241.54 147.259L1241.53 147.208L1241.52 147.158L1241.5 147.107L1241.49 147.056L1241.48 147.006L1241.46 146.955L1241.45 146.905L1241.44 146.854L1241.42 146.803L1241.41 146.753L1241.39 146.702L1241.38 146.652L1241.37 146.601L1241.35 146.55L1241.34 146.5L1241.33 146.449L1241.31 146.399L1241.3 146.348L1241.29 146.297L1241.27 146.247L1241.26 146.196L1241.25 146.146L1241.23 146.095L1241.22 146.044L1241.2 145.994L1241.19 145.943L1241.18 145.892L1241.16 145.842L1241.15 145.791L1241.14 145.741L1241.12 145.69L1241.11 145.639L1241.1 145.589L1241.08 145.538L1241.07 145.488L1241.06 145.437L1241.04 145.386L1241.03 145.336L1241.01 145.285L1241 145.235L1240.99 145.184L1240.97 145.133L1240.96 145.083L1240.95 145.032L1240.93 144.982L1240.92 144.931L1240.91 144.88L1240.89 144.83L1240.88 144.779L1240.87 144.729L1240.85 144.678L1240.84 144.627L1240.83 144.577L1240.81 144.526L1240.8 144.475L1240.78 144.425L1240.77 144.374L1240.76 144.324L1240.74 144.273L1240.73 144.222L1240.72 144.172L1240.7 144.121L1240.69 144.071L1240.68 144.02L1240.66 143.969L1240.65 143.919L1240.64 143.868L1240.62 143.818L1240.61 143.767L1240.59 143.716L1240.58 143.666L1240.57 143.615L1240.55 143.565L1240.54 143.514L1240.53 143.463L1240.51 143.413L1240.5 143.362L1240.49 143.311L1240.47 143.261L1240.46 143.21L1240.45 143.16L1240.43 143.109L1240.42 143.058L1240.4 143.008L1240.39 142.957L1240.38 142.907L1240.36 142.856L1240.35 142.805L1240.34 142.755L1240.32 142.704L1240.31 142.654L1240.3 142.603L1240.28 142.552L1240.27 142.502L1240.26 142.451L1240.24 142.4L1240.23 142.35L1240.21 142.299L1240.2 142.249L1240.19 142.198L1240.17 142.147L1240.16 142.097L1240.15 142.046L1240.13 141.996L1240.12 141.945L1240.11 141.894L1240.09 141.844L1240.08 141.793L1240.07 141.743L1240.05 141.692L1240.04 141.641L1240.03 141.591L1240.01 141.54L1240 141.489L1239.98 141.439L1239.97 141.388L1239.96 141.338L1239.94 141.287L1239.93 141.236L1239.92 141.186L1239.9 141.135L1239.89 141.085L1239.88 141.034L1239.86 140.983L1239.85 140.933L1239.84 140.882L1239.82 140.832L1239.81 140.781L1239.79 140.73L1239.78 140.68L1239.77 140.629L1239.75 140.578L1239.74 140.528L1239.73 140.477L1239.71 140.427L1239.7 140.376L1239.69 140.325L1239.67 140.275L1239.66 140.224L1239.65 140.174L1239.63 140.123L1239.62 140.072L1239.6 140.022L1239.59 139.971L1239.58 139.92L1239.56 139.87L1239.55 139.819L1239.54 139.769L1239.52 139.718L1239.51 139.667L1239.5 139.617L1239.48 139.566L1239.47 139.516L1239.46 139.465L1239.44 139.414L1239.43 139.364L1239.41 139.313L1239.4 139.262L1239.39 139.212L1239.37 139.161L1239.36 139.111L1239.35 139.06L1239.33 139.009L1239.32 138.959L1239.31 138.908L1239.29 138.858L1239.28 138.807L1239.27 138.756L1239.25 138.706L1239.24 138.655L1239.22 138.604L1239.21 138.554L1239.2 138.503L1239.18 138.453L1239.17 138.402L1239.16 138.351L1239.14 138.301L1239.13 138.25L1239.12 138.2L1239.1 138.149L1239.09 138.098L1239.08 138.048L1239.06 137.997L1239.05 137.946L1239.03 137.896L1239.02 137.845L1239.01 137.795L1238.99 137.744L1238.98 137.693L1238.97 137.643L1238.95 137.592L1238.94 137.541L1238.93 137.491L1238.91 137.44L1238.9 137.39L1238.89 137.339L1238.87 137.288L1238.86 137.238L1238.85 137.187L1238.83 137.137L1238.82 137.086L1238.8 137.035L1238.79 136.985L1238.78 136.934L1238.76 136.883L1238.75 136.833L1238.74 136.782L1238.72 136.732L1238.71 136.681L1238.7 136.63L1238.68 136.58L1238.67 136.529L1238.66 136.478L1238.64 136.428L1238.63 136.377L1238.61 136.327L1238.6 136.276L1238.59 136.225L1238.57 136.175L1238.56 136.124L1238.55 136.073C1238.39 135.486 1237.78 135.135 1237.19 135.292L1237.19 135.293L1180.83 156.189L1180.7 155.706C1180.7 155.706 1180.7 155.707 1180.7 155.707C1180.11 155.866 1179.77 156.475 1179.92 157.065L1186.87 182.972C1187.02 183.56 1187.63 183.911 1188.22 183.753L1188.22 183.753C1197.86 181.104 1207.19 177.314 1216.49 173.537L1216.52 173.525C1225.84 169.74 1235.12 165.969 1244.71 163.339ZM1244.71 163.339C1244.71 163.339 1244.71 163.339 1244.71 163.34L1244.58 162.857L1244.71 163.339C1244.71 163.339 1244.71 163.339 1244.71 163.339Z" stroke="white" stroke-miterlimit="10"/>
<path d="M1215.19 168.717L1215.19 168.717C1220.07 166.729 1222.94 161.075 1221.58 156.017C1220.21 150.904 1215.08 148.347 1210.15 150.357L1210.14 150.358C1205.27 152.352 1202.4 157.999 1203.76 163.058C1205.13 168.17 1210.26 170.728 1215.19 168.717Z" stroke="white" stroke-miterlimit="10"/>
<path d="M1198.38 165.379C1198.91 167.346 1197.79 169.504 1195.86 170.184C1193.9 170.874 1191.85 169.768 1191.32 167.771M1198.38 165.379C1197.85 163.37 1195.81 162.331 1193.86 163.017C1191.94 163.694 1190.79 165.795 1191.32 167.771M1198.38 165.379C1198.38 165.379 1198.38 165.378 1198.38 165.378L1197.9 165.507L1198.38 165.379ZM1191.32 167.771C1191.32 167.772 1191.32 167.772 1191.32 167.772L1191.81 167.643L1191.32 167.77C1191.32 167.771 1191.32 167.771 1191.32 167.771Z" stroke="white" stroke-miterlimit="10"/>
<path d="M1231.55 156.334L1231.55 156.334C1229.6 157.02 1227.56 155.989 1227.03 153.979M1231.55 156.334L1234.08 151.579M1231.55 156.334C1233.47 155.652 1234.61 153.554 1234.08 151.579M1231.55 156.334L1234.08 151.579M1227.03 153.979C1226.5 152.014 1227.62 149.847 1229.55 149.173C1231.51 148.484 1233.55 149.583 1234.08 151.574L1234.08 151.574L1234.08 151.579M1227.03 153.979C1227.03 153.979 1227.03 153.979 1227.03 153.98L1227.51 153.85L1227.03 153.978C1227.03 153.978 1227.03 153.978 1227.03 153.979Z" stroke="white" stroke-miterlimit="10"/>
<path d="M1213.56 157.066L1213.57 157.067L1213.58 157.068L1213.6 157.071L1213.61 157.072L1213.63 157.078L1213.66 157.083C1214.22 157.172 1214.67 156.713 1214.72 156.216L1214.72 156.213L1214.77 155.639L1214.82 155.067C1214.85 154.65 1214.6 154.205 1214.12 154.122C1214.11 154.121 1214.11 154.12 1214.1 154.119L1214.09 154.115L1214.05 154.109C1213.65 154.037 1213.23 154.035 1212.81 154.1L1212.7 153.67C1212.56 153.167 1212.03 152.901 1211.55 153.104L1211.74 153.566L1211.55 153.103C1211.24 153.229 1210.93 153.355 1210.62 153.48L1210.62 153.48L1210.62 153.481C1210.2 153.658 1209.93 154.145 1210.06 154.611L1210.24 155.298C1209.23 156.205 1208.76 157.509 1209.11 158.805C1209.35 159.715 1209.9 160.257 1210.58 160.553C1211.23 160.834 1211.97 160.883 1212.62 160.885C1213.11 160.891 1213.34 160.956 1213.44 161.01C1213.5 161.044 1213.52 161.07 1213.55 161.151C1213.58 161.271 1213.52 161.555 1213.03 161.757C1212.59 161.935 1212.09 161.977 1211.69 161.884C1211.67 161.877 1211.62 161.862 1211.56 161.853C1210.97 161.73 1210.5 162.222 1210.46 162.727L1210.46 162.727L1210.46 162.731C1210.44 163.117 1210.41 163.496 1210.38 163.881L1210.38 163.881L1210.38 163.891C1210.36 164.264 1210.56 164.666 1210.98 164.79C1210.99 164.796 1211.04 164.809 1211.09 164.818C1211.56 164.945 1212.14 164.942 1212.7 164.846L1212.7 164.848L1212.7 164.85L1212.7 164.852L1212.7 164.854L1212.7 164.856L1212.7 164.857L1212.7 164.859L1212.71 164.861L1212.71 164.863L1212.71 164.865L1212.71 164.867L1212.71 164.868L1212.71 164.87L1212.71 164.872L1212.71 164.874L1212.71 164.876L1212.71 164.878L1212.71 164.879L1212.71 164.881L1212.71 164.883L1212.71 164.885L1212.71 164.887L1212.71 164.888L1212.71 164.89L1212.71 164.892L1212.71 164.894L1212.71 164.896L1212.72 164.898L1212.72 164.899L1212.72 164.901L1212.72 164.903L1212.72 164.905L1212.72 164.907L1212.72 164.909L1212.72 164.91L1212.72 164.912L1212.72 164.914L1212.72 164.916L1212.72 164.918L1212.72 164.92L1212.72 164.921L1212.72 164.923L1212.72 164.925L1212.72 164.927L1212.72 164.929L1212.72 164.931L1212.72 164.932L1212.72 164.934L1212.73 164.936L1212.73 164.938L1212.73 164.94L1212.73 164.942L1212.73 164.943L1212.73 164.945L1212.73 164.947L1212.73 164.949L1212.73 164.951L1212.73 164.953L1212.73 164.954L1212.73 164.956L1212.73 164.958L1212.73 164.96L1212.73 164.962L1212.73 164.963L1212.73 164.965L1212.73 164.967L1212.73 164.969L1212.73 164.971L1212.74 164.973L1212.74 164.974L1212.74 164.976L1212.74 164.978L1212.74 164.98L1212.74 164.982L1212.74 164.984L1212.74 164.985L1212.74 164.987L1212.74 164.989L1212.74 164.991L1212.74 164.993L1212.74 164.995L1212.74 164.996L1212.74 164.998L1212.74 165L1212.74 165.002L1212.74 165.004L1212.74 165.006L1212.74 165.007L1212.74 165.009L1212.75 165.011L1212.75 165.013L1212.75 165.015L1212.75 165.017L1212.75 165.018L1212.75 165.02L1212.75 165.022L1212.75 165.024L1212.75 165.026L1212.75 165.028L1212.75 165.029L1212.75 165.031L1212.75 165.033L1212.75 165.035L1212.75 165.037L1212.75 165.039L1212.75 165.04L1212.75 165.042L1212.75 165.044L1212.75 165.046L1212.76 165.048L1212.76 165.049L1212.76 165.051L1212.76 165.053L1212.76 165.055L1212.76 165.057L1212.76 165.059L1212.76 165.06L1212.76 165.062L1212.76 165.064L1212.76 165.066L1212.76 165.068L1212.76 165.07L1212.76 165.071L1212.76 165.073L1212.76 165.075L1212.76 165.077L1212.76 165.079L1212.76 165.081L1212.76 165.082L1212.77 165.084L1212.77 165.086L1212.77 165.088L1212.77 165.09L1212.77 165.092L1212.77 165.093L1212.77 165.095L1212.77 165.097L1212.77 165.099L1212.77 165.101L1212.77 165.103L1212.77 165.104L1212.77 165.106L1212.77 165.108L1212.77 165.11L1212.77 165.112L1212.77 165.114L1212.77 165.115L1212.77 165.117L1212.77 165.119L1212.77 165.121L1212.78 165.123L1212.78 165.125L1212.78 165.126L1212.78 165.128L1212.78 165.13L1212.78 165.132L1212.78 165.134L1212.78 165.136L1212.78 165.137L1212.78 165.139L1212.78 165.141L1212.78 165.143L1212.78 165.145L1212.78 165.147L1212.78 165.148L1212.78 165.15L1212.78 165.152L1212.78 165.154L1212.78 165.156L1212.78 165.158L1212.79 165.159L1212.79 165.161L1212.79 165.163L1212.79 165.165L1212.79 165.167L1212.79 165.169L1212.79 165.17L1212.79 165.172L1212.79 165.174L1212.79 165.176L1212.79 165.178L1212.79 165.18L1212.79 165.182L1212.79 165.183L1212.79 165.185L1212.79 165.187L1212.79 165.189L1212.79 165.191L1212.79 165.193L1212.79 165.194L1212.8 165.196L1212.8 165.198L1212.8 165.2L1212.8 165.202L1212.8 165.204L1212.8 165.205L1212.8 165.207L1212.8 165.209L1212.8 165.211L1212.8 165.213L1212.8 165.215L1212.8 165.216L1212.8 165.218L1212.8 165.22L1212.8 165.222L1212.8 165.224L1212.8 165.226L1212.8 165.227L1212.8 165.229L1212.8 165.231L1212.8 165.233L1212.81 165.235L1212.81 165.237L1212.81 165.238L1212.81 165.24L1212.81 165.242L1212.81 165.244L1212.81 165.246L1212.81 165.248L1212.81 165.25L1212.81 165.251L1212.81 165.253L1212.81 165.255L1212.81 165.257L1212.81 165.259L1212.81 165.261L1212.81 165.262L1212.81 165.264L1212.81 165.266L1212.81 165.268L1212.81 165.27L1212.82 165.272L1212.82 165.273L1212.82 165.275L1212.82 165.277L1212.82 165.279L1212.82 165.281L1212.82 165.283L1212.82 165.285L1212.82 165.286L1212.82 165.288L1212.82 165.29L1212.82 165.292L1212.82 165.294L1212.82 165.296L1212.82 165.297L1212.82 165.299L1212.82 165.301L1212.82 165.303L1212.82 165.305L1212.82 165.307L1212.83 165.308L1212.83 165.31L1212.83 165.312L1212.83 165.314L1212.83 165.316L1212.83 165.318L1212.83 165.32L1212.83 165.321L1212.83 165.323L1212.83 165.325C1212.97 165.831 1213.5 166.09 1213.98 165.892C1214.14 165.828 1214.3 165.765 1214.45 165.702L1214.45 165.701C1214.61 165.638 1214.76 165.575 1214.92 165.512L1214.92 165.512L1214.93 165.509C1215.35 165.332 1215.61 164.845 1215.49 164.379L1215.49 164.377L1215.49 164.375L1215.49 164.373L1215.49 164.371L1215.49 164.369L1215.49 164.367L1215.49 164.365L1215.48 164.363L1215.48 164.361L1215.48 164.359L1215.48 164.357L1215.48 164.355L1215.48 164.353L1215.48 164.351L1215.48 164.349L1215.48 164.347L1215.48 164.345L1215.48 164.343L1215.48 164.341L1215.48 164.339L1215.48 164.337L1215.48 164.335L1215.48 164.333L1215.48 164.331L1215.48 164.329L1215.48 164.327L1215.47 164.325L1215.47 164.323L1215.47 164.321L1215.47 164.319L1215.47 164.317L1215.47 164.315L1215.47 164.313L1215.47 164.311L1215.47 164.309L1215.47 164.307L1215.47 164.305L1215.47 164.303L1215.47 164.301L1215.47 164.299L1215.47 164.297L1215.47 164.295L1215.47 164.293L1215.47 164.291L1215.46 164.289L1215.46 164.287L1215.46 164.285L1215.46 164.282L1215.46 164.28L1215.46 164.278L1215.46 164.276L1215.46 164.274L1215.46 164.272L1215.46 164.27L1215.46 164.268L1215.46 164.266L1215.46 164.264L1215.46 164.262L1215.46 164.26L1215.46 164.258L1215.46 164.256L1215.46 164.254L1215.46 164.252L1215.45 164.25L1215.45 164.248L1215.45 164.246L1215.45 164.244L1215.45 164.242L1215.45 164.24L1215.45 164.238L1215.45 164.236L1215.45 164.234L1215.45 164.232L1215.45 164.23L1215.45 164.228L1215.45 164.226L1215.45 164.224L1215.45 164.222L1215.45 164.22L1215.45 164.218L1215.45 164.216L1215.44 164.214L1215.44 164.212L1215.44 164.21L1215.44 164.208L1215.44 164.206L1215.44 164.204L1215.44 164.202L1215.44 164.2L1215.44 164.198L1215.44 164.196L1215.44 164.194L1215.44 164.192L1215.44 164.19L1215.44 164.188L1215.44 164.185L1215.44 164.183L1215.44 164.181L1215.44 164.179L1215.44 164.177L1215.43 164.175L1215.43 164.173L1215.43 164.171L1215.43 164.169L1215.43 164.167L1215.43 164.165L1215.43 164.163L1215.43 164.161L1215.43 164.159L1215.43 164.157L1215.43 164.155L1215.43 164.153L1215.43 164.151L1215.43 164.149L1215.43 164.147L1215.43 164.145L1215.43 164.143L1215.43 164.141L1215.42 164.139L1215.42 164.137L1215.42 164.135L1215.42 164.133L1215.42 164.131L1215.42 164.129L1215.42 164.127L1215.42 164.125L1215.42 164.123L1215.42 164.121L1215.42 164.119L1215.42 164.117L1215.42 164.115L1215.42 164.113L1215.42 164.111L1215.42 164.109L1215.42 164.107L1215.42 164.105L1215.42 164.102L1215.41 164.1L1215.41 164.098L1215.41 164.096L1215.41 164.094L1215.41 164.092L1215.41 164.09L1215.41 164.088L1215.41 164.086L1215.41 164.084L1215.41 164.082L1215.41 164.08L1215.41 164.078L1215.41 164.076L1215.41 164.074L1215.41 164.072L1215.41 164.07L1215.41 164.068L1215.41 164.066L1215.4 164.064L1215.4 164.062L1215.4 164.06L1215.4 164.058L1215.4 164.056L1215.4 164.054L1215.4 164.052L1215.4 164.05L1215.4 164.048L1215.4 164.046L1215.4 164.044L1215.4 164.042L1215.4 164.04L1215.4 164.038L1215.4 164.036L1215.4 164.034L1215.4 164.032L1215.4 164.03L1215.39 164.027L1215.39 164.025L1215.39 164.023L1215.39 164.021L1215.39 164.019L1215.39 164.017L1215.39 164.015L1215.39 164.013L1215.39 164.011L1215.39 164.009L1215.39 164.007L1215.39 164.005L1215.39 164.003L1215.39 164.001L1215.39 163.999L1215.39 163.997L1215.39 163.995L1215.39 163.993L1215.39 163.991L1215.38 163.989L1215.38 163.987L1215.38 163.985L1215.38 163.983L1215.38 163.981L1215.38 163.979L1215.38 163.977L1215.38 163.975L1215.38 163.973L1215.38 163.971L1215.38 163.969L1215.38 163.967L1215.38 163.965L1215.38 163.963L1215.38 163.961L1215.38 163.959L1215.38 163.956L1215.38 163.954L1215.37 163.952L1215.37 163.95L1215.37 163.948L1215.37 163.946L1215.37 163.944L1215.37 163.942L1215.37 163.94L1215.37 163.938L1215.37 163.936L1215.37 163.934L1215.37 163.932L1215.37 163.93L1215.37 163.928L1215.37 163.926L1215.37 163.924L1215.37 163.922L1215.37 163.92L1215.37 163.918L1215.37 163.916L1215.36 163.914L1215.36 163.912L1215.36 163.91L1215.36 163.908L1215.36 163.906L1215.36 163.904L1215.36 163.902L1215.36 163.9L1215.36 163.898L1215.36 163.896L1215.36 163.894L1215.36 163.892L1215.36 163.89L1215.36 163.887L1215.36 163.885L1215.36 163.883L1215.36 163.881L1215.36 163.879L1215.35 163.877L1215.35 163.875L1215.35 163.873L1215.35 163.871L1215.35 163.869L1215.35 163.867L1215.35 163.865L1215.35 163.863L1215.35 163.861L1215.35 163.859L1215.35 163.857L1215.35 163.855L1215.35 163.853L1215.35 163.851L1215.35 163.849L1215.35 163.847L1215.35 163.845L1215.35 163.843L1215.34 163.841L1215.34 163.839L1215.34 163.837L1215.34 163.835L1215.34 163.833L1215.34 163.831L1215.34 163.829L1215.34 163.827L1215.34 163.825L1215.34 163.823L1215.34 163.821L1215.34 163.818L1215.34 163.816L1215.34 163.814L1215.34 163.812L1215.34 163.81L1215.34 163.808L1215.34 163.806L1215.34 163.804L1215.33 163.802L1215.33 163.8L1215.33 163.798L1215.33 163.796L1215.33 163.794L1215.33 163.792L1215.33 163.79L1215.33 163.788L1215.33 163.786L1215.33 163.784L1215.33 163.782L1215.33 163.78L1215.33 163.778L1215.33 163.776L1215.33 163.774L1215.33 163.772L1215.33 163.77L1215.33 163.768L1215.32 163.766L1215.32 163.764L1215.32 163.762L1215.32 163.76L1215.32 163.758L1215.32 163.756L1215.32 163.754L1215.32 163.752L1215.32 163.749L1215.32 163.747L1215.32 163.745L1215.32 163.743L1215.32 163.741L1215.32 163.739L1215.32 163.737L1215.32 163.735L1215.32 163.733L1215.32 163.731L1215.32 163.729L1215.31 163.727L1215.31 163.725L1215.31 163.723L1215.31 163.721L1215.31 163.719L1215.31 163.717L1215.31 163.715L1215.31 163.713L1215.31 163.711L1215.31 163.709L1215.31 163.707L1215.31 163.705L1215.31 163.703L1215.31 163.701L1215.31 163.699L1215.31 163.697L1215.31 163.695L1215.31 163.693L1215.3 163.691L1215.3 163.689L1215.3 163.687L1215.3 163.685L1215.3 163.683L1215.3 163.681L1215.3 163.678L1215.3 163.676L1215.3 163.674L1215.3 163.672L1215.3 163.67L1215.3 163.668L1215.3 163.666L1215.3 163.664L1215.3 163.662L1215.3 163.66L1215.3 163.658L1215.3 163.656L1215.29 163.654L1215.29 163.653C1216.34 162.712 1216.84 161.326 1216.48 159.995C1216.22 159.037 1215.68 158.453 1215.01 158.125C1214.37 157.809 1213.65 157.746 1213.06 157.738L1212.99 157.737L1212.99 157.738C1212.44 157.725 1212.17 157.68 1212.05 157.632C1212.03 157.625 1212.02 157.619 1212.01 157.615C1212.01 157.61 1212 157.603 1212 157.594C1212 157.582 1211.99 157.541 1212.01 157.493C1212.03 157.456 1212.09 157.33 1212.4 157.204C1212.96 156.973 1213.37 157.035 1213.55 157.064C1213.56 157.065 1213.56 157.066 1213.56 157.066ZM1214.08 154.115C1214.08 154.115 1214.08 154.115 1214.08 154.116L1214.08 154.115ZM1212 157.609C1212 157.609 1212 157.609 1212 157.61L1212 157.609Z" stroke="white" stroke-miterlimit="10"/>
<path d="M1098.26 57.5117C1098.74 57.3829 1099.02 56.8898 1098.89 56.4128L1098.88 56.3795L1098.87 56.3462L1098.87 56.3129L1098.86 56.2796L1098.85 56.2463L1098.84 56.213L1098.83 56.1797L1098.82 56.1465L1098.81 56.1132L1098.8 56.0799L1098.79 56.0466L1098.79 56.0133L1098.78 55.98L1098.77 55.9467L1098.76 55.9134L1098.75 55.8801L1098.74 55.8468L1098.73 55.8135L1098.72 55.7802L1098.71 55.7469L1098.71 55.7136L1098.7 55.6803L1098.69 55.647L1098.68 55.6137L1098.67 55.5804L1098.66 55.5471L1098.65 55.5138L1098.64 55.4805L1098.63 55.4472L1098.62 55.4139L1098.62 55.3806L1098.61 55.3473L1098.6 55.314L1098.59 55.2807L1098.58 55.2474L1098.57 55.2141L1098.56 55.1808L1098.55 55.1475L1098.54 55.1143L1098.54 55.081L1098.53 55.0477L1098.52 55.0144L1098.51 54.9811L1098.5 54.9478L1098.49 54.9145L1098.48 54.8812L1098.47 54.8479L1098.46 54.8146L1098.46 54.7813L1098.45 54.748L1098.44 54.7147L1098.43 54.6814L1098.42 54.6481L1098.41 54.6148L1098.4 54.5815L1098.39 54.5482L1098.38 54.5149L1098.38 54.4816L1098.37 54.4484L1098.36 54.4151L1098.35 54.3818L1098.34 54.3485L1098.33 54.3152L1098.32 54.2819L1098.31 54.2486L1098.3 54.2153L1098.29 54.182L1098.29 54.1487L1098.28 54.1154L1098.27 54.0821L1098.26 54.0488L1098.25 54.0155L1098.24 53.9822L1098.23 53.949L1098.22 53.9157L1098.21 53.8824L1098.21 53.8491L1098.2 53.8158L1098.19 53.7825L1098.18 53.7492L1098.17 53.7159L1098.16 53.6826L1098.15 53.6493L1098.14 53.616L1098.13 53.5827L1098.13 53.5494L1098.12 53.5161L1098.11 53.4829L1098.1 53.4496L1098.09 53.4163L1098.08 53.383L1098.07 53.3497L1098.06 53.3164L1098.05 53.2831L1098.04 53.2498L1098.04 53.2165L1098.03 53.1832L1098.02 53.1499L1098.01 53.1166L1098 53.0833L1097.99 53.0501L1097.98 53.0168L1097.97 52.9835L1097.96 52.9502L1097.96 52.9169L1097.95 52.8836L1097.94 52.8503L1097.93 52.817L1097.92 52.7837L1097.91 52.7504L1097.9 52.7171L1097.89 52.6839L1097.88 52.6506L1097.88 52.6173L1097.87 52.584L1097.86 52.5507L1097.85 52.5174L1097.84 52.4841L1097.83 52.4508L1097.82 52.4175L1097.81 52.3842L1097.8 52.3509L1097.8 52.3177L1097.79 52.2844L1097.78 52.2511L1097.77 52.2178L1097.76 52.1845L1097.75 52.1512L1097.74 52.1179L1097.73 52.0846L1097.72 52.0513L1097.71 52.018L1097.71 51.9847L1097.7 51.9515L1097.69 51.9182L1097.68 51.8849L1097.67 51.8516L1097.66 51.8183L1097.65 51.785L1097.64 51.7517L1097.63 51.7184L1097.63 51.6851L1097.62 51.6518L1097.61 51.6186L1097.6 51.5853L1097.59 51.552L1097.58 51.5187L1097.57 51.4854L1097.56 51.4521L1097.55 51.4188L1097.55 51.3855L1097.54 51.3522L1097.53 51.319L1097.52 51.2857L1097.51 51.2524L1097.5 51.2191L1097.49 51.1858L1097.48 51.1525L1097.47 51.1192L1097.47 51.0859L1097.46 51.0526L1097.45 51.0194L1097.44 50.9861L1097.43 50.9528L1097.42 50.9195L1097.41 50.8862L1097.4 50.8529L1097.39 50.8196L1097.38 50.7863L1097.38 50.753L1097.37 50.7197L1097.36 50.6865L1097.35 50.6532L1097.34 50.6199L1097.33 50.5866L1097.32 50.5533L1097.31 50.52L1097.3 50.4867L1097.3 50.4534L1097.29 50.4202L1097.28 50.3869L1097.27 50.3536L1097.26 50.3203L1097.25 50.287L1097.24 50.2537L1097.23 50.2204L1097.22 50.1871L1097.22 50.1538L1097.21 50.1206L1097.2 50.0873L1097.19 50.054L1097.18 50.0207L1097.17 49.9874L1097.16 49.9541L1097.15 49.9208L1097.14 49.8875L1097.14 49.8542L1097.13 49.821L1097.12 49.7877L1097.11 49.7544L1097.1 49.7211L1097.09 49.6878L1097.08 49.6545L1097.07 49.6212L1097.06 49.5879L1097.05 49.5547L1097.05 49.5214L1097.04 49.4881L1097.03 49.4548L1097.02 49.4215L1097.01 49.3882L1097 49.3549L1096.99 49.3216L1096.98 49.2884L1096.97 49.2551L1096.97 49.2218L1096.96 49.1885L1096.95 49.1552L1096.94 49.1219L1096.93 49.0886L1096.92 49.0553L1096.91 49.022L1096.9 48.9888L1096.89 48.9555L1096.89 48.9222L1096.88 48.8889L1096.87 48.8556L1096.86 48.8223L1096.85 48.789L1096.84 48.7557L1096.83 48.7225L1096.82 48.6892L1096.81 48.6559L1096.81 48.6226L1096.8 48.5893L1096.79 48.556L1096.78 48.5227L1096.77 48.4894L1096.76 48.4562L1096.75 48.4229L1096.74 48.3896L1096.73 48.3563L1096.72 48.323L1096.72 48.2897L1096.71 48.2564L1096.7 48.2231L1096.69 48.1899L1096.68 48.1566L1096.67 48.1233L1096.66 48.09L1096.65 48.0567L1096.64 48.0234L1096.64 47.9901L1096.63 47.9568L1096.62 47.9236L1096.61 47.8903L1096.6 47.857L1096.59 47.8237L1096.58 47.7904L1096.57 47.7571L1096.56 47.7238L1096.56 47.6905L1096.55 47.6573L1096.54 47.624L1096.53 47.5907L1096.52 47.5574L1096.51 47.5241L1096.5 47.4908L1096.49 47.4575L1096.48 47.4242L1096.48 47.391L1096.47 47.3577L1096.46 47.3244L1096.45 47.2911L1096.44 47.2578L1096.43 47.2245L1096.42 47.1912L1096.41 47.1579L1096.4 47.1247L1096.39 47.0914L1096.39 47.0581L1096.38 47.0248L1096.37 46.9915L1096.36 46.9582L1096.35 46.9249L1096.34 46.8916L1096.33 46.8584L1096.32 46.8251L1096.31 46.7918L1096.31 46.7585L1096.3 46.7252L1096.29 46.6919L1096.28 46.6586L1096.27 46.6253L1096.26 46.592L1096.25 46.5588L1096.24 46.5255L1096.23 46.4922L1096.23 46.4589L1096.22 46.4256L1096.21 46.3923L1096.2 46.359L1096.19 46.3257L1096.18 46.2925L1096.17 46.2592L1096.16 46.2259L1096.15 46.1926L1096.15 46.1593L1096.14 46.126L1096.13 46.0927L1096.12 46.0594L1096.11 46.0262L1096.1 45.9929L1096.09 45.9596L1096.08 45.9263L1096.07 45.893L1096.06 45.8597L1096.06 45.8264L1096.05 45.7931L1096.04 45.7598L1096.03 45.7266L1096.02 45.6933L1096.01 45.66L1096 45.6267L1095.99 45.5934L1095.98 45.5601L1095.98 45.5268L1095.97 45.4935L1095.96 45.4603L1095.95 45.427L1095.94 45.3937L1095.93 45.3604L1095.92 45.3271L1095.91 45.2938L1095.9 45.2605L1095.9 45.2272L1095.89 45.1939L1095.88 45.1607L1095.87 45.1274L1095.86 45.0941L1095.85 45.0608L1095.84 45.0275L1095.83 44.9942L1095.82 44.9609L1095.82 44.9276L1095.81 44.8943L1095.8 44.8611L1095.79 44.8278L1095.78 44.7945L1095.77 44.7612L1095.76 44.7279L1095.75 44.6946L1095.74 44.6613L1095.73 44.628L1095.73 44.5947L1095.72 44.5615L1095.71 44.5282L1095.7 44.4949L1095.69 44.4616L1095.68 44.4283L1095.67 44.395L1095.66 44.3617L1095.65 44.3284L1095.65 44.2951L1095.64 44.2618L1095.63 44.2286L1095.62 44.1953L1095.61 44.162L1095.6 44.1287L1095.59 44.0954L1095.58 44.0621L1095.57 44.0288L1095.57 43.9955L1095.56 43.9622L1095.55 43.9289L1095.54 43.8957L1095.53 43.8624L1095.52 43.8291L1095.51 43.7958L1095.5 43.7625L1095.49 43.7292L1095.49 43.6959L1095.48 43.6626L1095.47 43.6293L1095.46 43.596L1095.45 43.5628L1095.44 43.5295L1095.43 43.4962L1095.42 43.4629L1095.41 43.4296L1095.4 43.3963L1095.4 43.363L1095.39 43.3297L1095.38 43.2964L1095.37 43.2631L1095.36 43.2299L1095.35 43.1966L1095.34 43.1633L1095.33 43.13L1095.32 43.0967L1095.32 43.0634L1095.31 43.0301L1095.3 42.9968L1095.29 42.9635L1095.28 42.9302L1095.27 42.8969L1095.26 42.8636L1095.25 42.8304L1095.24 42.7971L1095.24 42.7638L1095.23 42.7305L1095.22 42.6972L1095.21 42.6639L1095.2 42.6306L1095.19 42.5973L1095.18 42.564L1095.17 42.5307L1095.16 42.4974L1095.15 42.4641L1095.15 42.4309L1095.14 42.3976L1095.13 42.3643L1095.12 42.331L1095.11 42.2977L1095.1 42.2644L1095.09 42.2311L1095.08 42.1978L1095.07 42.1645L1095.07 42.1312L1095.06 42.0979L1095.05 42.0646L1095.04 42.0313L1095.03 41.9981L1095.02 41.9648L1095.01 41.9315L1095 41.8982L1094.99 41.8649L1094.99 41.8316L1094.98 41.7983L1094.97 41.765L1094.96 41.7317L1094.95 41.6984L1094.94 41.6651L1094.93 41.6318L1094.92 41.5985L1094.91 41.5652L1094.91 41.5319L1094.9 41.4987L1094.89 41.4654L1094.88 41.4321L1094.87 41.3988L1094.86 41.3655L1094.85 41.3322L1094.84 41.2989L1094.83 41.2656L1094.82 41.2323L1094.82 41.199L1094.81 41.1657L1094.8 41.1324L1094.79 41.0991L1094.78 41.0658L1094.77 41.0325L1094.76 40.9992L1094.75 40.9659L1094.74 40.9326L1094.74 40.8994L1094.73 40.8661L1094.72 40.8328L1094.71 40.7995L1094.7 40.7662L1094.69 40.7329L1094.68 40.6996L1094.67 40.6663L1094.66 40.633L1094.66 40.5997L1094.65 40.5664L1094.64 40.5331L1094.63 40.4998L1094.62 40.4665L1094.61 40.4332L1094.6 40.3999L1094.59 40.3666L1094.58 40.3333L1094.58 40.3L1094.57 40.2667L1094.56 40.2334L1094.55 40.2001L1094.54 40.1668L1094.53 40.1335L1094.52 40.1003L1094.51 40.067L1094.5 40.0337L1094.49 40.0004L1094.49 39.9671L1094.48 39.9338L1094.47 39.9005L1094.46 39.8672L1094.45 39.8339L1094.44 39.8006L1094.43 39.7673L1094.42 39.734L1094.41 39.7007L1094.41 39.6674L1094.4 39.6341L1094.39 39.6008L1094.38 39.5675L1094.37 39.5342L1094.36 39.5009L1094.35 39.4676L1094.34 39.4343L1094.33 39.401L1094.33 39.3677C1094.2 38.8901 1093.7 38.605 1093.23 38.7329L1093.22 38.7338L1056.2 52.6437L1056.07 52.1607C1056.07 52.1609 1056.07 52.161 1056.07 52.1612C1055.59 52.2907 1055.31 52.7862 1055.43 53.2639L1060 70.3053C1060.13 70.7829 1060.62 71.068 1061.1 70.9401L1061.1 70.9392C1067.45 69.1946 1073.6 66.6984 1079.71 64.2153L1079.74 64.205C1085.87 61.7147 1091.97 59.2386 1098.26 57.5117ZM1098.26 57.5117C1098.26 57.5119 1098.26 57.5121 1098.26 57.5123L1098.13 57.0293L1098.26 57.5115C1098.26 57.5116 1098.26 57.5117 1098.26 57.5117Z" stroke="white" stroke-miterlimit="10"/>
<path d="M1075.41 48.6561L1075.41 48.6564C1072.13 49.9999 1070.2 53.8003 1071.11 57.213C1072.04 60.6754 1075.53 62.4109 1078.87 61.0497L1078.87 61.0497C1082.15 59.7098 1084.08 55.905 1083.17 52.4928C1082.24 49.0304 1078.75 47.2949 1075.41 48.6561Z" stroke="white" stroke-miterlimit="10"/>
<path d="M1067.91 58.6493C1068.28 60.028 1067.5 61.5387 1066.15 62.0158C1064.76 62.5031 1063.31 61.7202 1062.94 60.3113M1067.91 58.6493C1067.54 57.2288 1066.09 56.4954 1064.72 56.9788C1063.37 57.4527 1062.57 58.9233 1062.94 60.3113M1067.91 58.6493C1067.91 58.6496 1067.91 58.6499 1067.91 58.6502L1067.43 58.778L1067.91 58.6486C1067.91 58.6488 1067.91 58.6491 1067.91 58.6493ZM1062.94 60.3113C1062.94 60.311 1062.94 60.3108 1062.94 60.3105L1063.42 60.1827L1062.94 60.3121C1062.94 60.3118 1062.94 60.3116 1062.94 60.3113Z" stroke="white" stroke-miterlimit="10"/>
<path d="M1089.63 52.9058L1089.62 52.9063C1088.25 53.3892 1086.81 52.6614 1086.43 51.2395M1089.63 52.9058L1091.4 49.5693C1091.02 48.1653 1089.58 47.3863 1088.2 47.8728C1086.84 48.3465 1086.06 49.8624 1086.43 51.2395M1089.63 52.9058C1090.97 52.4282 1091.77 50.9604 1091.4 49.573L1089.63 52.9058ZM1086.43 51.2395C1086.43 51.2392 1086.43 51.239 1086.43 51.2387L1086.91 51.1109L1086.43 51.2403C1086.43 51.2401 1086.43 51.2398 1086.43 51.2395Z" stroke="white" stroke-miterlimit="10"/>
<path d="M1077.71 53.3972L1077.71 53.3958C1077.7 53.3954 1077.7 53.395 1077.7 53.3946C1077.59 53.3771 1077.36 53.3417 1077.03 53.4755C1077.03 53.4757 1077.03 53.4759 1077.03 53.4761L1077.71 53.3972ZM1077.71 53.3972L1077.72 53.3982M1077.71 53.3972L1077.72 53.3982M1077.72 53.3982L1077.72 53.3984M1077.72 53.3982L1077.72 53.3984M1077.72 53.3984L1077.74 53.4021L1077.77 53.4068C1078.25 53.4831 1078.63 53.0919 1078.66 52.6825L1078.66 52.6825L1078.66 52.6802L1078.69 52.3023L1078.73 51.9266C1078.76 51.5792 1078.54 51.1948 1078.13 51.1221C1078.13 51.1221 1078.13 51.122 1078.13 51.1219L1078.12 51.1195L1078.08 51.1129C1077.84 51.0709 1077.61 51.0632 1077.37 51.0873L1077.33 50.9486C1077.21 50.5178 1076.76 50.2896 1076.34 50.4625L1076.53 50.9244L1076.34 50.4612C1076.14 50.5441 1075.93 50.6271 1075.73 50.7093L1075.73 50.7092L1075.73 50.7107C1075.38 50.8584 1075.15 51.2628 1075.26 51.6563L1075.35 52.0085C1074.7 52.639 1074.4 53.5259 1074.63 54.4151C1074.81 55.067 1075.21 55.4634 1075.7 55.677C1076.16 55.8765 1076.68 55.9086 1077.11 55.9098C1077.38 55.9133 1077.51 55.9456 1077.55 55.9649C1077.55 55.9695 1077.55 55.9804 1077.54 55.997C1077.51 56.037 1077.45 56.1011 1077.32 56.1536C1077.06 56.2586 1076.76 56.2811 1076.55 56.2306C1076.53 56.2252 1076.49 56.2148 1076.44 56.2075C1075.94 56.103 1075.55 56.5246 1075.52 56.9376L1075.52 56.9376L1075.52 56.9421C1075.5 57.1952 1075.49 57.4436 1075.47 57.6962L1075.47 57.6962L1075.47 57.7058C1075.45 58.0159 1075.62 58.3635 1075.98 58.4714C1075.99 58.4744 1076.01 58.4787 1076.02 58.4826C1076.03 58.4858 1076.05 58.4898 1076.07 58.4934C1076.36 58.5704 1076.7 58.5781 1077.04 58.536L1077.04 58.5368L1077.04 58.538L1077.04 58.5392L1077.04 58.5404L1077.04 58.5416L1077.04 58.5428L1077.04 58.544L1077.04 58.5452L1077.04 58.5465L1077.04 58.5477L1077.04 58.5489L1077.04 58.5501L1077.04 58.5513L1077.04 58.5525L1077.04 58.5537L1077.04 58.5549L1077.04 58.5561L1077.04 58.5573L1077.04 58.5585L1077.04 58.5597L1077.05 58.5609L1077.05 58.5621L1077.05 58.5633L1077.05 58.5645L1077.05 58.5657L1077.05 58.5669L1077.05 58.5682L1077.05 58.5694L1077.05 58.5706L1077.05 58.5718L1077.05 58.573L1077.05 58.5742L1077.05 58.5754L1077.05 58.5766L1077.05 58.5778L1077.05 58.579L1077.05 58.5802L1077.05 58.5814L1077.05 58.5826L1077.05 58.5838L1077.05 58.585L1077.05 58.5863L1077.05 58.5875L1077.05 58.5887L1077.05 58.5899L1077.05 58.5911L1077.05 58.5923L1077.05 58.5935L1077.05 58.5947L1077.05 58.5959L1077.05 58.5971L1077.06 58.5983L1077.06 58.5995L1077.06 58.6007L1077.06 58.6019L1077.06 58.6032L1077.06 58.6044L1077.06 58.6056L1077.06 58.6068L1077.06 58.608L1077.06 58.6092L1077.06 58.6104L1077.06 58.6116L1077.06 58.6128L1077.06 58.614L1077.06 58.6152L1077.06 58.6164L1077.06 58.6176L1077.06 58.6189L1077.06 58.6201L1077.06 58.6213L1077.06 58.6225L1077.06 58.6237L1077.06 58.6249L1077.06 58.6261L1077.06 58.6273L1077.06 58.6285L1077.06 58.6297L1077.06 58.6309L1077.06 58.6322L1077.06 58.6334L1077.06 58.6346L1077.07 58.6358L1077.07 58.637L1077.07 58.6382L1077.07 58.6394L1077.07 58.6406L1077.07 58.6418L1077.07 58.643L1077.07 58.6443L1077.07 58.6455L1077.07 58.6467L1077.07 58.6479L1077.07 58.6491L1077.07 58.6503L1077.07 58.6515L1077.07 58.6527L1077.07 58.6539L1077.07 58.6551L1077.07 58.6564L1077.07 58.6576L1077.07 58.6588L1077.07 58.66L1077.07 58.6612L1077.07 58.6624L1077.07 58.6636L1077.07 58.6648L1077.07 58.666L1077.07 58.6673L1077.07 58.6685L1077.07 58.6697L1077.07 58.6709L1077.07 58.6721L1077.08 58.6733L1077.08 58.6745L1077.08 58.6757L1077.08 58.6769L1077.08 58.6782L1077.08 58.6794L1077.08 58.6806L1077.08 58.6818L1077.08 58.683L1077.08 58.6842L1077.08 58.6854L1077.08 58.6866L1077.08 58.6879L1077.08 58.6891L1077.08 58.6903L1077.08 58.6915L1077.08 58.6927L1077.08 58.6939L1077.08 58.6951L1077.08 58.6963L1077.08 58.6976L1077.08 58.6988L1077.08 58.7L1077.08 58.7012L1077.08 58.7024L1077.08 58.7036C1077.2 59.1372 1077.66 59.3597 1078.07 59.1904L1078.38 59.0659L1078.69 58.9407L1078.69 58.9408L1078.69 58.9384C1079.05 58.7907 1079.27 58.3864 1079.16 57.9929L1079.16 57.9916L1079.16 57.9903L1079.16 57.9889L1079.16 57.9876L1079.16 57.9863L1079.16 57.985L1079.16 57.9836L1079.16 57.9823L1079.16 57.981L1079.16 57.9797L1079.16 57.9783L1079.16 57.977L1079.16 57.9757L1079.16 57.9744L1079.16 57.973L1079.16 57.9717L1079.16 57.9704L1079.16 57.9691L1079.16 57.9677L1079.16 57.9664L1079.16 57.9651L1079.16 57.9638L1079.16 57.9624L1079.15 57.9611L1079.15 57.9598L1079.15 57.9585L1079.15 57.9571L1079.15 57.9558L1079.15 57.9545L1079.15 57.9532L1079.15 57.9518L1079.15 57.9505L1079.15 57.9492L1079.15 57.9478L1079.15 57.9465L1079.15 57.9452L1079.15 57.9439L1079.15 57.9425L1079.15 57.9412L1079.15 57.9399L1079.15 57.9386L1079.15 57.9372L1079.15 57.9359L1079.15 57.9346L1079.15 57.9332L1079.15 57.9319L1079.15 57.9306L1079.15 57.9293L1079.15 57.9279L1079.15 57.9266L1079.15 57.9253L1079.14 57.924L1079.14 57.9226L1079.14 57.9213L1079.14 57.92L1079.14 57.9186L1079.14 57.9173L1079.14 57.916L1079.14 57.9147L1079.14 57.9133L1079.14 57.912L1079.14 57.9107L1079.14 57.9093L1079.14 57.908L1079.14 57.9067L1079.14 57.9054L1079.14 57.904L1079.14 57.9027L1079.14 57.9014L1079.14 57.9L1079.14 57.8987L1079.14 57.8974L1079.14 57.8961L1079.14 57.8947L1079.14 57.8934L1079.14 57.8921L1079.14 57.8907L1079.14 57.8894L1079.14 57.8881L1079.13 57.8867L1079.13 57.8854L1079.13 57.8841L1079.13 57.8828L1079.13 57.8814L1079.13 57.8801L1079.13 57.8788L1079.13 57.8774L1079.13 57.8761L1079.13 57.8748L1079.13 57.8734L1079.13 57.8721L1079.13 57.8708L1079.13 57.8695L1079.13 57.8681L1079.13 57.8668L1079.13 57.8655L1079.13 57.8641L1079.13 57.8628L1079.13 57.8615L1079.13 57.8601L1079.13 57.8588L1079.13 57.8575L1079.13 57.8561L1079.13 57.8548L1079.13 57.8535L1079.13 57.8521L1079.13 57.8508L1079.12 57.8495L1079.12 57.8482L1079.12 57.8468L1079.12 57.8455L1079.12 57.8442L1079.12 57.8428L1079.12 57.8415L1079.12 57.8402L1079.12 57.8388L1079.12 57.8375L1079.12 57.8362L1079.12 57.8348L1079.12 57.8335L1079.12 57.8322L1079.12 57.8308L1079.12 57.8295L1079.12 57.8282L1079.12 57.8268L1079.12 57.8255L1079.12 57.8242L1079.12 57.8228L1079.12 57.8215L1079.12 57.8202L1079.12 57.8189L1079.12 57.8175L1079.12 57.8162L1079.12 57.8149L1079.12 57.8135L1079.11 57.8122L1079.11 57.8109L1079.11 57.8095L1079.11 57.8082L1079.11 57.8069L1079.11 57.8055L1079.11 57.8042L1079.11 57.8029L1079.11 57.8015L1079.11 57.8002L1079.11 57.7989L1079.11 57.7975L1079.11 57.7962L1079.11 57.7949L1079.11 57.7935L1079.11 57.7922L1079.11 57.7909L1079.11 57.7895L1079.11 57.7882L1079.11 57.7869L1079.11 57.7855L1079.11 57.7842L1079.11 57.7829L1079.11 57.7815L1079.11 57.7802L1079.11 57.7789L1079.11 57.7775L1079.11 57.7762L1079.1 57.7749L1079.1 57.7735L1079.1 57.7722L1079.1 57.7709L1079.1 57.7695L1079.1 57.7682L1079.1 57.7669L1079.1 57.7655L1079.1 57.7642L1079.1 57.7629L1079.1 57.7615L1079.1 57.7602L1079.1 57.7589L1079.1 57.7575L1079.1 57.7562L1079.1 57.7549L1079.1 57.7535L1079.1 57.7522L1079.1 57.7509L1079.1 57.7495L1079.1 57.7482L1079.1 57.7468L1079.1 57.7455L1079.1 57.7442L1079.1 57.7428L1079.1 57.7415L1079.1 57.7402L1079.1 57.7388L1079.09 57.7375L1079.09 57.7362L1079.09 57.7348L1079.09 57.7335L1079.09 57.7322L1079.09 57.7308L1079.09 57.7295L1079.09 57.7282L1079.09 57.7268L1079.09 57.7255L1079.09 57.7242L1079.09 57.7228L1079.09 57.7215L1079.09 57.7202L1079.09 57.7188L1079.09 57.7175L1079.09 57.7162L1079.09 57.7148L1079.09 57.7135L1079.09 57.7122L1079.09 57.7108L1079.09 57.7095L1079.09 57.7081L1079.09 57.7068L1079.09 57.7055L1079.09 57.7041L1079.09 57.7028L1079.09 57.7015L1079.08 57.7001L1079.08 57.6988L1079.08 57.6975L1079.08 57.6961L1079.08 57.6948L1079.08 57.6935L1079.08 57.6921L1079.08 57.6908L1079.08 57.6895L1079.08 57.6881L1079.08 57.6868L1079.08 57.6855L1079.08 57.6841L1079.08 57.6828L1079.08 57.6815L1079.08 57.6801L1079.08 57.6788L1079.08 57.6774L1079.08 57.6761L1079.08 57.6748L1079.08 57.6734L1079.08 57.6721L1079.08 57.6708L1079.08 57.6694L1079.08 57.6681L1079.08 57.6668L1079.08 57.6654L1079.08 57.6641L1079.07 57.6628L1079.07 57.6614L1079.07 57.6601L1079.07 57.6588L1079.07 57.6574L1079.07 57.6561L1079.07 57.6548L1079.07 57.6534L1079.07 57.6521L1079.07 57.6507L1079.07 57.6494L1079.07 57.6481L1079.07 57.6467L1079.07 57.6454L1079.07 57.6441L1079.07 57.6427L1079.07 57.6414L1079.07 57.6401L1079.07 57.6387L1079.07 57.6374L1079.07 57.6361L1079.07 57.6347L1079.07 57.6334L1079.07 57.6321L1079.07 57.6307L1079.07 57.6294L1079.07 57.6281L1079.07 57.6267L1079.06 57.6254L1079.06 57.624L1079.06 57.6227L1079.06 57.6214L1079.06 57.62L1079.06 57.6187L1079.06 57.6174L1079.06 57.616L1079.06 57.6147L1079.06 57.6143C1079.74 56.9602 1080.06 56.0214 1079.82 55.1086M1077.72 53.3984L1077.02 53.4793C1077.1 53.4875 1077.21 53.4936 1077.33 53.4972L1077.34 53.4968L1077.4 53.4977C1077.8 53.5031 1078.3 53.545 1078.76 53.7697C1079.24 54.0073 1079.63 54.4307 1079.82 55.1086M1079.82 55.1086C1079.82 55.1089 1079.82 55.1093 1079.82 55.1097L1079.33 55.2391L1079.82 55.1074C1079.82 55.1078 1079.82 55.1082 1079.82 55.1086Z" stroke="white" stroke-miterlimit="10"/>
<path d="M1242.83 -18.5108C1211.11 -9.80141 1181.4 6.44446 1149.68 15.1539C1149.15 15.2967 1148.83 15.8418 1148.98 16.384L1160.43 59.1105C1160.57 59.6433 1161.12 59.9581 1161.65 59.8153C1193.37 51.1059 1223.08 34.86 1254.8 26.1506C1255.33 26.0078 1255.64 25.4533 1255.5 24.9205L1244.05 -17.806C1243.91 -18.3388 1243.36 -18.6536 1242.83 -18.5108Z" stroke="white" stroke-miterlimit="10"/>
<path d="M1216.07 15.0837C1218.2 23.0102 1213.69 31.9215 1206.01 35.0505C1198.35 38.1771 1190.39 34.2171 1188.26 26.2719C1186.14 18.336 1190.64 9.43415 1198.31 6.30758C1205.98 3.18101 1213.93 7.141 1216.07 15.0837Z" stroke="white" stroke-miterlimit="10"/>
<path d="M1177.82 30.5099C1178.58 33.3421 1176.95 36.4727 1174.17 37.4466C1171.4 38.4205 1168.52 36.8774 1167.76 34.0358C1167 31.2036 1168.65 28.1571 1171.42 27.1832C1174.2 26.2094 1177.05 27.6683 1177.82 30.5099Z" stroke="white" stroke-miterlimit="10"/>
<path d="M1236.7 7.75993C1237.45 10.5922 1235.81 13.6386 1233.03 14.6125C1230.25 15.5982 1227.4 14.1274 1226.64 11.2952C1225.88 8.46292 1227.51 5.33237 1230.28 4.35849C1233.06 3.38461 1235.94 4.9277 1236.7 7.75993Z" stroke="white" stroke-miterlimit="10"/>
<path d="M1202.79 18.5258C1200.82 18.4933 1200.42 18.2301 1200.27 17.6786C1200.2 17.4356 1200.09 16.5948 1201.4 16.0634C1202.56 15.5932 1203.4 15.7269 1203.76 15.7913C1203.81 15.7974 1203.87 15.8036 1203.92 15.8191C1204.3 15.8785 1204.68 15.5552 1204.72 15.1344C1204.77 14.4997 1204.83 13.8719 1204.88 13.2373C1204.91 12.8988 1204.72 12.6204 1204.41 12.5621C1204.38 12.551 1204.34 12.5516 1204.29 12.543C1203.5 12.4062 1202.68 12.4551 1201.8 12.6812L1201.4 11.2137C1201.31 10.8585 1200.96 10.6906 1200.62 10.8232C1200.11 11.0289 1199.6 11.2371 1199.09 11.4427C1198.75 11.5847 1198.54 11.9801 1198.65 12.3328L1199.09 13.9779C1197.34 15.3078 1196.56 17.309 1197.08 19.2439C1197.75 21.7209 1199.99 22.0611 1202.09 22.0586C1203.79 22.0746 1204.25 22.4917 1204.41 23.1112C1204.62 23.887 1204.08 24.6824 1203.08 25.0913C1202.2 25.4464 1201.18 25.5386 1200.35 25.3414C1200.3 25.3259 1200.24 25.3104 1200.18 25.3067C1199.78 25.2124 1199.37 25.5526 1199.34 26.0015C1199.3 26.6336 1199.26 27.2776 1199.21 27.9097C1199.2 28.2152 1199.37 28.4799 1199.64 28.5575C1199.67 28.5687 1199.7 28.5799 1199.74 28.5817C1200.57 28.8095 1201.72 28.762 1202.82 28.4571L1203.23 29.9994C1203.33 30.3546 1203.68 30.5293 1204.02 30.3899C1204.53 30.1817 1205.05 29.9735 1205.56 29.7653C1205.91 29.6234 1206.11 29.228 1206.01 28.8753L1205.55 27.1647C1207.34 25.7918 1208.18 23.6533 1207.64 21.6437C1206.92 18.9423 1204.67 18.5647 1202.79 18.5352L1202.79 18.5258Z" stroke="white" stroke-miterlimit="10"/>
<path d="M1236.34 19.6795C1170.58 37.7385 1109.23 72.257 1043.48 90.3132C1042.38 90.6086 1041.72 91.7532 1042.01 92.8554L1065.74 181.42C1066.04 182.532 1067.17 183.185 1068.28 182.877C1134.04 164.818 1195.39 130.299 1261.14 112.243C1262.25 111.945 1262.89 110.806 1262.6 109.704L1238.87 21.129C1238.57 20.0268 1237.44 19.3736 1236.34 19.669L1236.34 19.6795Z" fill="#0A0A0A" stroke="#0A0A0A" stroke-width="0.87" stroke-miterlimit="10"/>
<path d="M1235.02 14.7888C1169.26 32.8479 1107.91 67.3664 1042.17 85.4226C1041.06 85.718 1040.4 86.8626 1040.7 87.9648L1064.43 176.529C1064.72 177.631 1065.86 178.295 1066.97 177.986C1132.72 159.917 1194.08 125.409 1259.83 107.352C1260.94 107.054 1261.58 105.915 1261.28 104.813L1237.55 16.2384C1237.25 15.1362 1236.12 14.483 1235.02 14.7784L1235.02 14.7888Z" fill="white"/>
<path d="M1235.02 14.7888C1169.26 32.8479 1107.91 67.3664 1042.17 85.4226C1041.06 85.718 1040.4 86.8626 1040.7 87.9648L1064.43 176.529C1064.72 177.631 1065.86 178.295 1066.97 177.986C1132.72 159.917 1194.08 125.409 1259.83 107.352C1260.94 107.054 1261.58 105.915 1261.28 104.813L1237.55 16.2384C1237.25 15.1362 1236.12 14.483 1235.02 14.7784L1235.02 14.7888Z" stroke="#0A0A0A" stroke-miterlimit="10"/>
<path d="M1247.82 87.2066C1239.84 89.5262 1235.11 97.8938 1237.16 105.578C1185.89 122.275 1136.78 147.09 1085.5 163.811C1083.44 156.117 1075.37 152.014 1067.38 154.334L1054.29 105.491C1062.27 103.174 1067.01 94.8035 1064.95 87.1196C1116.23 70.3981 1165.33 45.5862 1216.61 28.8858C1218.68 36.5907 1226.75 40.6937 1234.74 38.374C1239.1 54.655 1243.46 70.9361 1247.83 87.2171L1247.82 87.2066Z" stroke="#0A0A0A" stroke-width="0.87" stroke-miterlimit="10"/>
<path d="M1180.12 86.491C1184.53 102.929 1175.2 121.473 1159.33 128.064C1143.47 134.655 1126.99 126.515 1122.58 110.045C1118.17 93.6068 1127.5 75.0735 1143.37 68.4826C1159.24 61.8889 1175.71 70.0315 1180.12 86.491Z" fill="#0A0A0A" stroke="#0A0A0A" stroke-width="0.87" stroke-miterlimit="10"/>
<path d="M1179.13 82.7918C1183.54 99.2303 1174.2 117.764 1158.34 124.365C1142.48 130.956 1126 122.816 1121.58 106.346C1117.18 89.9076 1126.51 71.3742 1142.38 64.7834C1158.25 58.1897 1174.72 66.3323 1179.13 82.7918Z" fill="white" stroke="#0A0A0A" stroke-width="0.87" stroke-miterlimit="10"/>
<path d="M1100.94 118.913C1102.51 124.78 1099.15 131.295 1093.4 133.34C1087.66 135.385 1081.7 132.19 1080.12 126.312C1078.55 120.433 1081.96 114.118 1087.71 112.073C1093.46 110.025 1099.36 113.045 1100.94 118.913Z" fill="#0A0A0A" stroke="#0A0A0A" stroke-width="1.13" stroke-miterlimit="10"/>
<path d="M1079.15 122.681L1080.12 126.302C1087.09 123.963 1094.03 121.484 1100.93 118.903L1099.96 115.282C1093.06 117.863 1086.12 120.342 1079.15 122.681Z" fill="#0A0A0A" stroke="#0A0A0A" stroke-width="1.13" stroke-miterlimit="10"/>
<path d="M1099.96 115.279C1101.53 121.146 1098.17 127.661 1092.43 129.706C1086.69 131.751 1080.73 128.556 1079.15 122.678C1077.58 116.81 1080.99 110.484 1086.73 108.428C1092.48 106.381 1098.39 109.4 1099.96 115.279Z" fill="white" stroke="#0A0A0A" stroke-width="1.13" stroke-miterlimit="10"/>
<path d="M1222.8 71.0429C1224.37 76.9212 1220.97 83.2445 1215.22 85.292C1209.47 87.3395 1203.57 84.3308 1201.99 78.4524C1200.42 72.5845 1203.78 66.0695 1209.52 64.0248C1215.27 61.9774 1221.23 65.175 1222.8 71.0429Z" fill="#0A0A0A" stroke="#0A0A0A" stroke-width="1.13" stroke-miterlimit="10"/>
<path d="M1201.01 74.8282L1201.98 78.4497C1208.89 75.866 1215.82 73.3796 1222.79 71.0402L1221.82 67.4187C1214.85 69.7581 1207.91 72.2473 1201.01 74.8282Z" fill="#0A0A0A" stroke="#0A0A0A" stroke-width="1.13" stroke-miterlimit="10"/>
<path d="M1221.83 67.4257C1223.41 73.3041 1220 79.6273 1214.25 81.6748C1208.5 83.7223 1202.6 80.7136 1201.02 74.8352C1199.45 68.9673 1202.81 62.4523 1208.55 60.4076C1214.3 58.3602 1220.26 61.5578 1221.83 67.4257Z" fill="white" stroke="#0A0A0A" stroke-width="1.13" stroke-miterlimit="10"/>
<path d="M1151.85 90.8744C1147.77 90.8191 1146.94 90.2874 1146.64 89.1432C1146.5 88.6394 1146.27 86.9007 1148.99 85.7795C1151.38 84.7903 1153.14 85.0612 1153.88 85.178C1153.98 85.1946 1154.09 85.2113 1154.2 85.228C1154.99 85.3516 1155.77 84.6717 1155.84 83.7846C1155.95 82.4727 1156.06 81.1607 1156.17 79.8487C1156.24 79.157 1155.83 78.5575 1155.19 78.4575C1155.12 78.4429 1155.04 78.4311 1154.96 78.4193C1153.31 78.1412 1151.62 78.2462 1149.8 78.7432L1148.99 75.6991C1148.79 74.9643 1148.05 74.6103 1147.35 74.8988C1146.3 75.3383 1145.25 75.7673 1144.19 76.2067C1143.49 76.4981 1143.08 77.3274 1143.27 78.0622L1144.19 81.4738C1140.58 84.2418 1138.96 88.4209 1140.04 92.4413C1141.42 97.5848 1146.06 98.2527 1150.41 98.2244C1153.93 98.2496 1154.86 99.1011 1155.21 100.368C1155.64 101.975 1154.54 103.633 1152.46 104.482C1150.64 105.227 1148.54 105.431 1146.81 105.028C1146.69 105.004 1146.58 104.977 1146.46 104.952C1145.65 104.755 1144.79 105.468 1144.72 106.397C1144.63 107.717 1144.54 109.044 1144.46 110.361C1144.42 111.002 1144.78 111.547 1145.32 111.694C1145.39 111.708 1145.45 111.726 1145.53 111.751C1147.24 112.225 1149.63 112.093 1151.91 111.459L1152.77 114.66C1152.96 115.395 1153.69 115.752 1154.4 115.461C1155.46 115.018 1156.53 114.573 1157.6 114.142C1158.3 113.853 1158.72 113.021 1158.52 112.286L1157.57 108.738C1161.29 105.863 1163.02 101.405 1161.91 97.2586C1160.41 91.6531 1155.74 90.9013 1151.86 90.8611L1151.85 90.8744Z" fill="#0A0A0A" stroke="#0A0A0A" stroke-width="0.87" stroke-miterlimit="10"/>
<path d="M1151.12 88.1557C1147.04 88.1004 1146.21 87.5687 1145.91 86.4245C1145.77 85.9206 1145.54 84.182 1148.26 83.0608C1150.65 82.0716 1152.41 82.3425 1153.15 82.4592C1153.25 82.4759 1153.36 82.4926 1153.46 82.5092C1154.26 82.6329 1155.03 81.9424 1155.11 81.0659C1155.22 79.7539 1155.33 78.4419 1155.44 77.1299C1155.51 76.4382 1155.1 75.8493 1154.46 75.7387C1154.39 75.7241 1154.31 75.7123 1154.23 75.7005C1152.58 75.4225 1150.89 75.5274 1149.07 76.0245L1148.26 72.9803C1148.06 72.2455 1147.32 71.8915 1146.62 72.1801C1145.57 72.6195 1144.52 73.0485 1143.46 73.488C1142.76 73.7794 1142.35 74.6087 1142.54 75.3435L1143.46 78.755C1139.85 81.5336 1138.23 85.7021 1139.31 89.7225C1140.69 94.8661 1145.33 95.534 1149.68 95.5057C1153.2 95.5309 1154.13 96.3719 1154.48 97.6497C1154.91 99.2558 1153.8 100.904 1151.73 101.764C1149.91 102.509 1147.81 102.713 1146.08 102.309C1145.96 102.285 1145.85 102.258 1145.73 102.233C1144.92 102.047 1144.06 102.749 1143.99 103.678C1143.9 104.998 1143.81 106.325 1143.73 107.642C1143.69 108.284 1144.04 108.818 1144.59 108.975C1144.66 108.989 1144.72 109.007 1144.8 109.032C1146.51 109.507 1148.9 109.385 1151.18 108.74L1152.04 111.942C1152.23 112.676 1152.96 113.033 1153.67 112.742C1154.73 112.3 1155.8 111.855 1156.87 111.423C1157.57 111.134 1157.99 110.302 1157.79 109.567L1156.84 106.019C1160.56 103.154 1162.29 98.6862 1161.18 94.5399C1159.68 88.9344 1155 88.172 1151.13 88.1424L1151.12 88.1557Z" fill="#00AD7B" stroke="#0A0A0A" stroke-width="0.87" stroke-miterlimit="10"/>
</g>
</g>
<defs>
<filter id="filter0_iiii_2190_575" x="0" y="0" width="1280" height="219.789" filterUnits="userSpaceOnUse" color-interpolation-filters="sRGB">
<feFlood flood-opacity="0" result="BackgroundImageFix"/>
<feBlend mode="normal" in="SourceGraphic" in2="BackgroundImageFix" result="shape"/>
<feColorMatrix in="SourceAlpha" type="matrix" values="0 0 0 0 0 0 0 0 0 0 0 0 0 0 0 0 0 0 127 0" result="hardAlpha"/>
<feOffset dy="3.04444"/>
<feGaussianBlur stdDeviation="3.29815"/>
<feComposite in2="hardAlpha" operator="arithmetic" k2="-1" k3="1"/>
<feColorMatrix type="matrix" values="0 0 0 0 0 0 0 0 0 0 0 0 0 0 0 0 0 0 0.05 0"/>
<feBlend mode="normal" in2="shape" result="effect1_innerShadow_2190_575"/>
<feColorMatrix in="SourceAlpha" type="matrix" values="0 0 0 0 0 0 0 0 0 0 0 0 0 0 0 0 0 0 127 0" result="hardAlpha"/>
<feOffset dy="12.1778"/>
<feGaussianBlur stdDeviation="6.08889"/>
<feComposite in2="hardAlpha" operator="arithmetic" k2="-1" k3="1"/>
<feColorMatrix type="matrix" values="0 0 0 0 0 0 0 0 0 0 0 0 0 0 0 0 0 0 0.04 0"/>
<feBlend mode="normal" in2="effect1_innerShadow_2190_575" result="effect2_innerShadow_2190_575"/>
<feColorMatrix in="SourceAlpha" type="matrix" values="0 0 0 0 0 0 0 0 0 0 0 0 0 0 0 0 0 0 127 0" result="hardAlpha"/>
<feOffset dy="27.9074"/>
<feGaussianBlur stdDeviation="8.37222"/>
<feComposite in2="hardAlpha" operator="arithmetic" k2="-1" k3="1"/>
<feColorMatrix type="matrix" values="0 0 0 0 0 0 0 0 0 0 0 0 0 0 0 0 0 0 0.03 0"/>
<feBlend mode="normal" in2="effect2_innerShadow_2190_575" result="effect3_innerShadow_2190_575"/>
<feColorMatrix in="SourceAlpha" type="matrix" values="0 0 0 0 0 0 0 0 0 0 0 0 0 0 0 0 0 0 127 0" result="hardAlpha"/>
<feOffset dy="49.2185"/>
<feGaussianBlur stdDeviation="9.89445"/>
<feComposite in2="hardAlpha" operator="arithmetic" k2="-1" k3="1"/>
<feColorMatrix type="matrix" values="0 0 0 0 0 0 0 0 0 0 0 0 0 0 0 0 0 0 0.01 0"/>
<feBlend mode="normal" in2="effect3_innerShadow_2190_575" result="effect4_innerShadow_2190_575"/>
</filter>
<filter id="filter1_dd_2190_575" x="293.508" y="79" width="633.277" height="61.8398" filterUnits="userSpaceOnUse" color-interpolation-filters="sRGB">
<feFlood flood-opacity="0" result="BackgroundImageFix"/>
<feColorMatrix in="SourceAlpha" type="matrix" values="0 0 0 0 0 0 0 0 0 0 0 0 0 0 0 0 0 0 127 0" result="hardAlpha"/>
<feOffset dy="8"/>
<feGaussianBlur stdDeviation="2.5"/>
<feColorMatrix type="matrix" values="0 0 0 0 0 0 0 0 0 0 0 0 0 0 0 0 0 0 0.08 0"/>
<feBlend mode="normal" in2="BackgroundImageFix" result="effect1_dropShadow_2190_575"/>
<feColorMatrix in="SourceAlpha" type="matrix" values="0 0 0 0 0 0 0 0 0 0 0 0 0 0 0 0 0 0 127 0" result="hardAlpha"/>
<feOffset dy="15"/>
<feGaussianBlur stdDeviation="3"/>
<feColorMatrix type="matrix" values="0 0 0 0 0 0 0 0 0 0 0 0 0 0 0 0 0 0 0.02 0"/>
<feBlend mode="normal" in2="effect1_dropShadow_2190_575" result="effect2_dropShadow_2190_575"/>
<feBlend mode="normal" in="SourceGraphic" in2="effect2_dropShadow_2190_575" result="shape"/>
</filter>
<linearGradient id="paint0_linear_2190_575" x1="-31.4074" y1="108.939" x2="1465.24" y2="-193.336" gradientUnits="userSpaceOnUse">
<stop stop-color="#7F56D1"/>
<stop offset="1" stop-color="#301D58"/>
</linearGradient>
<clipPath id="clip0_2190_575">
<rect width="1280" height="200" fill="white"/>
</clipPath>
<clipPath id="clip1_2190_575">
<rect width="212.907" height="97.7865" fill="white" transform="translate(40 45.1055)"/>
</clipPath>
</defs>
</svg>
