<svg width="400" height="200" viewBox="0 0 400 200" fill="none" xmlns="http://www.w3.org/2000/svg">
<g clip-path="url(#clip0_2200_919)" filter="url(#filter0_iiii_2200_919)">
<rect width="400" height="200" fill="url(#paint0_linear_2200_919)"/>
<g clip-path="url(#clip1_2200_919)">
<path d="M153.879 66.9799C153.879 64.7811 153.254 63.0238 152.014 61.6954C151.412 61.0502 150.679 60.5408 149.865 60.2011C149.051 59.8615 148.173 59.6994 147.291 59.7257C146.177 59.7361 145.078 59.9951 144.076 60.4836C143.095 60.92 142.237 61.5923 141.578 62.4408V71.5772C142.241 72.4295 143.107 73.1023 144.097 73.5344C145.092 74.0241 146.183 74.2859 147.291 74.3006C148.175 74.3251 149.053 74.1602 149.868 73.8168C150.682 73.4735 151.414 72.9597 152.014 72.3101C153.254 70.9859 153.876 69.205 153.879 66.9674M141.578 93.4563H132V52.001H141.578V55.4823C142.629 54.1374 143.979 53.0554 145.521 52.3218C147.062 51.5883 148.753 51.2232 150.46 51.2555C154.347 51.2555 157.516 52.6436 159.967 55.4198C162.419 58.196 163.646 62.0493 163.648 66.9799C163.648 71.952 162.426 75.8262 159.98 78.6023C157.534 81.3785 154.365 82.7666 150.473 82.7666C146.941 82.7666 143.976 81.3327 141.578 78.4649V93.4563ZM176.366 82.7666C173.312 82.7666 170.972 82.0212 169.345 80.5304C167.718 79.0396 166.911 76.8422 166.922 73.9384V40.57H176.499V71.2691C176.47 72.056 176.724 72.8273 177.216 73.4428C177.442 73.7249 177.732 73.9505 178.06 74.1015C178.389 74.2526 178.749 74.325 179.11 74.3131C180.272 74.3131 181.097 74.0633 181.609 73.5677L183.412 80.7761C181.999 82.1031 179.657 82.7666 176.387 82.7666M204.875 82.0212V78.4149C202.31 81.3161 198.85 82.7666 194.497 82.7666C191.183 82.7666 188.706 81.9338 187.068 80.2681C185.43 78.6023 184.613 76.3134 184.616 73.4012V52.001H194.193V69.4659C194.193 72.6974 195.851 74.3131 199.166 74.3131C201.448 74.3131 203.353 73.3415 204.883 71.3981V52.001H214.461V82.0212H204.875ZM217.118 78.1651L221.115 71.5772C222.566 72.78 224.219 73.7162 225.996 74.3423C227.795 75.0884 229.716 75.4978 231.664 75.5499C234.359 75.5499 235.706 74.8031 235.703 73.3096C235.703 72.6072 235.278 72.0686 234.429 71.6938C233.176 71.2152 231.872 70.8813 230.543 70.6985C229.548 70.5361 228.878 70.4195 228.524 70.3571C228.17 70.2946 227.508 70.153 226.533 69.9407C225.802 69.7872 225.085 69.5684 224.393 69.2869C223.935 69.0786 223.314 68.8121 222.527 68.479C221.854 68.2244 221.247 67.82 220.753 67.2963C220.362 66.841 219.937 66.3233 219.479 65.7431C219.013 65.1382 218.685 64.439 218.517 63.6942C218.325 62.8585 218.231 62.0032 218.238 61.1457C218.238 58.3695 219.378 56.0278 221.657 54.1206C223.936 52.2133 227.087 51.2583 231.11 51.2555C235.615 51.1848 240.022 52.5805 243.665 55.2324L240 61.5705C238.876 60.5546 237.567 59.7644 236.144 59.2426C234.564 58.6047 232.876 58.2767 231.172 58.2765C230.218 58.2323 229.268 58.4254 228.407 58.8387C228.107 58.9589 227.848 59.1639 227.663 59.4287C227.477 59.6934 227.373 60.0064 227.362 60.3295C227.37 60.6594 227.48 60.9787 227.677 61.2434C227.873 61.5082 228.148 61.7054 228.461 61.8078C229.653 62.2629 230.894 62.576 232.159 62.7406C233.608 62.9905 234.728 63.1945 235.516 63.3611C236.613 63.6219 237.693 63.9544 238.747 64.3564C239.897 64.7323 240.97 65.3105 241.916 66.0637C242.756 66.829 243.441 67.7477 243.936 68.7705C244.561 70.0236 244.871 71.41 244.839 72.8098C244.839 75.7498 243.616 78.1429 241.171 79.989C238.725 81.8352 235.393 82.7569 231.176 82.7541C228.506 82.7556 225.852 82.3339 223.314 81.5048C221.041 80.8298 218.935 79.6865 217.13 78.1484M248.858 30.9922H258.432V40.5659H248.858V30.9922ZM258.427 40.5659H268.001V50.1395H258.427V40.5659Z" fill="white"/>
<path d="M248.859 50.1328H258.433V59.7065H248.859V50.1328Z" fill="white"/>
</g>
<g filter="url(#filter1_dd_2200_919)">
<path d="M39.9852 120.693H46.1802V123.465H37.0872V108.765H46.0752V111.537H39.9852V114.666H45.5502V117.396H39.9852V120.693ZM48.0969 123.465V108.135H50.8059V123.465H48.0969ZM70.1484 112.671C71.3524 112.671 72.3114 113.063 73.0254 113.847C73.7534 114.631 74.1174 115.681 74.1174 116.997V123.465H71.4084V117.186C71.4084 116.556 71.2544 116.066 70.9464 115.716C70.6384 115.366 70.2044 115.191 69.6444 115.191C69.0284 115.191 68.5454 115.394 68.1954 115.8C67.8594 116.206 67.6914 116.794 67.6914 117.564V123.465H64.9824V117.186C64.9824 116.556 64.8284 116.066 64.5204 115.716C64.2124 115.366 63.7784 115.191 63.2184 115.191C62.6164 115.191 62.1334 115.394 61.7694 115.8C61.4194 116.206 61.2444 116.794 61.2444 117.564V123.465H58.5354V112.965H61.2444V114.078C61.8744 113.14 62.8474 112.671 64.1634 112.671C65.4514 112.671 66.4034 113.175 67.0194 114.183C67.7194 113.175 68.7624 112.671 70.1484 112.671ZM78.7072 119.328C79.0712 120.644 80.0582 121.302 81.6682 121.302C82.7042 121.302 83.4882 120.952 84.0202 120.252L86.2042 121.512C85.1682 123.01 83.6422 123.759 81.6262 123.759C79.8902 123.759 78.4972 123.234 77.4472 122.184C76.3972 121.134 75.8722 119.811 75.8722 118.215C75.8722 116.633 76.3902 115.317 77.4262 114.267C78.4622 113.203 79.7922 112.671 81.4162 112.671C82.9562 112.671 84.2232 113.203 85.2172 114.267C86.2252 115.331 86.7292 116.647 86.7292 118.215C86.7292 118.565 86.6942 118.936 86.6242 119.328H78.7072ZM78.6652 117.228H84.0202C83.8662 116.514 83.5442 115.982 83.0542 115.632C82.5782 115.282 82.0322 115.107 81.4162 115.107C80.6882 115.107 80.0862 115.296 79.6102 115.674C79.1342 116.038 78.8192 116.556 78.6652 117.228ZM90.2398 111.705C89.7778 111.705 89.3788 111.544 89.0428 111.222C88.7208 110.886 88.5598 110.494 88.5598 110.046C88.5598 109.598 88.7208 109.206 89.0428 108.87C89.3788 108.534 89.7778 108.366 90.2398 108.366C90.6878 108.366 91.0728 108.534 91.3948 108.87C91.7308 109.206 91.8988 109.598 91.8988 110.046C91.8988 110.494 91.7308 110.886 91.3948 111.222C91.0728 111.544 90.6878 111.705 90.2398 111.705ZM88.8748 123.675V112.965H91.5838V123.675C91.5838 125.215 91.2058 126.335 90.4498 127.035C89.7078 127.749 88.5598 128.057 87.0058 127.959V125.355C87.6498 125.397 88.1188 125.285 88.4128 125.019C88.7208 124.753 88.8748 124.305 88.8748 123.675ZM103.001 122.163C101.923 123.227 100.607 123.759 99.0529 123.759C97.4989 123.759 96.1829 123.227 95.1049 122.163C94.0409 121.085 93.5089 119.769 93.5089 118.215C93.5089 116.661 94.0409 115.352 95.1049 114.288C96.1829 113.21 97.4989 112.671 99.0529 112.671C100.607 112.671 101.923 113.21 103.001 114.288C104.079 115.352 104.618 116.661 104.618 118.215C104.618 119.769 104.079 121.085 103.001 122.163ZM97.0159 120.294C97.5619 120.84 98.2409 121.113 99.0529 121.113C99.8649 121.113 100.544 120.84 101.09 120.294C101.636 119.748 101.909 119.055 101.909 118.215C101.909 117.375 101.636 116.682 101.09 116.136C100.544 115.59 99.8649 115.317 99.0529 115.317C98.2409 115.317 97.5619 115.59 97.0159 116.136C96.4839 116.682 96.2179 117.375 96.2179 118.215C96.2179 119.055 96.4839 119.748 97.0159 120.294ZM109.233 114.771C109.485 114.099 109.898 113.595 110.472 113.259C111.06 112.923 111.711 112.755 112.425 112.755V115.779C111.599 115.681 110.857 115.849 110.199 116.283C109.555 116.717 109.233 117.438 109.233 118.446V123.465H106.524V112.965H109.233V114.771ZM125.37 112.671C126.784 112.671 127.988 113.21 128.982 114.288C129.99 115.352 130.494 116.661 130.494 118.215C130.494 119.769 129.99 121.085 128.982 122.163C127.988 123.227 126.784 123.759 125.37 123.759C123.9 123.759 122.766 123.248 121.968 122.226V127.665H119.259V112.965H121.968V114.204C122.766 113.182 123.9 112.671 125.37 112.671ZM122.787 120.357C123.333 120.903 124.026 121.176 124.866 121.176C125.706 121.176 126.399 120.903 126.945 120.357C127.505 119.797 127.785 119.083 127.785 118.215C127.785 117.347 127.505 116.64 126.945 116.094C126.399 115.534 125.706 115.254 124.866 115.254C124.026 115.254 123.333 115.534 122.787 116.094C122.241 116.64 121.968 117.347 121.968 118.215C121.968 119.083 122.241 119.797 122.787 120.357ZM135.114 114.771C135.366 114.099 135.779 113.595 136.353 113.259C136.941 112.923 137.592 112.755 138.306 112.755V115.779C137.48 115.681 136.738 115.849 136.08 116.283C135.436 116.717 135.114 117.438 135.114 118.446V123.465H132.405V112.965H135.114V114.771ZM141.789 119.328C142.153 120.644 143.14 121.302 144.75 121.302C145.786 121.302 146.57 120.952 147.102 120.252L149.286 121.512C148.25 123.01 146.724 123.759 144.708 123.759C142.972 123.759 141.579 123.234 140.529 122.184C139.479 121.134 138.954 119.811 138.954 118.215C138.954 116.633 139.472 115.317 140.508 114.267C141.544 113.203 142.874 112.671 144.498 112.671C146.038 112.671 147.305 113.203 148.299 114.267C149.307 115.331 149.811 116.647 149.811 118.215C149.811 118.565 149.776 118.936 149.706 119.328H141.789ZM141.747 117.228H147.102C146.948 116.514 146.626 115.982 146.136 115.632C145.66 115.282 145.114 115.107 144.498 115.107C143.77 115.107 143.168 115.296 142.692 115.674C142.216 116.038 141.901 116.556 141.747 117.228ZM156.618 123.759C155.036 123.759 153.713 123.227 152.649 122.163C151.599 121.099 151.074 119.783 151.074 118.215C151.074 116.647 151.599 115.331 152.649 114.267C153.713 113.203 155.036 112.671 156.618 112.671C157.64 112.671 158.571 112.916 159.411 113.406C160.251 113.896 160.888 114.554 161.322 115.38L158.991 116.745C158.781 116.311 158.459 115.968 158.025 115.716C157.605 115.464 157.129 115.338 156.597 115.338C155.785 115.338 155.113 115.611 154.581 116.157C154.049 116.689 153.783 117.375 153.783 118.215C153.783 119.041 154.049 119.727 154.581 120.273C155.113 120.805 155.785 121.071 156.597 121.071C157.143 121.071 157.626 120.952 158.046 120.714C158.48 120.462 158.802 120.119 159.012 119.685L161.364 121.029C160.902 121.855 160.251 122.52 159.411 123.024C158.571 123.514 157.64 123.759 156.618 123.759ZM164.141 111.705C163.693 111.705 163.301 111.544 162.965 111.222C162.643 110.886 162.482 110.494 162.482 110.046C162.482 109.598 162.643 109.206 162.965 108.87C163.301 108.534 163.693 108.366 164.141 108.366C164.603 108.366 164.995 108.534 165.317 108.87C165.653 109.206 165.821 109.598 165.821 110.046C165.821 110.494 165.653 110.886 165.317 111.222C164.995 111.544 164.603 111.705 164.141 111.705ZM162.797 123.465V112.965H165.506V123.465H162.797ZM176.932 122.163C175.854 123.227 174.538 123.759 172.984 123.759C171.43 123.759 170.114 123.227 169.036 122.163C167.972 121.085 167.44 119.769 167.44 118.215C167.44 116.661 167.972 115.352 169.036 114.288C170.114 113.21 171.43 112.671 172.984 112.671C174.538 112.671 175.854 113.21 176.932 114.288C178.01 115.352 178.549 116.661 178.549 118.215C178.549 119.769 178.01 121.085 176.932 122.163ZM170.947 120.294C171.493 120.84 172.172 121.113 172.984 121.113C173.796 121.113 174.475 120.84 175.021 120.294C175.567 119.748 175.84 119.055 175.84 118.215C175.84 117.375 175.567 116.682 175.021 116.136C174.475 115.59 173.796 115.317 172.984 115.317C172.172 115.317 171.493 115.59 170.947 116.136C170.415 116.682 170.149 117.375 170.149 118.215C170.149 119.055 170.415 119.748 170.947 120.294ZM193.663 108.765H196.372V123.465H193.663V122.226C192.865 123.248 191.731 123.759 190.261 123.759C188.847 123.759 187.636 123.227 186.628 122.163C185.634 121.085 185.137 119.769 185.137 118.215C185.137 116.661 185.634 115.352 186.628 114.288C187.636 113.21 188.847 112.671 190.261 112.671C191.731 112.671 192.865 113.182 193.663 114.204V108.765ZM188.665 120.357C189.225 120.903 189.925 121.176 190.765 121.176C191.605 121.176 192.298 120.903 192.844 120.357C193.39 119.797 193.663 119.083 193.663 118.215C193.663 117.347 193.39 116.64 192.844 116.094C192.298 115.534 191.605 115.254 190.765 115.254C189.925 115.254 189.225 115.534 188.665 116.094C188.119 116.64 187.846 117.347 187.846 118.215C187.846 119.083 188.119 119.797 188.665 120.357ZM201.139 119.328C201.503 120.644 202.49 121.302 204.1 121.302C205.136 121.302 205.92 120.952 206.452 120.252L208.636 121.512C207.6 123.01 206.074 123.759 204.058 123.759C202.322 123.759 200.929 123.234 199.879 122.184C198.829 121.134 198.304 119.811 198.304 118.215C198.304 116.633 198.822 115.317 199.858 114.267C200.894 113.203 202.224 112.671 203.848 112.671C205.388 112.671 206.655 113.203 207.649 114.267C208.657 115.331 209.161 116.647 209.161 118.215C209.161 118.565 209.126 118.936 209.056 119.328H201.139ZM201.097 117.228H206.452C206.298 116.514 205.976 115.982 205.486 115.632C205.01 115.282 204.464 115.107 203.848 115.107C203.12 115.107 202.518 115.296 202.042 115.674C201.566 116.038 201.251 116.556 201.097 117.228ZM211.052 123.465V108.135H213.761V123.465H211.052ZM233.103 112.671C234.307 112.671 235.266 113.063 235.98 113.847C236.708 114.631 237.072 115.681 237.072 116.997V123.465H234.363V117.186C234.363 116.556 234.209 116.066 233.901 115.716C233.593 115.366 233.159 115.191 232.599 115.191C231.983 115.191 231.5 115.394 231.15 115.8C230.814 116.206 230.646 116.794 230.646 117.564V123.465H227.937V117.186C227.937 116.556 227.783 116.066 227.475 115.716C227.167 115.366 226.733 115.191 226.173 115.191C225.571 115.191 225.088 115.394 224.724 115.8C224.374 116.206 224.199 116.794 224.199 117.564V123.465H221.49V112.965H224.199V114.078C224.829 113.14 225.802 112.671 227.118 112.671C228.406 112.671 229.358 113.175 229.974 114.183C230.674 113.175 231.717 112.671 233.103 112.671ZM241.662 119.328C242.026 120.644 243.013 121.302 244.623 121.302C245.659 121.302 246.443 120.952 246.975 120.252L249.159 121.512C248.123 123.01 246.597 123.759 244.581 123.759C242.845 123.759 241.452 123.234 240.402 122.184C239.352 121.134 238.827 119.811 238.827 118.215C238.827 116.633 239.345 115.317 240.381 114.267C241.417 113.203 242.747 112.671 244.371 112.671C245.911 112.671 247.178 113.203 248.172 114.267C249.18 115.331 249.684 116.647 249.684 118.215C249.684 118.565 249.649 118.936 249.579 119.328H241.662ZM241.62 117.228H246.975C246.821 116.514 246.499 115.982 246.009 115.632C245.533 115.282 244.987 115.107 244.371 115.107C243.643 115.107 243.041 115.296 242.565 115.674C242.089 116.038 241.774 116.556 241.62 117.228ZM254.284 114.771C254.536 114.099 254.949 113.595 255.523 113.259C256.111 112.923 256.762 112.755 257.476 112.755V115.779C256.65 115.681 255.908 115.849 255.25 116.283C254.606 116.717 254.284 117.438 254.284 118.446V123.465H251.575V112.965H254.284V114.771ZM263.669 123.759C262.087 123.759 260.764 123.227 259.7 122.163C258.65 121.099 258.125 119.783 258.125 118.215C258.125 116.647 258.65 115.331 259.7 114.267C260.764 113.203 262.087 112.671 263.669 112.671C264.691 112.671 265.622 112.916 266.462 113.406C267.302 113.896 267.939 114.554 268.373 115.38L266.042 116.745C265.832 116.311 265.51 115.968 265.076 115.716C264.656 115.464 264.18 115.338 263.648 115.338C262.836 115.338 262.164 115.611 261.632 116.157C261.1 116.689 260.834 117.375 260.834 118.215C260.834 119.041 261.1 119.727 261.632 120.273C262.164 120.805 262.836 121.071 263.648 121.071C264.194 121.071 264.677 120.952 265.097 120.714C265.531 120.462 265.853 120.119 266.063 119.685L268.415 121.029C267.953 121.855 267.302 122.52 266.462 123.024C265.622 123.514 264.691 123.759 263.669 123.759ZM277.664 112.965H280.373V123.465H277.664V122.226C276.852 123.248 275.711 123.759 274.241 123.759C272.841 123.759 271.637 123.227 270.629 122.163C269.635 121.085 269.138 119.769 269.138 118.215C269.138 116.661 269.635 115.352 270.629 114.288C271.637 113.21 272.841 112.671 274.241 112.671C275.711 112.671 276.852 113.182 277.664 114.204V112.965ZM272.666 120.357C273.212 120.903 273.905 121.176 274.745 121.176C275.585 121.176 276.278 120.903 276.824 120.357C277.384 119.797 277.664 119.083 277.664 118.215C277.664 117.347 277.384 116.64 276.824 116.094C276.278 115.534 275.585 115.254 274.745 115.254C273.905 115.254 273.212 115.534 272.666 116.094C272.12 116.64 271.847 117.347 271.847 118.215C271.847 119.083 272.12 119.797 272.666 120.357ZM290.788 108.765H293.497V123.465H290.788V122.226C289.99 123.248 288.856 123.759 287.386 123.759C285.972 123.759 284.761 123.227 283.753 122.163C282.759 121.085 282.262 119.769 282.262 118.215C282.262 116.661 282.759 115.352 283.753 114.288C284.761 113.21 285.972 112.671 287.386 112.671C288.856 112.671 289.99 113.182 290.788 114.204V108.765ZM285.79 120.357C286.35 120.903 287.05 121.176 287.89 121.176C288.73 121.176 289.423 120.903 289.969 120.357C290.515 119.797 290.788 119.083 290.788 118.215C290.788 117.347 290.515 116.64 289.969 116.094C289.423 115.534 288.73 115.254 287.89 115.254C287.05 115.254 286.35 115.534 285.79 116.094C285.244 116.64 284.971 117.347 284.971 118.215C284.971 119.083 285.244 119.797 285.79 120.357ZM304.921 122.163C303.843 123.227 302.527 123.759 300.973 123.759C299.419 123.759 298.103 123.227 297.025 122.163C295.961 121.085 295.429 119.769 295.429 118.215C295.429 116.661 295.961 115.352 297.025 114.288C298.103 113.21 299.419 112.671 300.973 112.671C302.527 112.671 303.843 113.21 304.921 114.288C305.999 115.352 306.538 116.661 306.538 118.215C306.538 119.769 305.999 121.085 304.921 122.163ZM298.936 120.294C299.482 120.84 300.161 121.113 300.973 121.113C301.785 121.113 302.464 120.84 303.01 120.294C303.556 119.748 303.829 119.055 303.829 118.215C303.829 117.375 303.556 116.682 303.01 116.136C302.464 115.59 301.785 115.317 300.973 115.317C300.161 115.317 299.482 115.59 298.936 116.136C298.404 116.682 298.138 117.375 298.138 118.215C298.138 119.055 298.404 119.748 298.936 120.294ZM311.173 120.567L309.598 126.405H307.393L308.233 120.567H311.173ZM318.025 123.465V121.302L323.044 116.136C324.164 114.96 324.724 113.98 324.724 113.196C324.724 112.622 324.542 112.16 324.178 111.81C323.828 111.46 323.373 111.285 322.813 111.285C321.707 111.285 320.888 111.859 320.356 113.007L317.92 111.579C318.382 110.571 319.047 109.801 319.915 109.269C320.783 108.737 321.735 108.471 322.771 108.471C324.101 108.471 325.242 108.891 326.194 109.731C327.146 110.557 327.622 111.677 327.622 113.091C327.622 114.617 326.817 116.185 325.207 117.795L322.33 120.672H327.853V123.465H318.025ZM340.234 118.278V120.966H338.659V123.465H335.74V120.966H328.789V118.278L333.682 108.765H336.79L331.918 118.278H335.74V114.792H338.659V118.278H340.234ZM342.42 125.565H341.223L349.623 106.665H350.82L342.42 125.565ZM351.795 108.765H361.287V111.222L356.31 123.465H353.244L358.074 111.537H351.795V108.765ZM362.733 123.213C362.383 123.563 361.963 123.738 361.473 123.738C360.983 123.738 360.563 123.563 360.213 123.213C359.863 122.863 359.688 122.443 359.688 121.953C359.688 121.463 359.863 121.043 360.213 120.693C360.563 120.343 360.983 120.168 361.473 120.168C361.963 120.168 362.383 120.343 362.733 120.693C363.083 121.043 363.258 121.463 363.258 121.953C363.258 122.443 363.083 122.863 362.733 123.213Z" fill="white"/>
</g>
<g opacity="0.5">
<path d="M184.302 202.386C184.717 202.385 185.053 202.047 185.053 201.633V201.611V201.589V201.567V201.545V201.523V201.501V201.479V201.457V201.435V201.413V201.392V201.37V201.348V201.326V201.304V201.282V201.26V201.238V201.216V201.194V201.172V201.15V201.128V201.106V201.084V201.063V201.041V201.019V200.997V200.975V200.953V200.931V200.909V200.887V200.865V200.843V200.821V200.799V200.777V200.756V200.734V200.712V200.69V200.668V200.646V200.624V200.602V200.58V200.558V200.536V200.514V200.492V200.47V200.448V200.427V200.405V200.383V200.361V200.339V200.317V200.295V200.273V200.251V200.229V200.207V200.185V200.163V200.141V200.12V200.098V200.076V200.054V200.032V200.01V199.988V199.966V199.944V199.922V199.9V199.878V199.856V199.834V199.812V199.791V199.769V199.747V199.725V199.703V199.681V199.659V199.637V199.615V199.593V199.571V199.549V199.527V199.505V199.484V199.462V199.44V199.418V199.396V199.374V199.352V199.33V199.308V199.286V199.264V199.242V199.22V199.198V199.177V199.155V199.133V199.111V199.089V199.067V199.045V199.023V199.001V198.979V198.957V198.935V198.913V198.891V198.87V198.848V198.826V198.804V198.782V198.76V198.738V198.716V198.694V198.672V198.65V198.628V198.606V198.585V198.563V198.541V198.519V198.497V198.475V198.453V198.431V198.409V198.387V198.365V198.343V198.321V198.299V198.278V198.256V198.234V198.212V198.19V198.168V198.146V198.124V198.102V198.08V198.058V198.036V198.014V197.992V197.971V197.949V197.927V197.905V197.883V197.861V197.839V197.817V197.795V197.773V197.751V197.729V197.707V197.685V197.664V197.642V197.62V197.598V197.576V197.554V197.532V197.51V197.488V197.466V197.444V197.422V197.4V197.379V197.357V197.335V197.313V197.291V197.269V197.247V197.225V197.203V197.181V197.159V197.137V197.115V197.093V197.072V197.05V197.028V197.006V196.984V196.962V196.94V196.918V196.896V196.874V196.852V196.83V196.808V196.787V196.765V196.743V196.721V196.699V196.677V196.655V196.633V196.611V196.589V196.567V196.545V196.523V196.501V196.48V196.458V196.436V196.414V196.392V196.37V196.348V196.326V196.304V196.282V196.26V196.238V196.216V196.194V196.173V196.151V196.129V196.107V196.085V196.063V196.041V196.019V195.997V195.975V195.953V195.931V195.909V195.888V195.866V195.844V195.822V195.8V195.778V195.756V195.734V195.712V195.69V195.668V195.646V195.624V195.602V195.581V195.559V195.537V195.515V195.493V195.471V195.449V195.427V195.405V195.383V195.361V195.339V195.317V195.296V195.274V195.252V195.23V195.208V195.186V195.164V195.142V195.12V195.098V195.076V195.054V195.032V195.01V194.989V194.967V194.945V194.923V194.901V194.879V194.857V194.835V194.813V194.791V194.769V194.747V194.725V194.704V194.682V194.66V194.638V194.616V194.594V194.572V194.55V194.528V194.506V194.484V194.462V194.44V194.418V194.397V194.375V194.353V194.331V194.309V194.287V194.265V194.243V194.221V194.199V194.177V194.155V194.133V194.111V194.09V194.068V194.046V194.024V194.002V193.98V193.958V193.936V193.914V193.892V193.87V193.848V193.826V193.805V193.783V193.761V193.739V193.717V193.695V193.673V193.651V193.629V193.607V193.585V193.563V193.541V193.519V193.498V193.476V193.454V193.432V193.41V193.388V193.366V193.344V193.322V193.3V193.278V193.256V193.234V193.212V193.191V193.169V193.147V193.125V193.103V193.081V193.059V193.037V193.015V192.993V192.971V192.949V192.927V192.905V192.884V192.862V192.84V192.818V192.796V192.774V192.752V192.73V192.708V192.686V192.664V192.642V192.62V192.598V192.577V192.555V192.533V192.511V192.489V192.467V192.445V192.423V192.401V192.379V192.357V192.335V192.313V192.291V192.27V192.248V192.226V192.204V192.182V192.16V192.138V192.116V192.094V192.072V192.05V192.028V192.006V191.984V191.963V191.941V191.919V191.897V191.875V191.853V191.831V191.809V191.787V191.765V191.743V191.721V191.699V191.677V191.655V191.634V191.612V191.59V191.568V191.546V191.524V191.502V191.48V191.458V191.436V191.414V191.392V191.37V191.348V191.327V191.305V191.283V191.261V191.239V191.217V191.195V191.173V191.151V191.129V191.107V191.085V191.063V191.041V191.019V190.998V190.976V190.954V190.932V190.91V190.888V190.866V190.844V190.822V190.8V190.778V190.756V190.734V190.712V190.691V190.669V190.647V190.625V190.603V190.581V190.559V190.537V190.515V190.493V190.471V190.449V190.427V190.405C185.053 189.99 184.715 189.652 184.3 189.652L184.297 189.652L159.253 192.286V191.786C159.252 191.786 159.252 191.786 159.251 191.786C158.834 191.787 158.5 192.127 158.5 192.541V203.766C158.5 204.181 158.838 204.519 159.253 204.519L159.256 204.519C163.458 204.493 167.654 203.97 171.816 203.451L171.839 203.448C176.018 202.927 180.162 202.411 184.302 202.386ZM184.302 202.386C184.302 202.386 184.301 202.386 184.3 202.386V201.886L184.303 202.386C184.303 202.386 184.303 202.386 184.302 202.386Z" stroke="white" stroke-miterlimit="10"/>
<path d="M171.694 192.815L171.693 192.815C169.366 193.112 167.48 195.204 167.48 197.546C167.48 199.936 169.434 201.661 171.819 201.361L171.819 201.361C174.147 201.067 176.032 198.972 176.032 196.63C176.032 194.24 174.078 192.515 171.694 192.815Z" stroke="white" stroke-miterlimit="10"/>
<path d="M165.639 197.9C165.639 198.902 164.838 199.782 163.831 199.859C162.792 199.939 161.942 199.134 161.945 198.102M165.639 197.9C165.642 196.856 164.781 196.087 163.754 196.166C162.756 196.242 161.946 197.091 161.945 198.102M165.639 197.9C165.639 197.901 165.639 197.901 165.639 197.901L165.139 197.9H165.639C165.639 197.9 165.639 197.9 165.639 197.9ZM161.945 198.102C161.945 198.102 161.945 198.103 161.945 198.103H162.445L161.945 198.101C161.945 198.102 161.945 198.102 161.945 198.102Z" stroke="white" stroke-miterlimit="10"/>
<path d="M181.069 196.19C181.069 196.934 180.466 197.572 179.722 197.632C178.978 197.689 178.373 197.143 178.375 196.399C178.375 195.654 178.978 194.992 179.722 194.938C180.466 194.88 181.069 195.449 181.069 196.193V196.19Z" stroke="white" stroke-miterlimit="10"/>
<path d="M173.537 197.684C173.54 198.324 173.185 198.876 172.661 199.204V199.204V199.205V199.206V199.207V199.208V199.209V199.209V199.21V199.211V199.212V199.213V199.214V199.215V199.216V199.216V199.217V199.218V199.219V199.22V199.221V199.222V199.223V199.223V199.224V199.225V199.226V199.227V199.228V199.229V199.23V199.23V199.231V199.232V199.233V199.234V199.235V199.236V199.237V199.238V199.238V199.239V199.24V199.241V199.242V199.243V199.244V199.245V199.245V199.246V199.247V199.248V199.249V199.25V199.251V199.252V199.252V199.253V199.254V199.255V199.256V199.257V199.258V199.259V199.259V199.26V199.261V199.262V199.263V199.264V199.265V199.266V199.266V199.267V199.268V199.269V199.27V199.271V199.272V199.273V199.273V199.274V199.275V199.276V199.277V199.278V199.279V199.28V199.28V199.281V199.282V199.283V199.284V199.285V199.286V199.287V199.287V199.288V199.289V199.29V199.291V199.292V199.293V199.294V199.294V199.295V199.296V199.297V199.298V199.299V199.3V199.301V199.301V199.302V199.303V199.304V199.305V199.306V199.307V199.308V199.308V199.309V199.31V199.311V199.312V199.313V199.314V199.315V199.315V199.316V199.317V199.318V199.319V199.32V199.321V199.322V199.322V199.323V199.324V199.325V199.326V199.327V199.328V199.329V199.329V199.33V199.331V199.332V199.333V199.334V199.335V199.336V199.336V199.337V199.338V199.339V199.34V199.341V199.342V199.343V199.343V199.344V199.345V199.346V199.347V199.348V199.349V199.35C172.661 199.704 172.387 199.989 172.06 200.034L172.054 200.034L172.054 200.034L171.843 200.06L171.634 200.086C171.261 200.134 170.927 199.861 170.904 199.487C170.727 199.45 170.557 199.391 170.408 199.308C170.394 199.301 170.383 199.295 170.375 199.29C170.365 199.284 170.355 199.278 170.349 199.274C170.062 199.096 169.998 198.759 170.082 198.507L170.085 198.498L170.085 198.498C170.139 198.347 170.19 198.198 170.242 198.046L170.243 198.041L170.243 198.041C170.316 197.832 170.509 197.645 170.745 197.588C170.703 197.56 170.661 197.531 170.621 197.499C170.313 197.254 170.104 196.893 170.104 196.405C170.104 195.782 170.438 195.257 170.942 194.941V194.812C170.942 194.458 171.217 194.173 171.544 194.128L171.548 194.128L171.548 194.128C171.685 194.11 171.824 194.093 171.963 194.076L172.025 194.572L171.96 194.076C172.334 194.027 172.66 194.296 172.691 194.661C172.806 194.689 172.917 194.728 173.025 194.779L173.06 194.795L173.064 194.798C173.396 194.96 173.483 195.333 173.38 195.612L173.299 195.837L173.217 196.064L173.216 196.066L173.216 196.066C173.161 196.218 173.046 196.353 172.899 196.437C172.949 196.471 172.998 196.509 173.045 196.55C173.342 196.81 173.537 197.185 173.537 197.684ZM173.537 197.684C173.537 197.684 173.537 197.685 173.537 197.685H173.037L173.537 197.683C173.537 197.683 173.537 197.683 173.537 197.684Z" stroke="white" stroke-miterlimit="10"/>
<path d="M231.888 205.486C232.287 205.485 232.61 205.161 232.61 204.763V204.743V204.724V204.705V204.685V204.666V204.646V204.627V204.608V204.588V204.569V204.549V204.53V204.511V204.491V204.472V204.452V204.433V204.414V204.394V204.375V204.356V204.336V204.317V204.297V204.278V204.259V204.239V204.22V204.2V204.181V204.162V204.142V204.123V204.103V204.084V204.065V204.045V204.026V204.007V203.987V203.968V203.948V203.929V203.91V203.89V203.871V203.851V203.832V203.813V203.793V203.774V203.754V203.735V203.716V203.696V203.677V203.658V203.638V203.619V203.599V203.58V203.561V203.541V203.522V203.502V203.483V203.464V203.444V203.425V203.406V203.386V203.367V203.347V203.328V203.309V203.289V203.27V203.25V203.231V203.212V203.192V203.173V203.153V203.134V203.115V203.095V203.076V203.057V203.037V203.018V202.998V202.979V202.96V202.94V202.921V202.901V202.882V202.863V202.843V202.824V202.805V202.785V202.766V202.746V202.727V202.708V202.688V202.669V202.649V202.63V202.611V202.591V202.572V202.552V202.533V202.514V202.494V202.475V202.456V202.436V202.417V202.397V202.378V202.359V202.339V202.32V202.3V202.281V202.262V202.242V202.223V202.204V202.184V202.165V202.145V202.126V202.107V202.087V202.068V202.048V202.029V202.01V201.99V201.971V201.952V201.932V201.913V201.893V201.874V201.855V201.835V201.816V201.796V201.777V201.758V201.738V201.719V201.7V201.68V201.661V201.641V201.622V201.603V201.583V201.564V201.544V201.525V201.506V201.486V201.467V201.448V201.428V201.409V201.389V201.37V201.351V201.331V201.312V201.292V201.273V201.254V201.234V201.215V201.196V201.176V201.157V201.137V201.118V201.099V201.079V201.06V201.04V201.021V201.002V200.982V200.963V200.944V200.924V200.905V200.885V200.866V200.847V200.827V200.808V200.788V200.769V200.75V200.73V200.711V200.692V200.672V200.653V200.633V200.614V200.595V200.575V200.556V200.536V200.517V200.498V200.478V200.459V200.44V200.42V200.401V200.381V200.362V200.343V200.323V200.304V200.284V200.265V200.246V200.226V200.207V200.188V200.168V200.149V200.129V200.11V200.091V200.071V200.052V200.032V200.013V199.994V199.974V199.955V199.936V199.916V199.897V199.877V199.858V199.839V199.819V199.8V199.78V199.761V199.742V199.722V199.703V199.684V199.664V199.645V199.625V199.606V199.587V199.567V199.548V199.528V199.509V199.49V199.47V199.451V199.432V199.412V199.393V199.373V199.354V199.335V199.315V199.296V199.276V199.257V199.238V199.218V199.199V199.18V199.16V199.141V199.121V199.102V199.083V199.063V199.044V199.024V199.005V198.986V198.966V198.947V198.928V198.908V198.889V198.869V198.85V198.831V198.811V198.792V198.772V198.753V198.734V198.714V198.695V198.676V198.656V198.637V198.617V198.598V198.579V198.559V198.54V198.52V198.501V198.482V198.462V198.443V198.424V198.404V198.385V198.365V198.346V198.327V198.307V198.288V198.268V198.249V198.23V198.21V198.191V198.172V198.152V198.133V198.113V198.094V198.075V198.055V198.036V198.016V197.997V197.978V197.958V197.939V197.92V197.9V197.881V197.861V197.842V197.823V197.803V197.784V197.764V197.745V197.726V197.706V197.687V197.668V197.648V197.629V197.609V197.59V197.571V197.551V197.532V197.512V197.493V197.474V197.454V197.435V197.416V197.396V197.377V197.357V197.338V197.319V197.299V197.28V197.26V197.241V197.222V197.202V197.183V197.164V197.144V197.125V197.105V197.086V197.067V197.047V197.028V197.008V196.989V196.97V196.95V196.931V196.912V196.892V196.873V196.853V196.834V196.815V196.795V196.776V196.756V196.737V196.718V196.698V196.679V196.659V196.64V196.621V196.601V196.582V196.563V196.543V196.524V196.504V196.485V196.466V196.446V196.427V196.407V196.388V196.369V196.349V196.33V196.311V196.291V196.272V196.252V196.233V196.214V196.194V196.175V196.155V196.136V196.117V196.097V196.078V196.058V196.039V196.02V196V195.981V195.962V195.942V195.923V195.903V195.884V195.865V195.845V195.826V195.806V195.787V195.768V195.748V195.729V195.709V195.69V195.671V195.651V195.632V195.613V195.593V195.574V195.554V195.535V195.516V195.496V195.477V195.457V195.438V195.419V195.399V195.38V195.36V195.341V195.322V195.302V195.283V195.264V195.244V195.225V195.205V195.186V195.167V195.147V195.128V195.108V195.089V195.07V195.05V195.031V195.011V194.992V194.973V194.953V194.934V194.915V194.895V194.876V194.856V194.837C232.61 194.438 232.286 194.113 231.887 194.113L231.884 194.113L209.743 196.499V195.999C209.743 195.999 209.742 195.999 209.741 195.999C209.34 196 209.02 196.328 209.02 196.725V206.649C209.02 207.048 209.344 207.372 209.743 207.372L209.746 207.372C213.465 207.349 217.177 206.886 220.855 206.427L220.877 206.425C224.572 205.964 228.232 205.508 231.888 205.486ZM231.888 205.486C231.888 205.486 231.887 205.486 231.887 205.486V204.987L231.89 205.486C231.889 205.486 231.889 205.486 231.888 205.486Z" stroke="white" stroke-miterlimit="10"/>
<path d="M220.74 196.913L220.74 196.913C218.654 197.179 216.965 199.053 216.965 201.153C216.965 203.301 218.723 204.853 220.865 204.583L220.865 204.583C222.952 204.32 224.641 202.443 224.641 200.344C224.641 198.195 222.882 196.643 220.74 196.913Z" stroke="white" stroke-miterlimit="10"/>
<path d="M215.448 201.468C215.448 202.383 214.717 203.186 213.795 203.257C212.843 203.33 212.064 202.591 212.066 201.646M215.448 201.468C215.451 200.51 214.659 199.804 213.719 199.876C212.807 199.946 212.067 200.721 212.066 201.646M215.448 201.468C215.448 201.468 215.448 201.468 215.448 201.469L214.948 201.467H215.448C215.448 201.467 215.448 201.467 215.448 201.468ZM212.066 201.646C212.066 201.646 212.066 201.646 212.066 201.647H212.566L212.066 201.645C212.066 201.645 212.066 201.646 212.066 201.646Z" stroke="white" stroke-miterlimit="10"/>
<path d="M227.878 201.727L227.878 201.727C226.939 201.799 226.146 201.097 226.148 200.138M227.878 201.727L229.53 199.955C229.529 199.012 228.754 198.276 227.802 198.349C226.878 198.417 226.149 199.224 226.148 200.138M227.878 201.727L227.879 201.727M227.878 201.727L227.879 201.727M226.148 200.138C226.148 200.138 226.148 200.139 226.148 200.139H226.648L226.148 200.137C226.148 200.138 226.148 200.138 226.148 200.138ZM227.879 201.727C228.789 201.655 229.529 200.882 229.53 199.957L227.879 201.727Z" stroke="white" stroke-miterlimit="10"/>
<path d="M221.033 198.525L220.968 198.029C221.318 197.983 221.625 198.223 221.675 198.557C221.766 198.582 221.855 198.614 221.942 198.655L221.976 198.671L221.981 198.674C222.302 198.833 222.385 199.195 222.286 199.464L222.214 199.663L222.142 199.863L222.141 199.865L222.141 199.865C222.097 199.986 222.014 200.095 221.907 200.176C221.93 200.193 221.952 200.211 221.973 200.23C222.249 200.471 222.428 200.819 222.428 201.277H221.928L222.428 201.275C222.431 201.853 222.117 202.351 221.654 202.652V202.652V202.653V202.653V202.654V202.655V202.656V202.657V202.657V202.658V202.659V202.66V202.66V202.661V202.662V202.663V202.663V202.664V202.665V202.666V202.667V202.667V202.668V202.669V202.67V202.67V202.671V202.672V202.673V202.674V202.674V202.675V202.676V202.677V202.677V202.678V202.679V202.68V202.681V202.681V202.682V202.683V202.684V202.684V202.685V202.686V202.687V202.688V202.688V202.689V202.69V202.691V202.691V202.692V202.693V202.694V202.694V202.695V202.696V202.697V202.698V202.698V202.699V202.7V202.701V202.701V202.702V202.703V202.704V202.705V202.705V202.706V202.707V202.708V202.708V202.709V202.71V202.711V202.712V202.712V202.713V202.714V202.715V202.715V202.716V202.717V202.718V202.718V202.719V202.72V202.721V202.722V202.722V202.723V202.724V202.725V202.725V202.726V202.727V202.728V202.729V202.729V202.73V202.731V202.732V202.732V202.733V202.734V202.735V202.735V202.736V202.737V202.738V202.739V202.739V202.74V202.741V202.742V202.742V202.743V202.744V202.745V202.745V202.746V202.747V202.748V202.749C221.654 203.093 221.388 203.368 221.072 203.411L221.066 203.412L221.066 203.412L220.88 203.434L220.695 203.457C220.347 203.502 220.034 203.259 219.988 202.917C219.843 202.884 219.702 202.833 219.577 202.763C219.564 202.756 219.553 202.75 219.545 202.746C219.536 202.74 219.527 202.735 219.52 202.73C219.24 202.557 219.179 202.229 219.261 201.985L219.264 201.976L219.264 201.976C219.311 201.843 219.356 201.712 219.402 201.577L219.403 201.573L219.403 201.573C219.462 201.406 219.6 201.252 219.776 201.173C219.769 201.168 219.763 201.163 219.756 201.158C219.471 200.931 219.277 200.596 219.277 200.145C219.277 199.583 219.573 199.11 220.018 198.819V198.737C220.018 198.393 220.284 198.118 220.6 198.075L220.604 198.075L220.604 198.075C220.725 198.059 220.849 198.044 220.971 198.029L221.033 198.525ZM221.033 198.525C221.117 198.514 221.182 198.573 221.182 198.654L221.033 198.525Z" stroke="white" stroke-miterlimit="10"/>
<path d="M189.683 153.636C190.039 153.635 190.329 153.345 190.329 152.989V152.976V152.963V152.95V152.938V152.925V152.912V152.899V152.887V152.874V152.861V152.848V152.836V152.823V152.81V152.797V152.784V152.772V152.759V152.746V152.733V152.721V152.708V152.695V152.682V152.67V152.657V152.644V152.631V152.619V152.606V152.593V152.58V152.568V152.555V152.542V152.529V152.517V152.504V152.491V152.478V152.466V152.453V152.44V152.427V152.415V152.402V152.389V152.376V152.364V152.351V152.338V152.325V152.313V152.3V152.287V152.274V152.262V152.249V152.236V152.223V152.211V152.198V152.185V152.172V152.16V152.147V152.134V152.121V152.109V152.096V152.083V152.07V152.058V152.045V152.032V152.019V152.007V151.994V151.981V151.968V151.956V151.943V151.93V151.917V151.905V151.892V151.879V151.866V151.854V151.841V151.828V151.815V151.803V151.79V151.777V151.764V151.752V151.739V151.726V151.713V151.7V151.688V151.675V151.662V151.649V151.637V151.624V151.611V151.598V151.586V151.573V151.56V151.547V151.535V151.522V151.509V151.496V151.484V151.471V151.458V151.445V151.433V151.42V151.407V151.394V151.382V151.369V151.356V151.343V151.331V151.318V151.305V151.292V151.28V151.267V151.254V151.241V151.229V151.216V151.203V151.19V151.178V151.165V151.152V151.139V151.127V151.114V151.101V151.088V151.076V151.063V151.05V151.037V151.025V151.012V150.999V150.986V150.974V150.961V150.948V150.935V150.923V150.91V150.897V150.884V150.872V150.859V150.846V150.833V150.821V150.808V150.795V150.782V150.77V150.757V150.744V150.731V150.719V150.706V150.693V150.68V150.668V150.655V150.642V150.629V150.617V150.604V150.591V150.578V150.566V150.553V150.54V150.527V150.515V150.502V150.489V150.476V150.464V150.451V150.438V150.425V150.413V150.4V150.387V150.374V150.362V150.349V150.336V150.323V150.311V150.298V150.285V150.272V150.26V150.247V150.234V150.221V150.209V150.196V150.183V150.17V150.158V150.145V150.132V150.119V150.107V150.094V150.081V150.068V150.056V150.043V150.03V150.017V150.005V149.992V149.979V149.966V149.954V149.941V149.928V149.915V149.903V149.89V149.877V149.864V149.852V149.839V149.826V149.813V149.801V149.788V149.775V149.762V149.75V149.737V149.724V149.711V149.699V149.686V149.673V149.66V149.648V149.635V149.622V149.609V149.597V149.584V149.571V149.558V149.546V149.533V149.52V149.507V149.495V149.482V149.469V149.456V149.444V149.431V149.418V149.405V149.393V149.38V149.367V149.354V149.342V149.329V149.316V149.303V149.291V149.278V149.265V149.252V149.24V149.227V149.214V149.201V149.189V149.176V149.163V149.15V149.138V149.125V149.112V149.099V149.087V149.074V149.061V149.048V149.036V149.023V149.01V148.997V148.985V148.972V148.959V148.946V148.934V148.921V148.908V148.895V148.883V148.87V148.857V148.844V148.832V148.819V148.806V148.793V148.781V148.768V148.755V148.742V148.73V148.717V148.704V148.691V148.679V148.666V148.653V148.64V148.628V148.615V148.602V148.589V148.577V148.564V148.551V148.538V148.526V148.513V148.5V148.487V148.475V148.462V148.449V148.436V148.424V148.411V148.398V148.385V148.373V148.36V148.347V148.334V148.322V148.309V148.296V148.283V148.271V148.258V148.245V148.232V148.22V148.207V148.194V148.181V148.169V148.156V148.143V148.13V148.118V148.105V148.092V148.079V148.067V148.054V148.041V148.028V148.015V148.003V147.99V147.977V147.964V147.952V147.939V147.926V147.913V147.901V147.888V147.875V147.862V147.85V147.837V147.824V147.811V147.799V147.786V147.773V147.76V147.748V147.735V147.722V147.709V147.697V147.684V147.671V147.658V147.646V147.633V147.62V147.607V147.595V147.582V147.569V147.556V147.544V147.531V147.518V147.505V147.493V147.48V147.467V147.454V147.442V147.429V147.416V147.403V147.391V147.378V147.365V147.352V147.34V147.327V147.314V147.301V147.289V147.276V147.263V147.25V147.238V147.225V147.212V147.199V147.187V147.174V147.161V147.148V147.136V147.123V147.11V147.097V147.085V147.072V147.059V147.046V147.034V147.021V147.008V146.995V146.983V146.97V146.957V146.944V146.932V146.919V146.906V146.893V146.881V146.868V146.855V146.842V146.83V146.817V146.804V146.791V146.778V146.766V146.753V146.74V146.727V146.715V146.702V146.689V146.676V146.664V146.651V146.638V146.625V146.613V146.6V146.587V146.574V146.562V146.549V146.536V146.523V146.511V146.498V146.485V146.472V146.46C190.329 146.103 190.038 145.812 189.681 145.812L189.678 145.813L175.116 147.553V147.053C175.115 147.053 175.115 147.053 175.114 147.053C174.755 147.054 174.469 147.347 174.469 147.702V154.229C174.469 154.586 174.759 154.876 175.116 154.876L175.119 154.876C177.575 154.861 180.025 154.555 182.441 154.254L182.461 154.252C184.893 153.948 187.29 153.65 189.683 153.636ZM189.683 153.636C189.683 153.636 189.682 153.636 189.681 153.636V153.136L189.684 153.636C189.684 153.636 189.684 153.636 189.683 153.636Z" stroke="white" stroke-miterlimit="10"/>
<path d="M182.328 147.65L182.328 147.65C180.873 147.836 179.695 149.139 179.695 150.609C179.695 152.125 180.942 153.225 182.453 153.035L182.453 153.035C183.91 152.851 185.086 151.546 185.086 150.076C185.086 148.56 183.839 147.46 182.328 147.65Z" stroke="white" stroke-miterlimit="10"/>
<path d="M179.043 150.815C179.043 151.506 178.495 152.109 177.798 152.163C177.071 152.218 176.475 151.652 176.477 150.932M179.043 150.815C179.045 150.083 178.437 149.543 177.722 149.598C177.035 149.65 176.477 150.232 176.477 150.932M179.043 150.815C179.043 150.816 179.043 150.816 179.043 150.816L178.543 150.815H179.043C179.043 150.815 179.043 150.815 179.043 150.815ZM176.477 150.932C176.477 150.932 176.477 150.931 176.477 150.931L176.977 150.933H176.477C176.477 150.933 176.477 150.932 176.477 150.932Z" stroke="white" stroke-miterlimit="10"/>
<path d="M187.06 151.157L187.06 151.157C186.346 151.212 185.736 150.675 185.738 149.941M187.06 151.157L187.805 149.821C187.804 149.389 187.454 149.059 187.022 149.092C186.589 149.124 186.238 149.509 186.238 149.942M187.06 151.157L187.061 151.157C187.746 151.102 188.304 150.522 188.305 149.822M187.06 151.157L188.305 149.822M185.738 149.941C185.739 149.252 186.285 148.645 186.984 148.594C187.711 148.538 188.304 149.102 188.305 149.821C188.305 149.821 188.305 149.822 188.305 149.822M185.738 149.941C185.738 149.941 185.738 149.942 185.738 149.942H186.238M185.738 149.941C185.738 149.941 185.738 149.94 185.738 149.94L186.238 149.942M188.305 149.822H187.805C187.804 150.254 187.454 150.624 187.022 150.659C186.589 150.692 186.237 150.375 186.238 149.942" stroke="white" stroke-miterlimit="10"/>
<path d="M183.136 150.69H183.636C183.636 150.388 183.532 150.142 183.364 149.957C183.395 149.914 183.419 149.868 183.436 149.82L183.436 149.82L183.437 149.818L183.485 149.686L183.532 149.556C183.621 149.313 183.549 148.981 183.257 148.83L183.252 148.826L183.217 148.81C183.182 148.794 183.147 148.78 183.111 148.767C183.022 148.515 182.767 148.347 182.482 148.384L182.547 148.88L182.485 148.384L182.485 148.384C182.404 148.394 182.323 148.404 182.243 148.414L182.243 148.414L182.239 148.415C181.962 148.452 181.726 148.685 181.709 148.984C181.416 149.206 181.22 149.545 181.22 149.946C181.22 150.215 181.311 150.435 181.454 150.605C181.39 150.67 181.341 150.748 181.313 150.828L181.313 150.828L181.312 150.833C181.282 150.921 181.253 151.006 181.222 151.093L181.222 151.093L181.219 151.102C181.145 151.323 181.199 151.628 181.461 151.791C181.466 151.794 181.473 151.799 181.482 151.804C181.489 151.808 181.498 151.813 181.509 151.819C181.575 151.855 181.645 151.885 181.718 151.908C181.806 152.162 182.064 152.33 182.346 152.294L182.467 152.279L182.589 152.264L182.589 152.264L182.595 152.263C182.876 152.225 183.113 151.988 183.126 151.684C183.431 151.454 183.638 151.1 183.636 150.688L183.136 150.69ZM183.136 150.69C183.136 150.465 183.044 150.321 182.918 150.224L183.136 150.69ZM181.693 151.366C181.693 151.366 181.693 151.366 181.694 151.366L181.693 151.366Z" stroke="white" stroke-miterlimit="10"/>
<path d="M248.632 140C236.462 140.075 224.289 143.036 212.119 143.111C211.915 143.111 211.75 143.276 211.75 143.484V159.85C211.75 160.054 211.915 160.218 212.119 160.218C224.289 160.143 236.462 157.182 248.632 157.107C248.836 157.107 249.001 156.939 249.001 156.735V140.369C249.001 140.165 248.836 140 248.632 140Z" stroke="white" stroke-miterlimit="10"/>
<path d="M235.854 149.443C235.854 152.479 233.39 155.233 230.347 155.616C227.307 155.999 224.844 153.822 224.844 150.779C224.844 147.739 227.307 144.989 230.347 144.606C233.387 144.223 235.85 146.4 235.854 149.443Z" stroke="white" stroke-miterlimit="10"/>
<path d="M220.705 151.291C220.705 152.376 219.824 153.339 218.739 153.421C217.654 153.504 216.773 152.677 216.773 151.588C216.773 150.503 217.654 149.573 218.739 149.49C219.824 149.408 220.705 150.203 220.705 151.291Z" stroke="white" stroke-miterlimit="10"/>
<path d="M243.923 148.804C243.923 149.889 243.043 150.82 241.958 150.902C240.869 150.988 239.992 150.19 239.992 149.105C239.992 148.02 240.873 147.057 241.958 146.974C243.043 146.892 243.923 147.719 243.923 148.804Z" stroke="white" stroke-miterlimit="10"/>
<path d="M230.777 149.404C230.075 149.203 229.957 149.071 229.957 148.86C229.957 148.767 229.996 148.455 230.515 148.391C230.973 148.333 231.263 148.462 231.385 148.519C231.403 148.527 231.421 148.534 231.439 148.545C231.568 148.602 231.736 148.523 231.79 148.376C231.869 148.154 231.951 147.936 232.03 147.714C232.073 147.596 232.03 147.478 231.926 147.427C231.915 147.42 231.901 147.417 231.886 147.41C231.614 147.284 231.317 147.223 230.981 147.22V146.658C230.981 146.522 230.873 146.429 230.737 146.443C230.537 146.468 230.333 146.493 230.132 146.518C229.996 146.536 229.885 146.658 229.889 146.794L229.889 147.424C229.137 147.732 228.668 148.373 228.668 149.114C228.668 150.063 229.437 150.399 230.189 150.6C230.794 150.768 230.92 150.961 230.916 151.198C230.916 151.495 230.648 151.727 230.25 151.778C229.903 151.821 229.531 151.756 229.251 151.606C229.233 151.595 229.215 151.584 229.194 151.577C229.062 151.505 228.883 151.588 228.829 151.745C228.754 151.967 228.675 152.193 228.6 152.415C228.564 152.522 228.6 152.633 228.689 152.687C228.7 152.694 228.711 152.701 228.721 152.705C228.997 152.866 229.412 152.959 229.835 152.956V153.546C229.835 153.682 229.946 153.779 230.078 153.761C230.282 153.736 230.487 153.711 230.691 153.686C230.827 153.668 230.938 153.546 230.934 153.41V152.755C231.707 152.436 232.212 151.753 232.212 150.983C232.212 149.948 231.442 149.597 230.777 149.407V149.404Z" stroke="white" stroke-miterlimit="10"/>
<path d="M242.655 153.027C217.425 153.184 192.194 159.646 166.967 159.802C166.545 159.802 166.199 160.148 166.199 160.57V194.494C166.199 194.92 166.541 195.262 166.967 195.258C192.198 195.101 217.429 188.64 242.655 188.483C243.082 188.483 243.419 188.137 243.419 187.715V153.787C243.419 153.365 243.078 153.023 242.655 153.023V153.027Z" fill="#0A0A0A" stroke="#0A0A0A" stroke-width="0.87" stroke-miterlimit="10"/>
<path d="M242.651 151.156C217.421 151.313 192.19 157.775 166.963 157.931C166.541 157.931 166.195 158.277 166.195 158.699L166.195 192.623C166.195 193.045 166.537 193.391 166.963 193.387C192.194 193.226 217.425 186.769 242.651 186.612C243.078 186.612 243.415 186.266 243.415 185.844V151.916C243.415 151.494 243.074 151.152 242.651 151.152V151.156Z" fill="white"/>
<path d="M242.651 151.156C217.421 151.313 192.19 157.775 166.963 157.931C166.541 157.931 166.195 158.277 166.195 158.699L166.195 192.623C166.195 193.045 166.537 193.391 166.963 193.387C192.194 193.226 217.425 186.769 242.651 186.612C243.078 186.612 243.415 186.266 243.415 185.844V151.916C243.415 151.494 243.074 151.152 242.651 151.152V151.156Z" stroke="#0A0A0A" stroke-miterlimit="10"/>
<path d="M240.294 178.261C237.218 178.325 234.725 180.862 234.725 183.806C214.802 184.863 194.875 189.029 174.948 190.094C174.948 187.147 172.455 184.907 169.379 184.972V166.263C172.451 166.199 174.948 163.661 174.948 160.718C194.875 159.653 214.798 155.487 234.725 154.43C234.725 157.381 237.218 159.621 240.294 159.556C240.294 165.792 240.294 172.029 240.294 178.265V178.261Z" stroke="#0A0A0A" stroke-width="0.87" stroke-miterlimit="10"/>
<path d="M216.166 171.521C216.166 177.817 211.056 183.551 204.755 184.387C198.454 185.223 193.344 180.736 193.344 174.428C193.344 168.131 198.454 162.401 204.755 161.565C211.06 160.729 216.166 165.216 216.166 171.521Z" fill="#0A0A0A" stroke="#0A0A0A" stroke-width="0.87" stroke-miterlimit="10"/>
<path d="M216.166 170.103C216.166 176.399 211.056 182.129 204.755 182.969C198.454 183.806 193.344 179.318 193.344 173.01C193.344 166.713 198.454 160.984 204.755 160.147C211.06 159.311 216.166 163.798 216.166 170.103Z" fill="white" stroke="#0A0A0A" stroke-width="0.87" stroke-miterlimit="10"/>
<path d="M184.756 175.522C184.756 177.769 182.93 179.776 180.682 179.957C178.435 180.138 176.609 178.425 176.609 176.173C176.609 173.921 178.435 171.991 180.682 171.81C182.934 171.63 184.756 173.274 184.756 175.522Z" fill="#0A0A0A" stroke="#0A0A0A" stroke-width="1.13" stroke-miterlimit="10"/>
<path d="M176.609 174.784V176.171C179.323 176.002 182.042 175.781 184.756 175.52V174.133C182.042 174.394 179.323 174.615 176.609 174.784Z" fill="#0A0A0A" stroke="#0A0A0A" stroke-width="1.13" stroke-miterlimit="10"/>
<path d="M184.756 174.131C184.756 176.379 182.93 178.385 180.682 178.566C178.435 178.747 176.609 177.034 176.609 174.783C176.609 172.535 178.435 170.601 180.682 170.416C182.934 170.235 184.756 171.88 184.756 174.131Z" fill="white" stroke="#0A0A0A" stroke-width="1.13" stroke-miterlimit="10"/>
<path d="M232.896 170.086C232.896 172.337 231.075 174.271 228.823 174.452C226.571 174.633 224.75 172.993 224.75 170.741C224.75 168.493 226.575 166.487 228.823 166.306C231.075 166.125 232.896 167.838 232.896 170.086Z" fill="#0A0A0A" stroke="#0A0A0A" stroke-width="1.13" stroke-miterlimit="10"/>
<path d="M224.746 169.347V170.734C227.464 170.473 230.178 170.247 232.892 170.079V168.691C230.178 168.86 227.46 169.085 224.746 169.347Z" fill="#0A0A0A" stroke="#0A0A0A" stroke-width="1.13" stroke-miterlimit="10"/>
<path d="M232.896 168.699C232.896 170.951 231.075 172.885 228.823 173.065C226.571 173.246 224.75 171.606 224.75 169.354C224.75 167.107 226.575 165.1 228.823 164.919C231.075 164.738 232.896 166.451 232.896 168.699Z" fill="white" stroke="#0A0A0A" stroke-width="1.13" stroke-miterlimit="10"/>
<path d="M205.642 170.378C204.191 169.968 203.945 169.699 203.945 169.261C203.945 169.068 204.03 168.424 205.108 168.284C206.056 168.159 206.66 168.424 206.913 168.537C206.949 168.553 206.985 168.569 207.021 168.585C207.295 168.706 207.637 168.537 207.749 168.227C207.914 167.769 208.079 167.311 208.244 166.852C208.332 166.611 208.244 166.358 208.027 166.261C208.003 166.249 207.974 166.237 207.946 166.225C207.383 165.968 206.768 165.843 206.073 165.847V164.681C206.073 164.399 205.843 164.202 205.566 164.239C205.148 164.295 204.73 164.347 204.311 164.404C204.03 164.44 203.805 164.697 203.805 164.978V166.285C202.249 166.929 201.272 168.267 201.272 169.807C201.272 171.778 202.868 172.461 204.424 172.867C205.678 173.213 205.932 173.607 205.936 174.094C205.936 174.709 205.381 175.195 204.557 175.3C203.837 175.392 203.065 175.264 202.486 174.954C202.446 174.934 202.41 174.914 202.369 174.894C202.096 174.745 201.722 174.918 201.609 175.244C201.449 175.706 201.292 176.172 201.135 176.635C201.059 176.86 201.135 177.089 201.316 177.194C201.34 177.206 201.36 177.218 201.384 177.234C201.951 177.568 202.816 177.749 203.692 177.74V178.967C203.692 179.248 203.917 179.445 204.199 179.409C204.621 179.353 205.047 179.297 205.469 179.244C205.747 179.208 205.976 178.951 205.976 178.669V177.31C207.58 176.639 208.626 175.211 208.626 173.623C208.626 171.476 207.029 170.76 205.646 170.374L205.642 170.378Z" fill="#0A0A0A" stroke="#0A0A0A" stroke-width="0.87" stroke-miterlimit="10"/>
<path d="M205.634 169.339C204.183 168.929 203.938 168.66 203.938 168.222C203.938 168.029 204.022 167.385 205.1 167.245C206.049 167.12 206.652 167.385 206.905 167.498C206.941 167.514 206.977 167.53 207.014 167.546C207.287 167.667 207.629 167.494 207.741 167.188C207.906 166.73 208.071 166.271 208.236 165.813C208.324 165.572 208.236 165.323 208.019 165.222C207.995 165.21 207.967 165.198 207.938 165.186C207.375 164.929 206.76 164.804 206.065 164.808V163.642C206.065 163.36 205.836 163.163 205.558 163.2C205.14 163.256 204.722 163.308 204.304 163.364C204.022 163.401 203.797 163.658 203.797 163.939V165.246C202.241 165.894 201.264 167.228 201.264 168.768C201.264 170.739 202.86 171.422 204.416 171.828C205.671 172.174 205.924 172.564 205.928 173.055C205.928 173.67 205.373 174.152 204.549 174.261C203.829 174.353 203.057 174.225 202.478 173.915C202.438 173.895 202.402 173.875 202.362 173.855C202.088 173.71 201.714 173.879 201.602 174.204C201.441 174.667 201.284 175.133 201.127 175.596C201.051 175.821 201.127 176.046 201.308 176.155C201.332 176.167 201.352 176.179 201.376 176.195C201.943 176.529 202.808 176.713 203.684 176.701V177.928C203.684 178.209 203.91 178.406 204.191 178.37C204.613 178.314 205.039 178.257 205.462 178.205C205.739 178.169 205.968 177.912 205.968 177.63V176.271C207.572 175.604 208.618 174.172 208.618 172.584C208.618 170.437 207.022 169.717 205.638 169.335L205.634 169.339Z" fill="#00AD7B" stroke="#0A0A0A" stroke-width="0.87" stroke-miterlimit="10"/>
</g>
</g>
<defs>
<filter id="filter0_iiii_2200_919" x="0" y="0" width="400" height="219.789" filterUnits="userSpaceOnUse" color-interpolation-filters="sRGB">
<feFlood flood-opacity="0" result="BackgroundImageFix"/>
<feBlend mode="normal" in="SourceGraphic" in2="BackgroundImageFix" result="shape"/>
<feColorMatrix in="SourceAlpha" type="matrix" values="0 0 0 0 0 0 0 0 0 0 0 0 0 0 0 0 0 0 127 0" result="hardAlpha"/>
<feOffset dy="3.04444"/>
<feGaussianBlur stdDeviation="3.29815"/>
<feComposite in2="hardAlpha" operator="arithmetic" k2="-1" k3="1"/>
<feColorMatrix type="matrix" values="0 0 0 0 0 0 0 0 0 0 0 0 0 0 0 0 0 0 0.05 0"/>
<feBlend mode="normal" in2="shape" result="effect1_innerShadow_2200_919"/>
<feColorMatrix in="SourceAlpha" type="matrix" values="0 0 0 0 0 0 0 0 0 0 0 0 0 0 0 0 0 0 127 0" result="hardAlpha"/>
<feOffset dy="12.1778"/>
<feGaussianBlur stdDeviation="6.08889"/>
<feComposite in2="hardAlpha" operator="arithmetic" k2="-1" k3="1"/>
<feColorMatrix type="matrix" values="0 0 0 0 0 0 0 0 0 0 0 0 0 0 0 0 0 0 0.04 0"/>
<feBlend mode="normal" in2="effect1_innerShadow_2200_919" result="effect2_innerShadow_2200_919"/>
<feColorMatrix in="SourceAlpha" type="matrix" values="0 0 0 0 0 0 0 0 0 0 0 0 0 0 0 0 0 0 127 0" result="hardAlpha"/>
<feOffset dy="27.9074"/>
<feGaussianBlur stdDeviation="8.37222"/>
<feComposite in2="hardAlpha" operator="arithmetic" k2="-1" k3="1"/>
<feColorMatrix type="matrix" values="0 0 0 0 0 0 0 0 0 0 0 0 0 0 0 0 0 0 0.03 0"/>
<feBlend mode="normal" in2="effect2_innerShadow_2200_919" result="effect3_innerShadow_2200_919"/>
<feColorMatrix in="SourceAlpha" type="matrix" values="0 0 0 0 0 0 0 0 0 0 0 0 0 0 0 0 0 0 127 0" result="hardAlpha"/>
<feOffset dy="49.2185"/>
<feGaussianBlur stdDeviation="9.89445"/>
<feComposite in2="hardAlpha" operator="arithmetic" k2="-1" k3="1"/>
<feColorMatrix type="matrix" values="0 0 0 0 0 0 0 0 0 0 0 0 0 0 0 0 0 0 0.01 0"/>
<feBlend mode="normal" in2="effect3_innerShadow_2200_919" result="effect4_innerShadow_2200_919"/>
</filter>
<filter id="filter1_dd_2200_919" x="31.0859" y="106.664" width="338.172" height="42.4414" filterUnits="userSpaceOnUse" color-interpolation-filters="sRGB">
<feFlood flood-opacity="0" result="BackgroundImageFix"/>
<feColorMatrix in="SourceAlpha" type="matrix" values="0 0 0 0 0 0 0 0 0 0 0 0 0 0 0 0 0 0 127 0" result="hardAlpha"/>
<feOffset dy="8"/>
<feGaussianBlur stdDeviation="2.5"/>
<feColorMatrix type="matrix" values="0 0 0 0 0 0 0 0 0 0 0 0 0 0 0 0 0 0 0.08 0"/>
<feBlend mode="normal" in2="BackgroundImageFix" result="effect1_dropShadow_2200_919"/>
<feColorMatrix in="SourceAlpha" type="matrix" values="0 0 0 0 0 0 0 0 0 0 0 0 0 0 0 0 0 0 127 0" result="hardAlpha"/>
<feOffset dy="15"/>
<feGaussianBlur stdDeviation="3"/>
<feColorMatrix type="matrix" values="0 0 0 0 0 0 0 0 0 0 0 0 0 0 0 0 0 0 0.02 0"/>
<feBlend mode="normal" in2="effect1_dropShadow_2200_919" result="effect2_dropShadow_2200_919"/>
<feBlend mode="normal" in="SourceGraphic" in2="effect2_dropShadow_2200_919" result="shape"/>
</filter>
<linearGradient id="paint0_linear_2200_919" x1="-9.81481" y1="108.939" x2="475.033" y2="78.3373" gradientUnits="userSpaceOnUse">
<stop stop-color="#7F56D1"/>
<stop offset="1" stop-color="#301D58"/>
</linearGradient>
<clipPath id="clip0_2200_919">
<rect width="400" height="200" fill="white"/>
</clipPath>
<clipPath id="clip1_2200_919">
<rect width="136.001" height="62.4641" fill="white" transform="translate(132 31)"/>
</clipPath>
</defs>
</svg>
